<?xml version="1.0" encoding="iso-8859-1"?>
<!-- Generator: Adobe Illustrator 19.0.0, SVG Export Plug-In . SVG Version: 6.00 Build 0)  -->
<svg version="1.1" id="Capa_1" xmlns="http://www.w3.org/2000/svg" xmlns:xlink="http://www.w3.org/1999/xlink" x="0px" y="0px"
	 viewBox="0 0 512 512" style="enable-background:new 0 0 512 512;" xml:space="preserve">
<g>
	<path style="fill:#F09372;" d="M454.532,283.983c-0.971-6.444-2.119-12.8-3.443-19.068c-0.177-1.148-0.441-2.295-0.706-3.443
		c-4.218-23.555-12.365-46.234-24.099-67.09c-12.293-20.342-28.105-38.336-46.698-53.142V52.966C379.586,23.713,355.873,0,326.621,0
		H185.379c-29.252,0-52.966,23.713-52.966,52.966v88.276c-18.593,14.806-34.405,32.8-46.698,53.142
		c-11.735,20.855-19.881,43.534-24.099,67.09c-0.265,1.148-0.53,2.295-0.706,3.443c-1.324,6.267-2.472,12.623-3.443,19.068
		c-3.619,24.011-1.589,53.319,18.273,70.179c6.356,5.385,18.008,11.829,26.483,8.916c1.725-0.635,3.313-1.594,4.679-2.825
		c-17.567-7.68-25.247-39.371-27.277-49.523c-0.631-3.091,0.435-6.283,2.797-8.375s5.659-2.765,8.651-1.766
		c2.992,0.999,5.224,3.519,5.855,6.609c3.708,18.538,12.094,36.193,17.567,37.076c0.986,0.176,1.939,0.503,2.825,0.971
		c1.236-2.383,2.295-4.59,3.178-6.532c4.102-7.582,5.766-16.244,4.767-24.806c-2.149-7.624-4.834-15.087-8.033-22.334
		c-2.621-7.907-4.367-16.077-5.208-24.364c-2.913-25.423,1.589-54.201,20.392-73.004v35.31c-0.032,27.768,13.06,53.919,35.31,70.532
		v67.266l-16.154,83.95c-11.356,3.231-19.181,13.617-19.156,25.423v26.483c0.015,4.869,3.958,8.813,8.828,8.828h88.276
		c4.869-0.015,8.813-3.958,8.828-8.828V476.69c0.025-11.807-7.8-22.192-19.156-25.423l-16.154-83.95v-51.288
		c3.207,0.656,6.449,1.128,9.71,1.412h0.088c2.611,0.252,5.233,0.37,7.857,0.353h70.621c2.623,0.017,5.245-0.101,7.857-0.353h0.088
		c3.261-0.285,6.503-0.756,9.71-1.412v51.288l-16.154,83.95c-11.356,3.231-19.181,13.617-19.156,25.423v26.483
		c0.015,4.869,3.958,8.813,8.828,8.828h88.276c4.869-0.015,8.813-3.958,8.828-8.828V476.69c0.025-11.807-7.8-22.192-19.156-25.423
		l-16.155-83.95V300.05c22.251-16.613,35.342-42.764,35.31-70.532v-35.31c18.803,18.803,23.305,47.581,20.392,73.004
		c-0.841,8.287-2.588,16.457-5.208,24.364c-3.2,7.246-5.884,14.71-8.033,22.334c-0.999,8.562,0.665,17.224,4.767,24.806
		c0.883,1.942,1.942,4.149,3.178,6.532c0.886-0.468,1.839-0.795,2.825-0.971c5.914-0.971,14.301-20.745,17.567-37.076
		c0.631-3.091,2.862-5.61,5.854-6.609c2.992-0.999,6.29-0.326,8.651,1.766c2.361,2.092,3.427,5.284,2.797,8.375
		c-2.03,10.152-9.799,41.931-27.366,49.523c1.397,1.234,3.014,2.192,4.767,2.825c8.475,2.913,20.127-3.531,26.483-8.916
		C456.121,337.302,458.152,307.994,454.532,283.983z"/>
	<path style="fill:#CBB292;" d="M379.586,52.966v176.552c0.032,27.768-13.06,53.919-35.31,70.532
		c-10.419,7.914-22.488,13.375-35.31,15.978c-3.207,0.656-6.449,1.128-9.71,1.412h-0.088c-14.201-6.207-26.519-16.041-35.716-28.516
		c-1.621-2.547-4.431-4.09-7.451-4.09c-3.02,0-5.83,1.543-7.451,4.09c-9.197,12.474-21.515,22.309-35.716,28.516h-0.088
		c-3.261-0.285-6.503-0.756-9.71-1.412c-12.822-2.602-24.892-8.064-35.31-15.978c-22.251-16.613-35.342-42.764-35.31-70.532V52.966
		C132.414,23.713,156.127,0,185.379,0h26.483c15.706,10.475,28.215,25.083,36.149,42.213c1.416,3.142,4.543,5.162,7.989,5.162
		c3.447,0,6.573-2.02,7.989-5.162c7.934-17.13,20.443-31.737,36.148-42.213h26.483C355.873,0,379.586,23.713,379.586,52.966z"/>
	<path style="fill:#C03A2B;" d="M300.138,0c-15.706,10.475-28.215,25.083-36.149,42.213c-1.416,3.142-4.543,5.162-7.989,5.162
		s-6.573-2.02-7.989-5.162C240.076,25.083,227.567,10.475,211.862,0H300.138z"/>
	<path style="fill:#2C2F38;" d="M344.276,229.517c-4.875,0-8.828-3.952-8.828-8.828v-8.828c-0.006-4.873-3.955-8.821-8.828-8.828
		H185.379c-4.873,0.006-8.821,3.955-8.828,8.828v8.828c0,4.875-3.952,8.828-8.828,8.828s-8.828-3.952-8.828-8.828v-8.828
		c0.016-14.619,11.863-26.467,26.483-26.483h141.241c14.619,0.016,26.467,11.863,26.483,26.483v8.828
		C353.103,225.565,349.151,229.517,344.276,229.517z"/>
	<g>
		<path style="fill:#FFFFFF;" d="M238.345,128.631c-1.496,18.056-17.238,31.549-35.31,30.266
			c-18.072,1.283-33.814-12.21-35.31-30.266c0-16.715,10.765-40.355,30.266-40.355S238.345,111.915,238.345,128.631z"/>
		<path style="fill:#FFFFFF;" d="M273.655,128.631c1.496,18.056,17.238,31.549,35.31,30.266c18.072,1.283,33.814-12.21,35.31-30.266
			c0-16.715-10.765-40.355-30.266-40.355S273.655,111.915,273.655,128.631z"/>
	</g>
	<g>
		<path style="fill:#2C2F38;" d="M203.034,132.414c-1.155-0.014-2.296-0.254-3.358-0.707c-1.068-0.449-2.051-1.076-2.91-1.854
			c-1.612-1.692-2.527-3.93-2.56-6.267c0.018-0.592,0.077-1.183,0.177-1.767c0.095-0.554,0.272-1.09,0.526-1.59
			c0.195-0.562,0.463-1.095,0.797-1.586c0.353-0.444,0.707-0.884,1.06-1.323c0.857-0.78,1.841-1.409,2.909-1.858
			c3.289-1.384,7.088-0.651,9.626,1.857c0.38,0.418,0.733,0.86,1.056,1.323c0.334,0.491,0.603,1.025,0.797,1.586
			c0.253,0.501,0.432,1.037,0.53,1.59c0.097,0.585,0.156,1.175,0.176,1.768c0.023,2.348-0.9,4.607-2.56,6.267
			C207.641,131.514,205.383,132.437,203.034,132.414z"/>
		<path style="fill:#2C2F38;" d="M308.966,132.414c-1.155-0.014-2.296-0.254-3.358-0.707c-1.079-0.428-2.066-1.057-2.909-1.854
			c-0.78-0.859-1.409-1.844-1.858-2.914c-0.451-1.061-0.69-2.2-0.703-3.353c0.033-2.337,0.947-4.576,2.56-6.268
			c0.842-0.8,1.83-1.43,2.909-1.858c3.289-1.384,7.088-0.651,9.626,1.858c2.546,2.525,3.312,6.341,1.937,9.653
			S312.552,132.435,308.966,132.414z"/>
		<path style="fill:#2C2F38;" d="M264.828,238.345h-17.655c-4.875,0-8.828-3.952-8.828-8.828s3.952-8.828,8.828-8.828h17.655
			c4.875,0,8.828,3.952,8.828,8.828S269.703,238.345,264.828,238.345z"/>
		<path style="fill:#2C2F38;" d="M167.715,70.621c-3.058-0.002-5.898-1.587-7.504-4.19c-1.607-2.602-1.752-5.851-0.383-8.586
			c4.241-8.478,19.302-22.146,46-13.254c2.992,0.998,5.225,3.516,5.856,6.606c0.632,3.09-0.433,6.283-2.793,8.375
			c-2.36,2.092-5.657,2.766-8.65,1.769c-18.987-6.345-24.573,4.293-24.621,4.401C174.124,68.736,171.063,70.625,167.715,70.621z"/>
		<path style="fill:#2C2F38;" d="M344.285,70.621c-3.289,0.003-6.307-1.822-7.832-4.737c-0.681-1.216-6.664-10.556-24.694-4.543
			c-4.625,1.543-9.626-0.956-11.168-5.582s0.956-9.626,5.582-11.168c26.698-8.901,41.759,4.776,46,13.254
			c1.368,2.735,1.223,5.984-0.383,8.586C350.182,69.033,347.343,70.619,344.285,70.621z"/>
	</g>
	<path style="fill:#C03A2B;" d="M299.167,317.44c-2.611,0.252-5.233,0.37-7.857,0.353H220.69c-2.623,0.017-5.245-0.101-7.857-0.353
		c14.201-6.207,26.519-16.041,35.716-28.516c1.621-2.547,4.431-4.09,7.451-4.09c3.02,0,5.83,1.543,7.451,4.09
		C272.648,301.398,284.966,311.233,299.167,317.44z"/>
	<path style="fill:#FDD7AD;" d="M238.345,476.69v26.483c-0.015,4.869-3.958,8.813-8.828,8.828h-88.276
		c-4.869-0.015-8.813-3.958-8.828-8.828V476.69c-0.025-11.807,7.8-22.192,19.156-25.423c2.376-0.716,4.845-1.073,7.327-1.059h52.966
		c2.481-0.014,4.951,0.343,7.327,1.059C230.545,454.498,238.37,464.883,238.345,476.69z"/>
	<g>
		<path style="fill:#F09372;" d="M167.724,494.345V512h-17.655v-17.655c0-4.875,3.952-8.828,8.828-8.828
			S167.724,489.469,167.724,494.345z"/>
		<path style="fill:#F09372;" d="M194.207,494.345V512h-17.655v-17.655c0-4.875,3.952-8.828,8.828-8.828
			S194.207,489.469,194.207,494.345z"/>
		<path style="fill:#F09372;" d="M220.69,494.345V512h-17.655v-17.655c0-4.875,3.952-8.828,8.828-8.828
			S220.69,489.469,220.69,494.345z"/>
	</g>
	<path style="fill:#FDD7AD;" d="M379.586,476.69v26.483c-0.015,4.869-3.958,8.813-8.828,8.828h-88.276
		c-4.869-0.015-8.813-3.958-8.828-8.828V476.69c-0.025-11.807,7.8-22.192,19.156-25.423c2.376-0.716,4.845-1.073,7.327-1.059h52.966
		c2.481-0.014,4.951,0.343,7.327,1.059C371.786,454.498,379.611,464.883,379.586,476.69z"/>
	<g>
		<path style="fill:#F09372;" d="M361.931,494.345V512h-17.655v-17.655c0-4.875,3.952-8.828,8.828-8.828
			S361.931,489.469,361.931,494.345z"/>
		<path style="fill:#F09372;" d="M335.448,494.345V512h-17.655v-17.655c0-4.875,3.952-8.828,8.828-8.828
			S335.448,489.469,335.448,494.345z"/>
		<path style="fill:#F09372;" d="M308.966,494.345V512H291.31v-17.655c0-4.875,3.952-8.828,8.828-8.828
			S308.966,489.469,308.966,494.345z"/>
	</g>
</g>
<g>
</g>
<g>
</g>
<g>
</g>
<g>
</g>
<g>
</g>
<g>
</g>
<g>
</g>
<g>
</g>
<g>
</g>
<g>
</g>
<g>
</g>
<g>
</g>
<g>
</g>
<g>
</g>
<g>
</g>
</svg>
