<?xml version="1.0" encoding="iso-8859-1"?>
<!-- Generator: Adobe Illustrator 19.0.0, SVG Export Plug-In . SVG Version: 6.00 Build 0)  -->
<svg version="1.1" id="Capa_1" xmlns="http://www.w3.org/2000/svg" xmlns:xlink="http://www.w3.org/1999/xlink" x="0px" y="0px"
	 viewBox="0 0 512.017 512.017" style="enable-background:new 0 0 512.017 512.017;" xml:space="preserve">
<g transform="translate(-1)">
	<path style="fill:#90BAE1;" d="M389.426,194.207h-8.828c4.712,0.1,9.262-1.728,12.595-5.061c3.333-3.333,5.161-7.882,5.061-12.595
		c-1.672-13.443-7.903-25.907-17.655-35.31c-0.562-18.494-3.409-36.847-8.474-54.643c-8.916-33.368-28.954-63.823-62.058-76.447
		C293.107,3.707,275.153,0.272,257.012,0c-18.141,0.272-36.094,3.707-53.054,10.152C170.855,22.775,150.816,53.23,141.9,86.599
		c-5.066,17.795-7.912,36.149-8.474,54.643c-9.752,9.403-15.984,21.867-17.655,35.31c-0.537,6.791,3.342,13.161,9.622,15.801
		l-0.794,1.854c0,0-39.018,97.633,0.265,158.72l-0.265,0.177c0.314,12.882,1.821,25.708,4.502,38.312v0.177
		c5.297,25.159,16.596,56.938,41.137,77.153c15.179,12.391,34.081,19.324,53.672,19.686h0.088c9.747-1.87,19.648-2.816,29.572-2.825
		h2.913c0.177,0,0.353-0.088,0.53-0.088c0.177,0,0.353,0.088,0.53,0.088h2.913c9.924,0.008,19.826,0.954,29.572,2.824h0.088
		c19.635-0.35,38.578-7.317,53.76-19.774c24.452-20.127,35.752-51.906,41.048-77.065v-0.177c2.681-12.604,4.188-25.429,4.502-38.311
		l-0.265-0.177C428.444,291.84,389.426,194.207,389.426,194.207z"/>
	<g>
		<path style="fill:#2C3E50;" d="M210.755,247.967c-12.226,6.162-26.351,7.395-39.459,3.443c-1.719-4.14-2.59-8.582-2.56-13.065
			c-0.003-9.366,3.717-18.349,10.339-24.971s15.605-10.342,24.971-10.339c4.52-0.035,8.999,0.867,13.153,2.648
			c1.052,1.411,1.968,2.918,2.737,4.502C226.309,223.353,222.461,239.191,210.755,247.967z"/>
		<path style="fill:#2C3E50;" d="M342.728,251.41c-13.108,3.952-27.233,2.719-39.459-3.443
			c-11.706-8.776-15.554-24.614-9.181-37.782c0.768-1.584,1.685-3.091,2.737-4.502c4.154-1.782,8.633-2.683,13.153-2.648
			c9.366-0.003,18.349,3.717,24.971,10.339c6.623,6.623,10.342,15.605,10.339,24.971C345.318,242.827,344.447,247.27,342.728,251.41
			z"/>
	</g>
	<g>
		<path style="fill:#556080;" d="M230.525,176.543c-2.333,0.004-4.571-0.919-6.224-2.565c-15.202-13.583-32.27-24.921-50.685-33.668
			c-11.58-6.001-25.785-3-33.948,7.172c-3.455,3.396-9.002,3.372-12.428-0.054c-3.426-3.426-3.45-8.973-0.054-12.428
			c13.582-15.506,35.952-19.822,54.328-10.483c20.141,9.53,38.762,21.986,55.258,36.966c2.521,2.525,3.273,6.32,1.906,9.616
			S234.093,176.543,230.525,176.543L230.525,176.543z"/>
		<path style="fill:#556080;" d="M133.426,203.034c-4.013-0.096-7.967-0.987-11.634-2.621c-4.421-2.006-6.393-7.205-4.414-11.638
			c1.979-4.433,7.167-6.436,11.612-4.483c1.439,0.626,2.977,0.993,4.543,1.086c4.841,0.123,8.691,4.102,8.655,8.944
			C142.157,199.141,138.244,203.031,133.426,203.034z"/>
		<path style="fill:#556080;" d="M217.21,214.509c-2.941,0.004-5.69-1.457-7.332-3.896c-2.09-3.431-5.09-6.215-8.668-8.043
			c-17.686-6.079-33.887-15.826-47.543-28.604c-3.433-3.446-3.43-9.021,0.006-12.464c3.436-3.443,9.01-3.457,12.464-0.032
			c11.756,10.822,25.61,19.114,40.703,24.362c7.274,3.059,13.444,8.263,17.685,14.918c1.822,2.705,2.004,6.195,0.473,9.075
			C223.467,212.705,220.472,214.506,217.21,214.509L217.21,214.509z"/>
		<path style="fill:#556080;" d="M284.29,176.543c2.333,0.004,4.571-0.919,6.224-2.565c15.202-13.583,32.27-24.921,50.685-33.668
			c11.58-6.001,25.785-3,33.948,7.172c2.224,2.257,5.488,3.149,8.551,2.336c3.063-0.813,5.455-3.205,6.268-6.268
			c0.813-3.063-0.079-6.326-2.336-8.551c-13.582-15.506-35.952-19.822-54.328-10.483c-20.142,9.53-38.763,21.986-55.259,36.966
			c-2.521,2.525-3.273,6.32-1.906,9.616C277.505,174.395,280.722,176.543,284.29,176.543L284.29,176.543z"/>
		<path style="fill:#556080;" d="M381.389,203.034c4.013-0.096,7.967-0.987,11.634-2.621c4.421-2.006,6.393-7.205,4.414-11.638
			c-1.979-4.433-7.167-6.436-11.612-4.483c-1.439,0.626-2.977,0.993-4.543,1.086c-4.841,0.123-8.691,4.102-8.655,8.944
			C372.659,199.141,376.571,203.031,381.389,203.034z"/>
		<path style="fill:#556080;" d="M297.605,214.509c2.941,0.004,5.69-1.457,7.332-3.896c2.09-3.431,5.09-6.215,8.668-8.043
			c17.686-6.079,33.887-15.826,47.543-28.604c3.451-3.443,3.456-9.032,0.013-12.483c-3.443-3.451-9.032-3.456-12.483-0.013
			c-11.756,10.822-25.61,19.114-40.703,24.362c-7.274,3.059-13.444,8.263-17.685,14.918c-1.822,2.705-2.004,6.195-0.473,9.075
			C291.349,212.705,294.343,214.506,297.605,214.509L297.605,214.509z"/>
		<path style="fill:#556080;" d="M201.305,304.711c-22.743-1.137-44.792-8.214-63.948-20.526c-4.03-2.713-5.111-8.172-2.419-12.216
			c2.692-4.044,8.146-5.153,12.204-2.482c0.371,0.241,37,24.22,68.401,15.789c15.102-4.583,27.396-15.623,33.573-30.146
			c1.404-2.831,4.213-4.695,7.367-4.889c3.154-0.194,6.17,1.313,7.91,3.95c1.74,2.638,1.937,6.004,0.517,8.826
			c-8.359,19.144-24.816,33.564-44.892,39.336C213.908,303.951,207.618,304.743,201.305,304.711z"/>
		<path style="fill:#556080;" d="M312.719,304.711c-6.313,0.032-12.603-0.761-18.711-2.358
			c-20.076-5.771-36.534-20.192-44.892-39.336c-1.42-2.822-1.223-6.189,0.517-8.826c1.74-2.638,4.756-4.144,7.91-3.95
			c3.154,0.194,5.963,2.058,7.367,4.889c6.177,14.523,18.471,25.563,33.573,30.146c31.41,8.397,68.039-15.547,68.401-15.789
			c4.058-2.671,9.512-1.562,12.204,2.482c2.692,4.044,1.611,9.503-2.419,12.216C357.511,296.496,335.462,303.574,312.719,304.711z"
			/>
		<path style="fill:#556080;" d="M257.012,158.897c-4.875,0-8.828-3.952-8.828-8.828V70.621c0.458-5.117-1.496-10.155-5.284-13.625
			c-8.614-4.794-18.68-6.287-28.315-4.198c-4.783,0.945-9.426-2.166-10.371-6.948c-0.945-4.783,2.166-9.426,6.948-10.371
			c2.763-0.547,27.349-4.944,42.948,7.875c7.934,6.773,12.268,16.849,11.728,27.267v79.448
			C265.84,154.944,261.887,158.897,257.012,158.897z"/>
		<path style="fill:#556080;" d="M257.012,158.897c-4.875,0-8.828-3.952-8.828-8.828V70.621
			c-0.539-10.418,3.795-20.494,11.728-27.267c15.599-12.81,40.19-8.423,42.948-7.875c4.77,0.952,7.87,5.584,6.933,10.357
			c-0.937,4.773-5.558,7.888-10.334,6.967c-9.652-2.13-19.751-0.629-28.366,4.215c-3.768,3.473-5.709,8.499-5.254,13.604v79.448
			C265.84,154.944,261.887,158.897,257.012,158.897z"/>
	</g>
	<path style="fill:#285680;" d="M142.253,503.261c0.003,2.284,0.239,4.562,0.706,6.797c-0.258,0.073-0.527,0.103-0.794,0.088
		c-1.006-13.95-12.7-24.704-26.685-24.54c-13.985,0.164-25.424,11.189-26.104,25.158c-26.879-2.698-53.143-9.734-77.771-20.833
		c-9.126-4.216-13.124-15.018-8.942-24.159c4.182-9.141,14.968-13.18,24.125-9.033c70.003,30.632,94.014-23.923,102.312-65.148
		c5.297,25.159,16.596,56.938,41.137,77.153C153.932,472.204,142.266,486.593,142.253,503.261z"/>
	<g>
		<path style="fill:#4482C3;" d="M223.909,488.43c-4.414,0.794-8.828,1.854-13.153,3.001c-4.943,1.412-9.799,3.09-14.654,4.943
			c-17.088,6.715-34.936,11.31-53.142,13.683c-0.467-2.236-0.703-4.513-0.706-6.797c0.013-16.668,11.679-31.057,27.983-34.516
			C185.416,481.136,204.317,488.069,223.909,488.43z"/>
		<path style="fill:#4482C3;" d="M142.165,510.146c-17.512,2.267-35.229,2.475-52.789,0.618
			c0.679-13.969,12.119-24.994,26.104-25.158C129.465,485.443,141.159,496.197,142.165,510.146z"/>
	</g>
	<path style="fill:#285680;" d="M513.012,473.335c0.037,7.133-4.107,13.626-10.593,16.596
		c-24.596,11.102-50.832,18.138-77.683,20.833c-0.679-13.969-12.119-24.994-26.104-25.158c-13.985-0.164-25.679,10.59-26.685,24.54
		c-0.268,0.014-0.536-0.015-0.794-0.088c0.467-2.236,0.703-4.513,0.706-6.797c-0.008-16.688-11.667-31.105-27.983-34.604
		c24.452-20.127,35.752-51.906,41.048-77.065c8.298,41.225,32.309,95.779,102.312,65.148c2.368-1.031,4.921-1.572,7.503-1.589
		c4.844-0.042,9.502,1.858,12.936,5.275C511.108,463.842,513.03,468.491,513.012,473.335z"/>
	<g>
		<path style="fill:#4482C3;" d="M424.736,510.764c-17.56,1.857-35.277,1.649-52.789-0.618c1.006-13.95,12.7-24.704,26.685-24.54
			C412.617,485.77,424.057,496.795,424.736,510.764z"/>
		<path style="fill:#4482C3;" d="M371.859,503.261c-0.003,2.284-0.239,4.562-0.706,6.797c-18.243-2.33-36.125-6.926-53.23-13.683
			c-8.995-3.528-18.306-6.189-27.807-7.945c19.635-0.35,38.578-7.317,53.76-19.774C360.192,472.156,371.851,486.573,371.859,503.261
			z"/>
	</g>
	<g>
		<path style="fill:#556080;" d="M212.874,370.759c-4.875,0-8.828-3.952-8.828-8.828c0-34.914,34.647-44.138,52.966-44.138
			c4.875-0.004,8.83,3.946,8.834,8.821s-3.946,8.83-8.821,8.834c-1.616,0.013-35.323,0.569-35.323,26.483
			C221.702,366.806,217.749,370.759,212.874,370.759z"/>
		<path style="fill:#556080;" d="M301.15,370.759c-4.875,0-8.828-3.952-8.828-8.828c0-26.181-33.871-26.483-35.31-26.483
			c-4.875,0-8.828-3.952-8.828-8.828s3.952-8.828,8.828-8.828c18.319,0,52.966,9.224,52.966,44.138
			C309.978,366.806,306.025,370.759,301.15,370.759z"/>
		<path style="fill:#556080;" d="M265.84,370.759h-17.655c-4.875,0-8.828-3.952-8.828-8.828s3.952-8.828,8.828-8.828h17.655
			c4.875,0,8.828,3.952,8.828,8.828S270.715,370.759,265.84,370.759z"/>
		<path style="fill:#556080;" d="M257.012,450.207c-4.875,0-8.828-3.952-8.828-8.828v-17.655c-0.006-4.873-3.955-8.821-8.828-8.828
			h-8.828c-4.875,0-8.828-3.952-8.828-8.828s3.952-8.828,8.828-8.828h8.828c14.619,0.016,26.467,11.863,26.483,26.483v17.655
			C265.84,446.255,261.887,450.207,257.012,450.207z"/>
		<path style="fill:#556080;" d="M257.012,450.207c-4.875,0-8.828-3.952-8.828-8.828v-17.655
			c0.016-14.619,11.863-26.467,26.483-26.483h8.828c4.875,0,8.828,3.952,8.828,8.828s-3.952,8.828-8.828,8.828h-8.828
			c-4.873,0.006-8.821,3.955-8.828,8.828v17.655C265.84,446.255,261.887,450.207,257.012,450.207z"/>
	</g>
</g>
<g>
</g>
<g>
</g>
<g>
</g>
<g>
</g>
<g>
</g>
<g>
</g>
<g>
</g>
<g>
</g>
<g>
</g>
<g>
</g>
<g>
</g>
<g>
</g>
<g>
</g>
<g>
</g>
<g>
</g>
</svg>
