<?xml version="1.0" encoding="iso-8859-1"?>
<!-- Generator: Adobe Illustrator 19.0.0, SVG Export Plug-In . SVG Version: 6.00 Build 0)  -->
<svg version="1.1" id="Capa_1" xmlns="http://www.w3.org/2000/svg" xmlns:xlink="http://www.w3.org/1999/xlink" x="0px" y="0px"
	 viewBox="0 0 512.001 512.001" style="enable-background:new 0 0 512.001 512.001;" xml:space="preserve">
<g>
	<path style="fill:#802F34;" d="M335.449,0.619c-64,9.446-77.241,78.477-79.183,91.366c-0.177,1.324-0.265,2.03-0.265,2.03
		s-8.828-82.979-79.448-93.396S0.001,114.759,0.001,114.759s61.793-17.655,61.793,26.483c0,0,38.223-6.356,44.226,24.276
		c1.213,6.568,1.183,13.305-0.088,19.862v105.931c0,13.771,10.946,26.483,29.484,36.811c-1.582,2.371-2.998,4.849-4.237,7.415
		c-0.883-0.088-1.766-0.088-2.648-0.088c-11.203,0.02-21.734,5.35-28.383,14.366c-6.649,9.017-8.63,20.652-5.338,31.361
		l6.886,22.599l0.883,2.737c5.754,18.623,25.514,29.056,44.138,23.305c0.69-0.196,1.368-0.432,2.03-0.706
		c-4.715,18.149-8.457,36.536-11.211,55.084c-0.379,7.254,2.245,14.345,7.255,19.605c5.01,5.26,11.964,8.227,19.228,8.202h40.96
		c13.133,0.054,24.29-9.595,26.13-22.599c2.03-14.389,6.356-30.367,16.066-30.367v-0.177c2.913,0.088,5.826,0.177,8.828,0.177
		c3.001,0,5.914-0.088,8.828-0.265c0.618,0,1.148-0.088,1.766-0.088v0.53c8.474,1.854,12.359,16.684,14.301,30.19
		c1.839,13.004,12.997,22.653,26.13,22.599h40.96c7.264,0.024,14.218-2.942,19.228-8.202c5.01-5.26,7.634-12.35,7.255-19.605
		c-2.763-18.517-6.505-36.875-11.211-54.996c0.574,0.245,1.164,0.451,1.765,0.618c18.624,5.751,38.384-4.682,44.138-23.305
		l0.883-2.737l6.974-22.599c3.263-10.722,1.258-22.355-5.405-31.366c-6.663-9.011-17.198-14.337-28.405-14.36
		c-0.796-0.015-1.591,0.015-2.383,0.088c-1.239-2.567-2.655-5.044-4.237-7.415c18.538-10.328,29.484-23.04,29.484-36.811V185.38
		c-1.271-6.557-1.301-13.294-0.088-19.862c6.003-30.632,44.226-24.276,44.226-24.276c0-44.138,61.793-26.483,61.793-26.483
		S406.069-9.798,335.449,0.619z M186.351,61.794c-1.126-1.449-2.468-2.718-3.978-3.761
		C183.884,59.075,185.226,60.343,186.351,61.794z M181.067,57.355c-1.027-0.625-2.117-1.141-3.252-1.538
		C178.951,56.213,180.041,56.729,181.067,57.355L181.067,57.355z M176.06,55.468c-1.007-0.233-2.032-0.376-3.065-0.428
		C174.027,55.091,175.053,55.234,176.06,55.468L176.06,55.468z M171.056,55.175c-0.964,0.064-1.921,0.206-2.862,0.423
		C169.135,55.38,170.092,55.239,171.056,55.175L171.056,55.175z M162.019,58.522c-0.776,0.562-1.503,1.186-2.176,1.867
		C160.515,59.707,161.243,59.082,162.019,58.522L162.019,58.522z M166.298,56.238c-0.893,0.322-1.76,0.713-2.592,1.171
		C164.538,56.95,165.404,56.559,166.298,56.238L166.298,56.238z M155.99,66.471c-0.586,1.473-0.974,3.017-1.154,4.592
		c0.099-1.229,0.336-2.443,0.706-3.619C155.648,67.088,155.865,66.813,155.99,66.471z M158.484,61.946
		c-0.586,0.778-1.104,1.605-1.55,2.472C157.379,63.551,157.897,62.724,158.484,61.946z"/>
	<g>
		<path style="fill:#C03A2B;" d="M154.836,71.063l-4.767,52.524l0.088,0.353c-26.13,10.681-42.726,25.335-44.138,41.578
			c-6.003-30.632-44.226-24.276-44.226-24.276s44.138-70.621,88.276-70.621l5.473-3.178
			C155.172,68.62,154.935,69.834,154.836,71.063z"/>
		<path style="fill:#C03A2B;" d="M450.207,141.242c0,0-38.223-6.356-44.226,24.276c-1.412-16.243-18.008-30.897-44.138-41.578
			l0.088-0.353l-4.767-52.524l4.767-0.441C406.069,70.621,450.207,141.242,450.207,141.242z"/>
	</g>
	<path style="fill:#802F34;" d="M406.069,185.38v105.931c0,13.771-10.946,26.483-29.484,36.811
		c-27.277,15.183-71.15,24.982-120.585,24.982s-93.308-9.799-120.585-24.982c-18.538-10.328-29.484-23.04-29.484-36.811V185.38
		c1.271-6.557,1.301-13.294,0.088-19.862c1.412-16.243,18.008-30.897,44.138-41.578c22.674-8.775,46.483-14.274,70.709-16.331
		c11.299-1.059,23.04-1.677,35.134-1.677h0.088c3.619,0,7.15,0.088,10.681,0.177l7.151,0.265c5.208,0.265,10.417,0.618,15.448,1.059
		c0.618,0.088,1.147,0.088,1.766,0.177c3.354,0.353,6.709,0.706,10.063,1.148c20.772,2.496,41.148,7.598,60.646,15.183
		c26.13,10.681,42.726,25.335,44.138,41.578C404.769,172.086,404.799,178.823,406.069,185.38z"/>
	<path style="fill:#E64C3C;" d="M388.414,185.38v105.931c0,13.771-9.658,26.483-26.016,36.811
		c-24.068,15.183-62.78,24.982-106.398,24.982s-82.33-9.799-106.398-24.982c-16.357-10.328-26.016-23.04-26.016-36.811V185.38
		c1.122-6.571,1.148-13.282,0.078-19.862c1.246-16.243,15.89-30.897,38.945-41.578c19.799-8.718,40.859-14.231,62.39-16.331
		c10.297-1.106,20.644-1.666,31-1.677h0.078c3.193,0,6.309,0.088,9.424,0.177l6.31,0.265c4.595,0.265,9.191,0.618,13.631,1.059
		c0.545,0.088,1.012,0.088,1.557,0.177c2.96,0.353,5.92,0.706,8.88,1.148c18.459,2.535,36.471,7.646,53.511,15.183
		c23.056,10.681,37.699,25.335,38.945,41.578C387.266,172.098,387.293,178.809,388.414,185.38z"/>
	<circle style="fill:#FFFFFF;" cx="180.966" cy="198.621" r="39.724"/>
	<g>
		<path style="fill:#F5EFCA;" d="M220.161,307.73c-20.268-0.68-40.308-4.491-59.41-11.299l25.658-24.108
			c1.945-1.828,4.613-2.678,7.257-2.311c2.644,0.367,4.98,1.91,6.355,4.198L220.161,307.73z"/>
		<path style="fill:#F5EFCA;" d="M351.25,296.431c-19.102,6.808-39.142,10.62-59.41,11.299l20.14-33.521
			c1.375-2.288,3.711-3.831,6.355-4.198c2.644-0.367,5.312,0.483,7.257,2.311L351.25,296.431z"/>
	</g>
	<path style="fill:#802F34;" d="M264.828,256.001h-17.655c-4.875,0-8.828-3.952-8.828-8.828c0-4.875,3.952-8.828,8.828-8.828h17.655
		c4.875,0,8.828,3.952,8.828,8.828C273.656,252.049,269.703,256.001,264.828,256.001z"/>
	<path style="fill:#C03A2B;" d="M341.716,385.678c-4.744,15.408,1.537,32.075,15.272,40.519
		c-14.62,11.753-31.465,20.431-49.523,25.512c0.986-3.355,1.491-6.832,1.501-10.328c0-24.364-23.746-44.138-52.966-44.138
		s-52.966,19.774-52.966,44.138c0.01,3.496,0.515,6.974,1.501,10.328c-18.112-5.055-34.996-13.767-49.611-25.6
		c13.689-8.436,19.905-25.087,15.095-40.43l-4.237-13.948l-3.531-11.388c-4.27-13.872-16.6-23.715-31.073-24.806
		c1.239-2.567,2.655-5.044,4.237-7.415c27.277,15.183,71.15,24.982,120.585,24.982s93.308-9.799,120.585-24.982
		c1.582,2.371,2.998,4.849,4.237,7.415c-14.574,0.982-27.036,10.846-31.338,24.806l-3.531,11.388L341.716,385.678z"/>
	<path style="fill:#F3D55B;" d="M152.012,427.697c-1.055,0.545-2.147,1.017-3.266,1.412c-0.662,0.275-1.34,0.51-2.03,0.706
		c-18.624,5.751-38.384-4.682-44.138-23.305l-0.883-2.737l30.72-15.36L152.012,427.697z"/>
	<path style="fill:#E64C3C;" d="M165.783,371.73l-64.088,32.044l-6.886-22.599c-3.292-10.709-1.311-22.344,5.338-31.361
		c6.649-9.017,17.18-14.347,28.383-14.366c0.883,0,1.766,0,2.648,0.088c14.474,1.091,26.803,10.933,31.073,24.806L165.783,371.73z"
		/>
	<path style="fill:#FAC176;" d="M154.925,426.108c-0.933,0.597-1.906,1.128-2.913,1.589l-19.597-39.283l33.368-16.684l4.237,13.948
		C174.83,401.021,168.613,417.672,154.925,426.108z"/>
	<path style="fill:#E64C3C;" d="M417.016,381.176l-6.974,22.599l-30.72-15.36l-33.368-16.684l3.531-11.388
		c4.302-13.96,16.764-23.823,31.338-24.806c0.792-0.073,1.588-0.103,2.383-0.088c11.207,0.023,21.742,5.349,28.405,14.36
		C418.274,358.821,420.278,370.454,417.016,381.176z"/>
	<path style="fill:#F3D55B;" d="M410.042,403.775l-0.883,2.737c-5.754,18.623-25.514,29.056-44.138,23.305
		c-0.602-0.167-1.191-0.373-1.765-0.618c-1.236-0.441-2.383-0.971-3.531-1.501l19.597-39.283L410.042,403.775z"/>
	<path style="fill:#FAC176;" d="M379.322,388.415l-19.597,39.283c-0.94-0.447-1.854-0.948-2.737-1.501
		c-13.734-8.444-20.016-25.11-15.272-40.519l4.237-13.948L379.322,388.415z"/>
	<circle style="fill:#FFFFFF;" cx="331.035" cy="198.621" r="39.724"/>
	<path style="fill:#F0785A;" d="M308.966,441.38c-0.01,3.496-0.515,6.974-1.501,10.328c-13.295,3.957-27.017,6.299-40.872,6.974
		c-0.618,0-1.148,0.088-1.766,0.088c-2.913,0.177-5.826,0.265-8.828,0.265c-3.001,0-5.914-0.088-8.828-0.177
		c-14.45-0.641-28.768-3.043-42.637-7.15c-0.986-3.355-1.491-6.832-1.501-10.328c0-24.364,23.746-44.138,52.966-44.138
		S308.966,417.016,308.966,441.38z"/>
	<g>
		<path style="fill:#F5EFCA;" d="M220.867,107.609c-24.226,2.057-48.035,7.556-70.709,16.331l-0.088-0.353l4.767-52.524
			c0.655-7.218,5.653-13.303,12.606-15.348c6.953-2.045,14.45,0.365,18.908,6.079l34.339,44.138L220.867,107.609z"/>
		<path style="fill:#F5EFCA;" d="M361.932,123.587l-0.088,0.353c-19.498-7.586-39.873-12.687-60.646-15.183
			c-3.354-0.442-6.709-0.794-10.063-1.148c-0.618-0.088-1.148-0.088-1.766-0.177l4.326-4.502l31.956-41.137
			c4.458-5.714,11.955-8.124,18.908-6.079c6.953,2.045,11.951,8.13,12.606,15.348L361.932,123.587z"/>
	</g>
	<g>
		<circle style="fill:#2C2F38;" cx="194.207" cy="217.601" r="17.655"/>
		<circle style="fill:#2C2F38;" cx="317.794" cy="217.601" r="17.655"/>
	</g>
	<path style="fill:#802F34;" d="M373.703,273.734c-2.148-0.81-4.533-0.713-6.609,0.268c-2.076,0.981-3.665,2.761-4.404,4.935
		c-0.121,0.216-12.961,21.203-106.69,21.203c-90.896,0-105.72-19.741-106.642-21.125c-1.86-4.355-6.825-6.467-11.252-4.785
		s-6.739,6.556-5.239,11.048c1.81,5.427,16.254,32.517,123.134,32.517s121.323-27.091,123.134-32.517
		C380.741,280.594,378.336,275.481,373.703,273.734z"/>
</g>
<g>
</g>
<g>
</g>
<g>
</g>
<g>
</g>
<g>
</g>
<g>
</g>
<g>
</g>
<g>
</g>
<g>
</g>
<g>
</g>
<g>
</g>
<g>
</g>
<g>
</g>
<g>
</g>
<g>
</g>
</svg>
