<?xml version="1.0" encoding="iso-8859-1"?>
<!-- Generator: Adobe Illustrator 19.0.0, SVG Export Plug-In . SVG Version: 6.00 Build 0)  -->
<svg version="1.1" id="Capa_1" xmlns="http://www.w3.org/2000/svg" xmlns:xlink="http://www.w3.org/1999/xlink" x="0px" y="0px"
	 viewBox="0 0 512 512" style="enable-background:new 0 0 512 512;" xml:space="preserve">
<g>
	<path style="fill:#464F5D;" d="M467.862,295.018c0-38.577-15.448-85.539-41.666-127.735c14.212-36.811,1.854-84.745-9.622-116.083
		c-2.051-4.307-6.396-7.051-11.167-7.051s-9.116,2.744-11.167,7.051c-5.41,17.385-15.092,33.137-28.16,45.815
		c-19.745-16.795-42.601-29.543-67.266-37.517L270.389,9.269C267.826,3.625,262.199,0,256,0c-6.199,0-11.826,3.625-14.389,9.269
		l-28.425,50.229c-24.665,7.974-47.521,20.722-67.266,37.517c-13.068-12.678-22.75-28.43-28.16-45.815
		c-2.051-4.307-6.396-7.051-11.167-7.051s-9.116,2.744-11.167,7.051c-11.476,31.338-23.834,79.272-9.622,116.083
		c-26.218,42.196-41.666,89.159-41.666,127.735c0.668,41.829,18.247,81.604,48.728,110.257
		c-8.903,25.785-13.438,52.876-13.418,80.154c0,6.885,6.709,13.241,17.655,18.008c0.177,0.088,0.441,0.177,0.618,0.265
		c4.918,2.036,9.997,3.66,15.183,4.855c6.375,1.387,12.832,2.36,19.332,2.913c1.501,0.088,3.178,0.177,4.767,0.265
		c1.412,0.088,2.825,0.177,4.237,0.177C142.566,512,143.978,512,145.39,512h0.265c4.502,0,9.004-0.177,13.241-0.53
		c5.903-0.493,11.769-1.348,17.567-2.56c2.383-0.441,4.767-1.059,6.974-1.677c8.095-1.925,15.681-5.568,22.246-10.681
		c3.616-2.6,5.882-6.679,6.179-11.123c-0.005-0.325-0.035-0.65-0.088-0.971c-0.265-2.472-0.883-9.622-1.412-20.392l0.088-0.265
		c12.135,2.155,24.406,3.453,36.723,3.884c2.913,0.088,5.826,0.177,8.828,0.177s5.914-0.088,8.828-0.177
		c12.317-0.431,24.588-1.729,36.723-3.884l0.088,0.265c-0.53,10.77-1.148,17.92-1.412,20.392c-0.053,0.321-0.083,0.646-0.088,0.971
		c0.297,4.444,2.563,8.523,6.179,11.123c0.945,0.835,1.948,1.601,3.001,2.295c5.929,3.799,12.425,6.63,19.244,8.386
		c2.207,0.618,4.59,1.236,6.974,1.677c5.798,1.212,11.664,2.067,17.567,2.56c2.383,0.177,4.855,0.353,7.327,0.441
		c1.501,0,3.001,0.088,4.502,0.088h1.677c1.412,0,2.825,0,4.149-0.088c1.412,0,2.825-0.088,4.237-0.177
		c1.589-0.088,3.266-0.177,4.767-0.265c6.5-0.553,12.958-1.526,19.332-2.913c5.187-1.195,10.265-2.819,15.183-4.855
		c0.177-0.088,0.441-0.177,0.618-0.265c3.094-1.326,6.051-2.952,8.828-4.855c4.94-2.651,8.245-7.577,8.828-13.153
		c0.013-27.278-4.522-54.368-13.418-80.154C449.615,376.622,467.194,336.847,467.862,295.018z"/>
	<path style="fill:#90BAE1;" d="M467.862,295.018c-0.668,41.829-18.247,81.604-48.728,110.257
		c-32.435,30.864-73.405,51.256-117.583,58.527c-12.135,2.155-24.406,3.453-36.723,3.884c-2.913,0.088-5.826,0.177-8.828,0.177
		s-5.914-0.088-8.828-0.177c-12.317-0.431-24.588-1.729-36.723-3.884c-44.179-7.271-85.148-27.663-117.583-58.527
		c-30.481-28.653-48.06-68.428-48.728-110.257c0-38.577,15.448-85.539,41.666-127.735C71.592,130.472,83.95,82.538,95.426,51.2
		c2.051-4.307,6.396-7.051,11.167-7.051s9.116,2.744,11.167,7.051c5.41,17.385,15.092,33.137,28.16,45.815
		c19.745-16.795,42.601-29.543,67.266-37.517c27.878-8.71,57.75-8.71,85.628,0c24.665,7.974,47.521,20.722,67.266,37.517
		c13.068-12.678,22.75-28.43,28.16-45.815c2.051-4.307,6.396-7.051,11.167-7.051s9.116,2.744,11.167,7.051
		c11.476,31.338,23.834,79.272,9.622,116.083C452.414,209.479,467.862,256.442,467.862,295.018z"/>
	<g>
		<path style="fill:#2C2F38;" d="M282.483,150.069h-52.966c-4.875,0-8.828-3.952-8.828-8.828s3.952-8.828,8.828-8.828h52.966
			c4.875,0,8.828,3.952,8.828,8.828S287.358,150.069,282.483,150.069z"/>
		<path style="fill:#2C2F38;" d="M308.966,114.759H203.035c-4.875,0-8.828-3.952-8.828-8.828s3.952-8.828,8.828-8.828h105.931
			c4.875,0,8.828,3.952,8.828,8.828S313.841,114.759,308.966,114.759z"/>
	</g>
	<path style="fill:#556080;" d="M85.981,167.724c-0.088-0.177-0.088-0.265-0.177-0.441"/>
	<g>
		<path style="fill:#2C2F38;" d="M238.345,273.655c-2.341,0.001-4.587-0.929-6.243-2.585c-1.656-1.656-2.585-3.901-2.585-6.243V256
			c0-4.875,3.952-8.828,8.828-8.828s8.828,3.952,8.828,8.828v8.828c0.001,2.341-0.929,4.587-2.585,6.243
			C242.932,272.726,240.686,273.656,238.345,273.655z"/>
		<path style="fill:#2C2F38;" d="M273.655,273.655c-2.341,0.001-4.587-0.929-6.243-2.585c-1.656-1.656-2.585-3.901-2.585-6.243V256
			c0-4.875,3.952-8.828,8.828-8.828s8.828,3.952,8.828,8.828v8.828c0.001,2.341-0.929,4.587-2.585,6.243
			C278.242,272.726,275.997,273.656,273.655,273.655z"/>
		<path style="fill:#2C2F38;" d="M264.828,441.38v26.306c-2.913,0.088-5.826,0.177-8.828,0.177s-5.914-0.088-8.828-0.177V441.38
			c0-4.875,3.952-8.828,8.828-8.828S264.828,436.504,264.828,441.38z"/>
	</g>
	<g>
		<path style="fill:#BDC3C7;" d="M120.055,483.752c-5.01,4.456-7.12,11.332-5.473,17.832c0.466,2.458-0.145,4.997-1.677,6.974
			c-5.187-1.195-10.265-2.819-15.183-4.855c-0.177-0.088-0.441-0.177-0.618-0.265c-2.38-12.727,2.396-25.736,12.447-33.898
			c3.925-2.901,9.458-2.071,12.359,1.854C124.81,475.318,123.98,480.851,120.055,483.752z"/>
		<path style="fill:#BDC3C7;" d="M165.253,491.697c-4.397,5.629-6.65,12.637-6.356,19.774c-4.237,0.353-8.739,0.53-13.241,0.53
			h-0.265c-1.412,0-2.824,0-4.149-0.088c-0.48-11.937,3.59-23.611,11.388-32.662c3.446-3.438,9.019-3.454,12.485-0.037
			C168.58,482.63,168.642,488.203,165.253,491.697z"/>
		<path style="fill:#BDC3C7;" d="M414.897,503.438c-0.177,0.088-0.441,0.177-0.618,0.265c-4.918,2.036-9.997,3.66-15.183,4.855
			c-1.532-1.977-2.143-4.516-1.677-6.974c1.626-6.499-0.481-13.364-5.473-17.832c-3.819-2.982-4.564-8.466-1.677-12.359
			c2.884-3.823,8.292-4.646,12.182-1.854C412.5,477.702,417.277,490.711,414.897,503.438z"/>
		<path style="fill:#BDC3C7;" d="M370.759,511.912C369.435,512,368.022,512,366.61,512h-1.677c-1.501,0-3.001-0.088-4.502-0.088
			c-2.472-0.088-4.943-0.265-7.327-0.441c0.294-7.136-1.959-14.145-6.356-19.774c-3.281-3.542-3.164-9.048,0.265-12.447
			c3.437-3.354,8.922-3.354,12.359,0C367.169,488.301,371.239,499.975,370.759,511.912z"/>
	</g>
	<path style="fill:#FFFFFF;" d="M211.862,203.035c0,16.605-11.57,30.967-27.794,34.501s-32.72-4.713-39.627-19.813
		c-6.907-15.1-2.36-32.973,10.924-42.936L211.862,203.035z"/>
	<g>
		<path style="fill:#2C2F38;" d="M176.552,238.345c-4.163-0.041-7.72-3.011-8.502-7.1c-0.782-4.089,1.427-8.162,5.281-9.736
			c3.854-1.574,8.283-0.213,10.588,3.255c2.304,3.467,1.844,8.078-1.1,11.022C181.127,237.396,178.889,238.311,176.552,238.345z"/>
		<path style="fill:#2C2F38;" d="M229.509,220.69c-1.368,0.001-2.717-0.318-3.94-0.931l-88.276-44.138
			c-2.829-1.406-4.691-4.217-4.883-7.37c-0.192-3.153,1.316-6.169,3.954-7.907c2.638-1.739,6.003-1.935,8.826-0.516l88.276,44.138
			c3.664,1.831,5.588,5.943,4.644,9.929C237.167,217.881,233.605,220.695,229.509,220.69z"/>
	</g>
	<path style="fill:#FFFFFF;" d="M300.141,203.035c0,16.605,11.57,30.967,27.794,34.501c16.225,3.535,32.72-4.713,39.627-19.813
		c6.907-15.1,2.36-32.973-10.924-42.936L300.141,203.035z"/>
	<g>
		<path style="fill:#2C2F38;" d="M335.452,238.345c4.163-0.041,7.72-3.011,8.502-7.1c0.782-4.089-1.427-8.162-5.281-9.736
			c-3.854-1.574-8.283-0.213-10.588,3.255c-2.304,3.467-1.844,8.078,1.1,11.022C330.877,237.396,333.115,238.311,335.452,238.345z"
			/>
		<path style="fill:#2C2F38;" d="M282.495,220.69c1.368,0.001,2.717-0.318,3.94-0.931l88.276-44.138
			c4.361-2.181,6.129-7.484,3.948-11.845c-2.181-4.361-7.484-6.129-11.845-3.948l-88.276,44.138
			c-3.664,1.831-5.588,5.943-4.644,9.929C274.837,217.881,278.398,220.695,282.495,220.69z"/>
	</g>
	<g>
		<path style="fill:#F5EFCA;" d="M175.757,292.105l-22.422,22.422c-2.345,2.332-5.798,3.155-8.943,2.132
			c-3.145-1.023-5.452-3.721-5.975-6.987l-6.003-36.017C146.229,281.197,160.745,287.376,175.757,292.105z"/>
		<path style="fill:#F5EFCA;" d="M229.517,299.609v0.53l-23.217,27.63c-2.195,2.781-5.67,4.232-9.191,3.837
			c-3.521-0.395-6.588-2.58-8.111-5.779l-12.006-33.368C194.163,296.878,211.791,299.277,229.517,299.609z"/>
		<path style="fill:#F5EFCA;" d="M379.586,273.655l-6.003,36.017c-0.523,3.266-2.831,5.964-5.975,6.987
			c-3.145,1.023-6.598,0.2-8.943-2.132l-22.422-22.422C351.255,287.376,365.771,281.197,379.586,273.655z"/>
		<path style="fill:#F5EFCA;" d="M282.483,299.609v0.53l-18.891,31.514c-1.598,2.669-4.481,4.303-7.592,4.303
			s-5.994-1.634-7.592-4.303l-18.891-31.514v-0.53c7.945,0.353,16.684,0.53,26.483,0.53
			C265.799,300.138,274.538,299.962,282.483,299.609z"/>
		<path style="fill:#F5EFCA;" d="M335.007,292.458l-12.006,33.368c-1.523,3.199-4.591,5.384-8.111,5.779
			c-3.521,0.395-6.996-1.056-9.191-3.837l-23.217-27.63v-0.53C300.21,299.277,317.837,296.878,335.007,292.458z"/>
	</g>
	<path style="fill:#2C2F38;" d="M432.095,279.69c-3.084-8.312-9.463-14.981-17.629-18.431c-12.974-4.293-27.18-2.646-38.828,4.5
		c-35.086,17.543-51.103,25.552-119.638,25.552s-84.552-8.009-119.638-25.552c-11.648-7.146-25.854-8.793-38.828-4.5
		c-8.166,3.45-14.546,10.119-17.629,18.431c-1.007,2.993-0.337,6.296,1.755,8.661c2.092,2.365,5.289,3.432,8.382,2.797
		c3.093-0.635,5.612-2.874,6.604-5.871c1.492-3.436,4.221-6.186,7.647-7.703c8.26-2.089,17.017-0.648,24.172,3.978
		c35.354,17.677,54.828,27.414,127.535,27.414s92.181-9.737,127.535-27.414c7.105-4.561,15.763-6.027,23.974-4.061
		c3.563,1.488,6.395,4.323,7.879,7.888c1.592,4.584,6.587,7.022,11.181,5.458C431.163,289.272,433.631,284.293,432.095,279.69
		L432.095,279.69z"/>
</g>
<g>
</g>
<g>
</g>
<g>
</g>
<g>
</g>
<g>
</g>
<g>
</g>
<g>
</g>
<g>
</g>
<g>
</g>
<g>
</g>
<g>
</g>
<g>
</g>
<g>
</g>
<g>
</g>
<g>
</g>
</svg>
