<?xml version="1.0" encoding="iso-8859-1"?>
<!-- Generator: Adobe Illustrator 19.0.0, SVG Export Plug-In . SVG Version: 6.00 Build 0)  -->
<svg version="1.1" id="Capa_1" xmlns="http://www.w3.org/2000/svg" xmlns:xlink="http://www.w3.org/1999/xlink" x="0px" y="0px"
	 viewBox="0 0 510.305 510.305" style="enable-background:new 0 0 510.305 510.305;" xml:space="preserve">
<g>
	<g>
		<path style="fill:#FB7B76;" d="M139.491,275.225l-45.55,8.21c-8.508,1.512-16.866-3.338-19.774-11.476
			c-4.943-13.948-9.799-27.807-14.741-41.843c-4.943-14.036-9.976-28.248-14.919-42.461c-1.678-4.414-3.178-8.828-4.678-13.241
			c-3.32-7.811-6.121-15.832-8.387-24.011c-1.339-5.773-1.399-11.768-0.177-17.567c2.089-11.158,9.654-20.515,20.127-24.894
			c19.489-5.868,40.072,5.034,46.168,24.452c8.324,18.437,0.356,40.144-17.919,48.817l22.774,64.883l36.813-6.621
			c0.176,1.854,0.352,3.708,0.529,5.561C140.686,255.082,140.597,265.197,139.491,275.225z"/>
		<path style="fill:#FB7B76;" d="M478.863,150.403c-2.266,8.179-5.067,16.2-8.387,24.011c-1.5,4.414-3,8.828-4.678,13.241
			c-4.943,14.212-9.975,28.425-14.919,42.461c-4.944,14.036-9.799,27.895-14.741,41.843c-2.908,8.138-11.265,12.988-19.774,11.476
			l-45.55-8.21c-1.106-10.029-1.195-20.144-0.265-30.19c0.177-1.854,0.353-3.708,0.529-5.561l36.813,6.621l22.774-64.883
			c-18.275-8.673-26.243-30.38-17.92-48.817c6.096-19.419,26.679-30.32,46.168-24.452c10.473,4.379,18.038,13.736,20.127,24.894
			C480.262,138.635,480.202,144.631,478.863,150.403z"/>
		<path style="fill:#FB7B76;" d="M219.842,483.733c-0.297,4.444-2.563,8.523-6.179,11.123c-6.564,5.113-14.151,8.756-22.246,10.681
			c-2.207,0.618-4.59,1.236-6.974,1.677c-10.136,2.087-20.46,3.122-30.808,3.09h-0.265c-2.824,0-5.649-0.088-8.386-0.265
			c-1.588-0.088-3.266-0.177-4.767-0.265c-11.836-0.798-23.478-3.418-34.515-7.768c-11.3-4.767-18.274-11.211-18.274-18.273
			c0-29.308,0-60.734,25.335-95.338c2.472,28.072,25.247,53.583,48.111,68.061c17.947,11.136,37.784,18.885,58.526,22.863
			c0.177,1.589,0.265,2.737,0.353,3.443C219.807,483.083,219.837,483.408,219.842,483.733z"/>
		<path style="fill:#FB7B76;" d="M422.876,483.733c0,7.062-6.974,13.506-18.274,18.273c-11.037,4.35-22.679,6.97-34.515,7.768
			c-1.501,0.088-3.179,0.177-4.767,0.265c-2.737,0.177-5.561,0.265-8.386,0.265h-0.265c-10.348,0.033-20.672-1.003-30.808-3.09
			c-2.383-0.441-4.767-1.059-6.974-1.677c-8.095-1.926-15.681-5.568-22.246-10.681c-3.616-2.6-5.882-6.679-6.179-11.123
			c0.005-0.325,0.035-0.65,0.088-0.971c0.088-0.706,0.177-1.854,0.353-3.443c20.743-3.978,40.579-11.728,58.526-22.863
			c22.865-14.477,45.64-39.989,48.111-68.061C422.876,422.999,422.876,454.425,422.876,483.733z"/>
	</g>
	<path style="fill:#805333;" d="M405.751,374.889c-2.552-11.202-6.311-22.094-11.211-32.486
		c-9.654-21.316-16.052-43.961-18.979-67.178c-1.106-10.029-1.195-20.144-0.265-30.19c0.177-1.854,0.353-3.708,0.529-5.561
		c3.266-32.397,8.298-66.03,2.913-98.251c-2.302-20.159-11.95-38.763-27.101-52.259l0.619-0.706
		c8.828-18.097,52.966-18.097,52.966-18.097c-20.215-27.719-61.086-28.866-79.183-27.983c9.27-35.399,52.701-35.399,52.701-35.399
		C290.463-20.41,255.152,42.972,255.152,42.972S219.842-20.41,131.566,6.779c0,0,43.431,0,52.701,35.399
		c-18.097-0.883-58.968,0.265-79.183,27.983c0,0,44.138,0,52.966,18.097l0.619,0.706c-15.151,13.496-24.799,32.1-27.101,52.259
		c-5.385,32.221-0.353,65.854,2.914,98.251c0.176,1.854,0.352,3.708,0.529,5.561c0.93,10.047,0.841,20.162-0.265,30.19
		c-2.927,23.217-9.325,45.862-18.979,67.178c-4.9,10.392-8.659,21.284-11.211,32.486c-0.951,5.003-1.16,10.119-0.618,15.183
		c2.472,28.072,25.247,53.583,48.111,68.061c17.947,11.136,37.784,18.885,58.526,22.863c29.417,6.003,59.743,6.003,89.159,0
		c20.743-3.978,40.579-11.728,58.526-22.863c22.864-14.477,45.639-39.989,48.111-68.061
		C406.911,385.008,406.703,379.892,405.751,374.889z M290.463,282.464c0,9.751-7.904,17.655-17.655,17.655
		c-9.751,0-17.655-7.905-17.655-17.655c0,9.751-7.904,17.655-17.655,17.655s-17.655-7.905-17.655-17.655v-13.859
		c23.062,6.709,47.558,6.709,70.621,0V282.464z M168.642,415.496l9.004-17.479c4.464-8.625,15.059-12.022,23.706-7.601
		c8.647,4.421,12.098,14.998,7.72,23.668l-11.388,22.157C187.116,430.662,177.347,423.684,168.642,415.496z M312.796,436.064
		l-11.564-22.51c-2.93-5.619-2.626-12.376,0.795-17.71c3.422-5.333,9.438-8.426,15.766-8.105c6.329,0.321,12,4.007,14.864,9.66
		l9.181,17.92C333.134,423.508,323.365,430.486,312.796,436.064z"/>
	<g>
		<path style="fill:#2C2F38;" d="M339.897,245.388c-6.611,4.704-13.61,8.839-20.921,12.359c-9.126,4.543-18.676,8.18-28.513,10.858
			c-23.062,6.709-47.558,6.709-70.621,0c-9.837-2.678-19.387-6.315-28.513-10.858c-7.311-3.52-14.31-7.654-20.921-12.359
			c-2.523-1.892-3.845-4.987-3.468-8.118s2.396-5.823,5.297-7.062c2.9-1.239,6.241-0.836,8.764,1.056
			c10.672,7.343,22.281,13.222,34.516,17.479c12.707,4.638,26.11,7.085,39.636,7.239c13.555-0.154,26.986-2.601,39.724-7.239
			c12.202-4.269,23.781-10.147,34.428-17.479c3.9-2.925,9.433-2.135,12.359,1.766C344.588,236.93,343.797,242.463,339.897,245.388z"
			/>
		<path style="fill:#2C2F38;" d="M361.966,392.368c-5.901,8.323-12.645,16.014-20.126,22.952l-9.181-17.92
			c-2.886-5.614-8.547-9.262-14.852-9.57c-6.305-0.308-12.295,2.771-15.713,8.077c-3.419,5.306-3.747,12.033-0.862,17.647
			l11.564,22.51c-36.06,18.77-78.994,18.836-115.112,0.177l11.388-22.157c4.377-8.67,0.927-19.247-7.72-23.668
			c-8.647-4.421-19.242-1.024-23.706,7.601l-9.004,17.479c-7.539-6.997-14.342-14.747-20.303-23.128
			c-4.569-6.578-4.171-15.399,0.971-21.539c23.128-27.983,37.164-88.541,42.019-113.081c9.126,4.543,18.676,8.18,28.513,10.858
			v13.859c0,9.751,7.904,17.655,17.655,17.655s17.655-7.905,17.655-17.655c0,9.751,7.904,17.655,17.655,17.655
			c9.751,0,17.655-7.905,17.655-17.655v-13.859c9.837-2.678,19.387-6.315,28.513-10.858c4.855,24.541,18.891,85.098,42.019,113.081
			C366.137,376.968,366.535,385.79,361.966,392.368z"/>
	</g>
	<g>
		<path style="fill:#F5EFCA;" d="M209.072,414.083l-11.388,22.157c-10.569-5.578-20.338-12.556-29.043-20.745l9.004-17.479
			c4.464-8.625,15.059-12.022,23.706-7.601C209.999,394.837,213.45,405.414,209.072,414.083z"/>
		<path style="fill:#F5EFCA;" d="M341.84,415.319c-8.705,8.188-18.474,15.166-29.043,20.745l-11.565-22.51
			c-2.93-5.619-2.626-12.376,0.795-17.71c3.422-5.333,9.438-8.426,15.766-8.105c6.329,0.321,12,4.007,14.864,9.66L341.84,415.319z"
			/>
		<path style="fill:#F5EFCA;" d="M255.152,273.637v8.828c0,9.751-7.904,17.655-17.655,17.655s-17.655-7.905-17.655-17.655v-13.859
			C231.327,271.888,243.207,273.581,255.152,273.637z"/>
		<path style="fill:#F5EFCA;" d="M290.463,268.605v13.859c0,9.751-7.904,17.655-17.655,17.655c-9.751,0-17.655-7.905-17.655-17.655
			v-8.828C267.097,273.581,278.978,271.888,290.463,268.605z"/>
	</g>
	<path style="fill:#59474E;" d="M255.152,158.878c-0.006,6.069-1.237,12.074-3.619,17.655
		c-7.051-16.089-22.953-26.483-40.519-26.483s-33.469,10.393-40.519,26.483c-2.382-5.582-3.613-11.587-3.619-17.655
		c0-24.377,19.761-44.138,44.138-44.138S255.152,134.501,255.152,158.878z"/>
	<ellipse style="fill:#FFFFFF;" cx="211.014" cy="176.533" rx="40.519" ry="26.483"/>
	<path style="fill:#59474E;" d="M343.428,158.878c-0.006,6.069-1.237,12.074-3.618,17.655
		c-7.051-16.089-22.953-26.483-40.519-26.483c-17.566,0-33.469,10.393-40.519,26.483c-2.382-5.582-3.613-11.587-3.619-17.655
		c0-24.377,19.761-44.138,44.138-44.138C323.667,114.74,343.428,134.501,343.428,158.878z"/>
	<ellipse style="fill:#FFFFFF;" cx="299.29" cy="176.533" rx="40.519" ry="26.483"/>
	<g>
		<path style="fill:#2C2F38;" d="M211.014,203.016c-2.341,0.001-4.587-0.929-6.243-2.585c-1.656-1.656-2.585-3.901-2.585-6.243
			v-8.828c0-4.875,3.952-8.828,8.828-8.828s8.828,3.952,8.828,8.828v8.828c0.001,2.341-0.929,4.587-2.585,6.243
			C215.601,202.087,213.356,203.016,211.014,203.016z"/>
		<path style="fill:#2C2F38;" d="M299.29,203.016c-2.341,0.001-4.587-0.929-6.243-2.585c-1.656-1.656-2.585-3.901-2.585-6.243
			v-8.828c0-4.875,3.952-8.828,8.828-8.828s8.828,3.952,8.828,8.828v8.828c0.001,2.341-0.929,4.587-2.585,6.243
			C303.877,202.087,301.632,203.016,299.29,203.016z"/>
	</g>
</g>
<g>
</g>
<g>
</g>
<g>
</g>
<g>
</g>
<g>
</g>
<g>
</g>
<g>
</g>
<g>
</g>
<g>
</g>
<g>
</g>
<g>
</g>
<g>
</g>
<g>
</g>
<g>
</g>
<g>
</g>
</svg>
