<?xml version="1.0" encoding="iso-8859-1"?>
<!-- Generator: Adobe Illustrator 19.0.0, SVG Export Plug-In . SVG Version: 6.00 Build 0)  -->
<svg version="1.1" id="Capa_1" xmlns="http://www.w3.org/2000/svg" xmlns:xlink="http://www.w3.org/1999/xlink" x="0px" y="0px"
	 viewBox="0 0 511.184 511.184" style="enable-background:new 0 0 511.184 511.184;" xml:space="preserve">
<g>
	<path style="fill:#DF4D60;" d="M212.655,473.778c-0.287,4.296-2.478,8.239-5.973,10.752c-0.914,0.807-1.883,1.548-2.901,2.219
		c-2.132-13.169-14.022-22.491-27.319-21.42s-23.542,12.176-23.539,25.516c-0.004,2.878,0.486,5.736,1.451,8.448
		c-1.365,0-2.816,0.085-4.267,0.085c1.863-3.949,2.825-8.263,2.816-12.629c0.005-16.449-13.291-29.805-29.739-29.876
		c-16.449-0.071-29.858,13.172-29.994,29.62c-4.775-2.563-7.971-7.325-8.533-12.715c0.287-45.845,13.348-90.703,37.717-129.536
		c10.121,11.017,22.074,20.198,35.328,27.136c16.897,9.02,34.878,15.845,53.504,20.309c-1.365,27.079-0.909,54.219,1.365,81.237
		C212.619,473.207,212.648,473.492,212.655,473.778z"/>
	<g>
		<path style="fill:#FDD7AD;" d="M152.922,486.749c0.009,4.366-0.953,8.68-2.816,12.629h-1.707c-2.73,0-5.461-0.085-8.107-0.256
			c-1.536-0.085-3.157-0.171-4.608-0.256c-11.442-0.771-22.696-3.304-33.365-7.509c-3.21-1.288-6.271-2.919-9.131-4.864
			c0.136-16.448,13.546-29.69,29.994-29.62C139.631,456.944,152.926,470.3,152.922,486.749z"/>
		<path style="fill:#FDD7AD;" d="M150.106,499.378c0,0.085-0.085,0.085-0.085,0.171"/>
		<path style="fill:#FDD7AD;" d="M203.78,486.749c-5.737,3.643-12.016,6.35-18.603,8.021c-2.133,0.597-4.437,1.195-6.741,1.621
			c-7.926,1.636-15.976,2.607-24.064,2.901c-0.964-2.712-1.455-5.57-1.451-8.448c-0.003-13.34,10.242-24.446,23.539-25.516
			S201.648,473.58,203.78,486.749z"/>
	</g>
	<path style="fill:#DF4D60;" d="M425.988,473.778c-0.563,5.39-3.758,10.152-8.533,12.715c-0.024-16.495-13.414-29.848-29.909-29.824
		c-16.495,0.024-29.848,13.414-29.824,29.909c-0.022,4.432,0.971,8.81,2.901,12.8c-1.451,0-2.901-0.085-4.352-0.085
		c0.964-2.712,1.455-5.57,1.451-8.448c0.003-13.34-10.242-24.446-23.539-25.516s-25.187,8.252-27.319,21.42
		c-1.018-0.671-1.987-1.412-2.901-2.219c-3.496-2.513-5.686-6.456-5.973-10.752c0.007-0.286,0.036-0.571,0.085-0.853
		c2.273-27.018,2.729-54.158,1.365-81.237c18.627-4.464,36.607-11.289,53.504-20.309c13.268-6.88,25.226-16.036,35.328-27.051
		C412.628,383.135,425.689,427.962,425.988,473.778z"/>
	<g>
		<path style="fill:#FDD7AD;" d="M417.455,486.493c-2.86,1.945-5.921,3.576-9.131,4.864c-10.669,4.205-21.923,6.738-33.365,7.509
			c-1.451,0.085-3.072,0.171-4.608,0.256c-2.645,0.171-5.376,0.256-8.107,0.256h-1.621c-1.93-3.99-2.923-8.368-2.901-12.8
			c-0.024-16.495,13.329-29.886,29.824-29.909C404.04,456.645,417.431,469.998,417.455,486.493z"/>
		<path style="fill:#FDD7AD;" d="M357.722,490.845c0.004,2.878-0.486,5.736-1.451,8.448c-8.088-0.294-16.138-1.265-24.064-2.901
			c-2.304-0.427-4.608-1.024-6.741-1.621c-6.587-1.671-12.866-4.379-18.603-8.021c2.132-13.169,14.022-22.491,27.319-21.42
			S357.724,477.505,357.722,490.845z"/>
	</g>
	<path style="fill:#FF5364;" d="M482.394,296.029c-10.476,4.401-21.548,7.22-32.853,8.363c-12.288,1.536-24.491,4.182-36.523,6.656
		c-0.256,0.085-0.512,0.085-0.768,0.171v0.683c-5.437,14.459-13.574,27.751-23.979,39.168v0.085
		c-10.102,11.015-22.06,20.171-35.328,27.051c-16.897,9.02-34.877,15.845-53.504,20.309c-28.989,7.054-59.246,7.054-88.235,0
		c-18.627-4.464-36.607-11.289-53.504-20.309c-13.254-6.938-25.207-16.119-35.328-27.136
		c-10.463-11.453-18.632-24.808-24.064-39.339v-0.683h-0.171c-12.032-2.475-24.235-5.12-36.523-6.656
		c-11.305-1.143-22.377-3.962-32.853-8.363C1.54,283.314,6.404,260.872,15.791,240.648c7.253-15.36,49.749-37.547,80.043-52.053
		c8.277-48.725,19.797-104.533,48.555-138.667c15.275-18.091,51.968-29.013,79.019-34.901c21.036-4.522,42.793-4.522,63.829,0
		c27.051,5.888,63.744,16.811,79.019,34.901c28.672,34.048,40.192,89.685,48.469,138.325c30.293,14.592,73.387,36.864,80.64,52.395
		C504.751,260.872,509.615,283.314,482.394,296.029z"/>
	<path style="fill:#FFFFFF;" d="M315.14,224.613c11.025,13.58,17.023,30.551,16.981,48.043c0,42.415-34.385,76.8-76.8,76.8
		s-76.8-34.385-76.8-76.8c-0.042-17.492,5.956-34.462,16.981-48.043"/>
	<g>
		<circle style="fill:#3D324C;" cx="255.322" cy="289.723" r="25.6"/>
		<path style="fill:#3D324C;" d="M255.322,238.522c-8.887,0-17.779-0.329-26.433-0.979c-8.45-0.633-16.762-1.579-24.7-2.808
			c-7.834-1.217-15.4-2.725-22.487-4.479c-6.713-1.641-13.333-3.644-19.829-6c-2.863-1.051-4.947-3.549-5.468-6.554
			c-0.521-3.005,0.6-6.059,2.942-8.012c2.341-1.954,5.547-2.51,8.41-1.459c5.913,2.146,11.939,3.968,18.05,5.458
			c6.6,1.638,13.667,3.042,21,4.179c7.496,1.163,15.354,2.058,23.358,2.658c16.75,1.233,33.567,1.233,50.317,0
			c8.004-0.6,15.863-1.496,23.358-2.658c7.333-1.137,14.4-2.542,20.996-4.179c6.113-1.489,12.14-3.312,18.054-5.458
			c2.863-1.051,6.068-0.495,8.41,1.459c2.341,1.954,3.463,5.008,2.942,8.012c-0.521,3.005-2.606,5.503-5.468,6.554
			c-6.498,2.357-13.119,4.36-19.833,6c-7.083,1.754-14.65,3.262-22.483,4.479c-7.938,1.229-16.25,2.175-24.7,2.808
			C273.101,238.192,264.209,238.522,255.322,238.522z"/>
	</g>
	<g>
		<circle style="fill:#FB7B76;" cx="174.255" cy="135.176" r="29.867"/>
		<circle style="fill:#FB7B76;" cx="225.455" cy="66.909" r="21.333"/>
		<circle style="fill:#FB7B76;" cx="276.655" cy="160.776" r="29.867"/>
		<circle style="fill:#FB7B76;" cx="323.588" cy="88.242" r="25.6"/>
	</g>
	<g>
		<path style="fill:#FF5364;" d="M121.007,176.904c-5.632,2.56-14.677,6.741-25.173,11.691"/>
		<path style="fill:#FF5364;" d="M414.724,188.253c-10.24-4.779-19.029-8.789-24.576-11.349"/>
	</g>
	<g>
		<path style="fill:#802F34;" d="M123.626,325.201c-7.086-0.367-14.087-1.719-20.8-4.017c-2.387-0.7-4.592-1.354-6.45-1.75
			l-1.171-0.246c-11.346-2.404-23.083-4.887-34.637-6.304c-12.19-1.229-24.12-4.318-35.375-9.158
			c-13.619-5.064-23.298-17.276-25.117-31.692c-0.58-12.168,2.184-24.263,7.992-34.971c9.259-19.838,58.5-44.558,105.446-66.125
			l3.917-1.8c2.769-1.289,6.015-0.999,8.513,0.759s3.865,4.717,3.585,7.758c-0.28,3.041-2.163,5.701-4.939,6.975l-3.95,1.817
			c-59.221,27.204-91.892,46.662-97.104,57.833c-4.391,7.94-6.628,16.891-6.487,25.963c0.517,4.9,2.671,12.096,15.362,18.017
			c9.653,4.059,19.859,6.652,30.279,7.692c12.246,1.5,24.35,4.062,36.05,6.542l1.179,0.246c2.225,0.475,4.854,1.233,7.704,2.067
			c6.029,1.762,16.121,4.721,19.95,2.604c1.36-1.043,2.383-2.463,2.942-4.083c1.629-4.329,1.898-9.052,0.771-13.538
			c-4.013-17.008-21.058-27.213-37.2-34.95c-4.25-2.037-6.045-7.133-4.008-11.383c2.037-4.25,7.133-6.045,11.383-4.008
			c18.625,8.929,40.737,22.271,46.437,46.438c1.928,7.934,1.379,16.268-1.575,23.879c-1.983,5.223-5.649,9.636-10.421,12.542
			C132.124,324.305,127.898,325.302,123.626,325.201z"/>
		<path style="fill:#802F34;" d="M387.522,325.209c-4.238,0.103-8.432-0.884-12.179-2.867c-4.79-2.895-8.477-7.306-10.475-12.533
			c-2.962-7.621-3.519-15.966-1.596-23.912c5.704-24.179,27.821-37.525,46.446-46.45c2.749-1.317,5.993-1.068,8.509,0.654
			c2.516,1.722,3.921,4.656,3.688,7.696c-0.234,3.04-2.072,5.724-4.821,7.041c-16.146,7.733-33.188,17.937-37.208,34.963
			c-1.124,4.5-0.848,9.236,0.792,13.575c0.569,1.627,1.614,3.045,3,4.07c3.763,2.071,13.846-0.879,19.875-2.642
			c2.85-0.833,5.479-1.592,7.696-2.063l1.158-0.246c11.716-2.479,23.829-5.046,36.129-6.554c10.404-1.041,20.595-3.631,30.234-7.683
			c17.367-8.104,19.854-20.433,8.871-43.979c-5.212-11.167-37.875-30.621-97.079-57.821l-3.971-1.829
			c-4.231-2.003-6.058-7.042-4.094-11.291c1.964-4.25,6.984-6.124,11.252-4.2l3.938,1.812
			c46.937,21.563,96.167,46.279,105.421,66.113c14.916,31.971,9.158,54.4-17.121,66.662c-11.249,4.809-23.16,7.894-35.329,9.15
			c-11.608,1.425-23.354,3.912-34.713,6.317l-1.154,0.246c-1.85,0.392-4.054,1.046-6.446,1.746
			C401.623,323.486,394.615,324.84,387.522,325.209z"/>
	</g>
</g>
<g>
</g>
<g>
</g>
<g>
</g>
<g>
</g>
<g>
</g>
<g>
</g>
<g>
</g>
<g>
</g>
<g>
</g>
<g>
</g>
<g>
</g>
<g>
</g>
<g>
</g>
<g>
</g>
<g>
</g>
</svg>
