<?xml version="1.0" encoding="iso-8859-1"?>
<!-- Generator: Adobe Illustrator 19.0.0, SVG Export Plug-In . SVG Version: 6.00 Build 0)  -->
<svg version="1.1" id="Capa_1" xmlns="http://www.w3.org/2000/svg" xmlns:xlink="http://www.w3.org/1999/xlink" x="0px" y="0px"
	 viewBox="0 0 512.008 512.008" style="enable-background:new 0 0 512.008 512.008;" xml:space="preserve">
<g transform="translate(-1 -1)">
	<path style="fill:#24AE5F;" d="M513.007,474.303c0.037,7.133-4.108,13.626-10.593,16.596
		c-24.616,11.048-50.842,18.082-77.683,20.833c-17.56,1.857-35.277,1.649-52.789-0.618c-0.268,0.014-0.536-0.015-0.794-0.088
		c-18.243-2.33-36.125-6.926-53.23-13.683c-4.763-1.882-9.626-3.502-14.566-4.855c-13.956-3.959-28.396-5.95-42.902-5.914h-6.885
		c-14.477-0.029-28.887,1.962-42.814,5.914c-4.969,1.353-9.86,2.973-14.654,4.855c-17.088,6.715-34.936,11.31-53.142,13.683
		c-0.258,0.073-0.527,0.103-0.794,0.088c-17.512,2.267-35.229,2.475-52.789,0.618c-26.879-2.698-53.143-9.734-77.771-20.833
		c-9.126-4.216-13.124-15.018-8.942-24.159c4.182-9.141,14.968-13.18,24.125-9.033c0.794,0.353,1.677,0.706,2.472,1.059
		c46.433,19.332,72.21,0.353,86.51-26.483c10.411-22.345,16.32-46.522,17.39-71.15l-15.36-210.361
		c-2.831-39.226,11.004-77.828,38.107-106.326s64.963-44.251,104.282-43.39c38.643,1.407,75.023,18.577,100.674,47.513
		s38.333,67.114,35.094,105.646l-15.095,206.919c1.07,24.628,6.979,48.805,17.39,71.15c14.301,26.836,40.077,45.815,86.51,26.483
		c0.794-0.353,1.677-0.706,2.472-1.059c2.368-1.031,4.921-1.572,7.503-1.589C504.802,456.094,512.983,464.236,513.007,474.303z"/>
	<circle style="fill:#ECF0F1;" cx="257.007" cy="151.125" r="97.103"/>
	<path style="fill:#F0785A;" d="M283.905,442.435c-8.338-0.028-16.493-2.442-23.501-6.959c-2.159-0.971-4.63-0.971-6.788,0
		c-7.006,4.516-15.159,6.931-23.494,6.959c-18.025-0.302-34.208-11.116-41.384-27.653c-2.741-5.883-4.67-12.111-5.736-18.513
		l-13.316-77.794c-3.051-17.141,1.12-34.782,11.525-48.741c9.742-13.361,25.224-21.334,41.758-21.506h68.085
		c16.535,0.172,32.016,8.145,41.759,21.506c10.419,13.991,14.586,31.669,11.51,48.84l-13.324,77.819
		c-1.066,6.362-2.99,12.551-5.717,18.397C318.104,431.322,301.925,442.132,283.905,442.435z"/>
	<path style="fill:#F09372;" d="M281.215,433.608c-7.512-0.028-14.857-2.225-21.151-6.326c-1.941-0.883-4.169-0.883-6.11,0
		c-6.292,4.102-13.634,6.299-21.145,6.326c-16.283-0.313-30.865-10.156-37.246-25.139c-2.468-5.353-4.205-11.014-5.163-16.83
		l-11.985-70.722c-2.75-15.567,0.999-31.581,10.373-44.31c8.711-12.117,22.661-19.374,37.583-19.551h61.276
		c14.922,0.177,28.872,7.434,37.583,19.551c9.387,12.757,13.131,28.806,10.359,44.4l-11.991,70.744
		c-0.959,5.78-2.689,11.405-5.146,16.725C312.071,423.454,297.493,433.293,281.215,433.608z"/>
	<path style="fill:#2C2F38;" d="M309.591,312.97l-12.339,76.19c-0.488,3.102-1.375,6.129-2.638,9.004
		c-1.387,3.871-4.474,6.892-8.374,8.196c-3.9,1.304-8.183,0.746-11.619-1.513c-10.703-6.986-24.524-6.986-35.228,0
		c-3.436,2.259-7.719,2.817-11.619,1.513c-3.9-1.304-6.987-4.325-8.374-8.196c-1.263-2.875-2.15-5.902-2.638-9.004l-12.339-76.19
		c-1.583-6.754-0.173-13.862,3.868-19.501c4.041-5.638,10.319-9.258,17.223-9.93H288.5c6.904,0.672,13.182,4.292,17.223,9.93
		C309.763,299.108,311.173,306.216,309.591,312.97z"/>
	<path style="fill:#ECF0F1;" d="M233.748,283.539l15.907,62.191c0.239,3.887,3.461,6.916,7.355,6.916
		c3.894,0,7.116-3.029,7.355-6.916l15.908-62.191H233.748z"/>
	<g>
		<path style="fill:#84B5CB;" d="M142.16,511.114c-17.512,2.267-35.229,2.475-52.789,0.618
			c0.679-13.969,12.119-24.994,26.104-25.158S141.154,497.164,142.16,511.114z"/>
		<path style="fill:#84B5CB;" d="M210.751,492.488c-4.969,1.353-9.86,2.973-14.654,4.855c-17.088,6.715-34.936,11.31-53.142,13.683
			c-0.467-2.236-0.703-4.513-0.706-6.797c-0.031-17.193,12.347-31.899,29.292-34.803
			C188.486,466.521,205.055,476.266,210.751,492.488z"/>
		<path style="fill:#84B5CB;" d="M424.731,511.732c-17.56,1.857-35.277,1.649-52.789-0.618c1.006-13.95,12.7-24.704,26.685-24.54
			C412.613,486.738,424.052,497.763,424.731,511.732z"/>
		<path style="fill:#84B5CB;" d="M371.854,504.229c-0.003,2.284-0.239,4.562-0.706,6.797c-18.243-2.33-36.125-6.926-53.23-13.683
			c-4.763-1.882-9.626-3.502-14.566-4.855c5.696-16.222,22.264-25.967,39.21-23.063C359.508,472.33,371.885,487.036,371.854,504.229
			z"/>
	</g>
	<circle style="fill:#2C2F38;" cx="257.007" cy="151.125" r="44.138"/>
</g>
<g>
</g>
<g>
</g>
<g>
</g>
<g>
</g>
<g>
</g>
<g>
</g>
<g>
</g>
<g>
</g>
<g>
</g>
<g>
</g>
<g>
</g>
<g>
</g>
<g>
</g>
<g>
</g>
<g>
</g>
</svg>
