<?xml version="1.0" encoding="iso-8859-1"?>
<!-- Generator: Adobe Illustrator 19.0.0, SVG Export Plug-In . SVG Version: 6.00 Build 0)  -->
<svg version="1.1" id="Capa_1" xmlns="http://www.w3.org/2000/svg" xmlns:xlink="http://www.w3.org/1999/xlink" x="0px" y="0px"
	 viewBox="0 0 503.974 503.974" style="enable-background:new 0 0 503.974 503.974;" xml:space="preserve">
<g transform="translate(-1)">
	<g>
		<path style="fill:#7D6599;" d="M407.055,262.309l-1.736,0.521c-6.856-23.691-14.579-47.121-21.782-70.725
			c-7.637-25.253-11.368-51.807-18.744-77.147c45.82-29.245,32.542-79.49,19.352-108.822c-1.481-3.457-4.849-5.727-8.609-5.802
			c-3.76-0.075-7.216,2.059-8.833,5.455c-13.972,30.026-53.283,36.708-53.283,36.708l-0.26,0.521
			c-6.788-4.147-14.004-7.551-21.521-10.153h-3.213c-0.249-5.561,0.161-11.132,1.22-16.597c0.665-2.885-0.196-5.91-2.28-8.013
			c-2.085-2.103-5.102-2.99-7.993-2.351c-8.75,2.062-17.709,3.102-26.699,3.097c-8.989,0.005-17.949-1.035-26.699-3.097
			c-2.891-0.64-5.908,0.248-7.993,2.351c-2.085,2.103-2.945,5.128-2.28,8.013c1.059,5.465,1.469,11.036,1.22,16.597h-3.213
			c-7.515,2.572-14.73,5.947-21.521,10.066l-0.26-0.434c0,0-39.311-6.682-53.283-36.708c-1.617-3.396-5.073-5.53-8.833-5.455
			c-3.76,0.075-7.128,2.345-8.609,5.802c-13.191,29.332-26.468,79.577,19.352,108.822c-7.376,25.34-11.108,51.894-18.744,77.147
			c-7.203,23.517-14.926,46.948-21.782,70.552l-1.041-0.347c-25.86,0.868-70.378,7.984-88.168,45.993l-7.376,15.707
			c-6.07,13.037-0.441,28.527,12.583,34.625l7.81,3.732c13.036,6.086,28.538,0.452,34.625-12.583l7.376-15.707
			c5.561-11.012,13.47-20.669,23.17-28.29c-2.915,15.029-3.878,30.371-2.864,45.646c0.507,7.372,1.639,14.688,3.384,21.868
			c6.218,27.167,21.375,51.462,43.043,68.99l4.339,38.183c1.482,13.171,12.606,23.138,25.86,23.17h37.662
			c10.407-0.058,19.799-6.251,23.951-15.794l4.686-11.021c7.897,0.521,15.794,0.781,23.604,0.781c7.723,0,15.62-0.26,23.517-0.781
			l4.773,11.021c4.114,9.574,13.53,15.784,23.951,15.794h37.576c13.284,0.002,24.452-9.971,25.947-23.17l4.339-38.183v-0.087
			c21.681-17.48,36.843-41.752,43.043-68.903c1.746-7.18,2.878-14.496,3.384-21.868c1.028-15.452,0.036-30.972-2.951-46.167
			c10.014,7.693,18.17,17.54,23.864,28.811l55.018-25.774C477.347,270.292,432.829,263.176,407.055,262.309z"/>
		<path style="fill:#7D6599;" d="M502.514,324.042l-7.357-15.72l-55.02,25.747l7.357,15.72
			c6.094,13.023,21.592,18.639,34.614,12.546l7.86-3.679C502.991,352.562,508.608,337.065,502.514,324.042z"/>
	</g>
	<g>
		<path style="fill:#3D324C;" d="M229.07,476.828l-4.686,11.021c-4.152,9.542-13.545,15.736-23.951,15.794H162.77
			c-13.254-0.033-24.378-9.999-25.86-23.17l-4.339-38.183c3.558,2.951,7.377,5.814,11.455,8.591
			C169.571,466.919,198.923,475.874,229.07,476.828z"/>
		<path style="fill:#3D324C;" d="M372.777,442.29l-4.339,38.183c-1.495,13.2-12.663,23.172-25.947,23.17h-37.576
			c-10.421-0.01-19.837-6.219-23.951-15.794l-4.773-11.021c30.175-0.953,59.554-9.908,85.131-25.947
			C365.401,448.104,369.219,445.24,372.777,442.29z"/>
	</g>
	<g>
		<path style="fill:#F5EFCA;" d="M192.189,42.93c-13.958,8.319-25.83,19.717-34.712,33.323c-4.178,6.304-7.697,13.022-10.5,20.046
			c-2.43,6.075-4.513,12.323-6.422,18.658c-45.82-29.245-32.542-79.49-19.352-108.822c1.481-3.457,4.849-5.727,8.609-5.802
			c3.76-0.075,7.216,2.059,8.833,5.455c13.972,30.026,53.283,36.708,53.283,36.708L192.189,42.93z"/>
		<path style="fill:#F5EFCA;" d="M364.793,114.957c-1.909-6.335-3.992-12.583-6.422-18.658c-2.803-7.025-6.322-13.742-10.5-20.046
			c-8.932-13.542-20.795-24.901-34.712-33.237l0.26-0.521c0,0,39.311-6.682,53.283-36.708c1.617-3.396,5.073-5.53,8.833-5.455
			c3.76,0.075,7.128,2.345,8.609,5.802C397.336,35.466,410.613,85.712,364.793,114.957z"/>
	</g>
	<path style="fill:#24AE5F;" d="M292.568,58.886c-4.132-13.813-5.13-28.373-2.923-42.62c0.665-2.885-0.195-5.91-2.28-8.013
		s-5.102-2.99-7.993-2.351c-8.75,2.062-17.709,3.102-26.699,3.097c-8.989,0.005-17.949-1.035-26.699-3.097
		c-2.891-0.64-5.908,0.248-7.993,2.351c-2.084,2.103-2.945,5.128-2.28,8.013c2.207,14.247,1.209,28.808-2.923,42.62
		c-0.677,2.607-0.106,5.38,1.547,7.507c1.653,2.126,4.2,3.365,6.893,3.351h62.909c2.693,0.013,5.24-1.225,6.893-3.351
		S293.246,61.493,292.568,58.886z"/>
	<path style="fill:#FFFFFF;" d="M313.507,191.07c11.212,13.81,17.312,31.068,17.269,48.857c0,43.134-34.967,78.102-78.102,78.102
		s-78.102-34.967-78.102-78.102c-0.043-17.789,6.057-35.047,17.269-48.857"/>
	<g>
		<circle style="fill:#2C3E50;" cx="252.674" cy="257.284" r="26.034"/>
		<path style="fill:#2C3E50;" d="M252.674,205.215c-9.042,0-18.085-0.335-26.89-0.996c-8.593-0.644-17.043-1.606-25.11-2.856
			c-7.958-1.233-15.653-2.767-22.864-4.555c-6.829-1.668-13.562-3.705-20.17-6.102c-4.5-1.652-6.809-6.64-5.157-11.14
			c1.652-4.5,6.64-6.809,11.14-5.157c6.014,2.18,12.142,4.033,18.356,5.551c6.72,1.665,13.907,3.093,21.356,4.25
			c7.619,1.182,15.61,2.089,23.754,2.703c17.033,1.254,34.136,1.254,51.169,0c8.144-0.614,16.136-1.521,23.754-2.703
			c7.449-1.157,14.636-2.585,21.356-4.25c6.214-1.518,12.342-3.37,18.356-5.551c4.5-1.652,9.488,0.657,11.14,5.157
			c1.652,4.5-0.657,9.488-5.157,11.14c-6.608,2.397-13.341,4.434-20.17,6.102c-7.211,1.788-14.907,3.322-22.864,4.555
			c-8.068,1.25-16.517,2.212-25.11,2.856C270.759,204.88,261.717,205.215,252.674,205.215z"/>
	</g>
	<path style="fill:#24AE5F;" d="M252.674,121.62c7.028-0.467,13.446-4.154,17.391-9.99c1.995-2.443,5.163-3.604,8.265-3.029
		c3.101,0.575,5.643,2.795,6.629,5.791l0.067,0.2c0.734,2.217,2.331,4.045,4.428,5.072c2.098,1.027,4.52,1.167,6.722,0.387
		c4.198-1.621,7.985-4.15,11.093-7.405c1.749-1.834,4.21-2.817,6.741-2.694c2.532,0.123,4.885,1.34,6.448,3.336
		c6.199,6.15,9.139,14.859,7.938,23.507c-2.153,7.068-7.654,12.62-14.703,14.837c-18.694,7.067-41.442,4.379-61.019,4.444
		c-19.577-0.065-42.325,2.623-61.019-4.444c-7.049-2.217-12.55-7.768-14.703-14.837c-1.202-8.648,1.739-17.358,7.938-23.507
		c1.563-1.995,3.916-3.213,6.448-3.336c2.532-0.123,4.992,0.86,6.741,2.694c3.107,3.255,6.895,5.783,11.093,7.405
		c2.202,0.78,4.624,0.64,6.722-0.387c2.098-1.027,3.694-2.855,4.428-5.072l0.067-0.2c0.987-2.996,3.528-5.216,6.629-5.791
		s6.27,0.586,8.265,3.029C239.228,117.466,245.646,121.152,252.674,121.62z"/>
	<g>
		<path style="fill:#3D324C;" d="M100.029,262.656c-3.211,10.934-6.161,21.955-8.852,33.063c-0.781,3.384-1.562,6.682-2.169,10.066
			c-9.7,7.621-17.61,17.279-23.17,28.29l-55.018-25.774c17.79-38.009,62.308-45.125,88.168-45.993L100.029,262.656z"/>
		<path style="fill:#3D324C;" d="M495.137,308.302l-55.018,25.774c-5.694-11.271-13.85-21.118-23.864-28.811
			c-0.607-3.211-1.302-6.335-2.083-9.546c-2.69-11.021-5.641-21.955-8.852-32.889l1.736-0.521
			C432.829,263.176,477.347,270.292,495.137,308.302z"/>
	</g>
	<g>
		<path style="fill:#FFFFFF;" d="M173.791,374.254l-22.042,22.042c-2.305,2.293-5.7,3.102-8.792,2.096
			c-3.092-1.006-5.36-3.658-5.874-6.869l-5.901-35.406C144.763,363.531,159.034,369.605,173.791,374.254z"/>
		<path style="fill:#FFFFFF;" d="M226.64,381.631v0.521l-22.823,27.162c-2.158,2.734-5.574,4.16-9.035,3.772
			c-3.461-0.388-6.476-2.537-7.974-5.681l-11.802-32.803C191.885,378.946,209.214,381.305,226.64,381.631z"/>
		<path style="fill:#FFFFFF;" d="M364.707,360.803l-5.12,30.72c-0.514,3.21-2.783,5.862-5.874,6.869
			c-3.092,1.006-6.486,0.197-8.792-2.096l-20.22-20.22C338.593,372.584,352.022,367.457,364.707,360.803z"/>
		<path style="fill:#FFFFFF;" d="M275.063,388.139l-14.926,24.993c-1.571,2.624-4.405,4.23-7.463,4.23s-5.892-1.606-7.463-4.23
			l-18.571-30.98v-0.521c7.81,0.347,16.401,0.521,26.034,0.521c6.161,0,11.976-0.087,17.356-0.26v0.26L275.063,388.139z"/>
		<path style="fill:#FFFFFF;" d="M320.883,376.944l-11.021,30.46c-1.498,3.144-4.513,5.292-7.974,5.681
			c-3.461,0.388-6.877-1.038-9.035-3.772l-17.79-21.174l-5.033-5.988v-0.26C287.097,381.805,304.12,380.149,320.883,376.944z"/>
	</g>
	<path style="fill:#2C3E50;" d="M419.204,351.431c-0.507,7.372-1.639,14.688-3.384,21.868c-2.987-0.613-5.428-2.758-6.422-5.641
		c-1.5-3.512-4.298-6.31-7.81-7.81c-8.056-1.93-16.55-0.488-23.517,3.992c-34.799,17.443-53.89,26.988-125.397,26.988
		s-90.598-9.546-125.397-26.988c-7.054-4.509-15.652-5.921-23.778-3.905c-3.362,1.512-6.029,4.24-7.463,7.637
		c-1.02,2.915-3.487,5.086-6.508,5.727c-1.746-7.18-2.878-14.496-3.384-21.868c2.983-3.261,6.661-5.812,10.761-7.463
		c12.756-4.244,26.736-2.623,38.183,4.426c34.452,17.182,50.245,25.079,117.586,25.079s83.135-7.897,117.586-25.079
		c11.446-7.052,25.427-8.673,38.183-4.426C412.532,345.642,416.204,348.189,419.204,351.431z"/>
</g>
<g>
</g>
<g>
</g>
<g>
</g>
<g>
</g>
<g>
</g>
<g>
</g>
<g>
</g>
<g>
</g>
<g>
</g>
<g>
</g>
<g>
</g>
<g>
</g>
<g>
</g>
<g>
</g>
<g>
</g>
</svg>
