<?xml version="1.0" encoding="iso-8859-1"?>
<!-- Generator: Adobe Illustrator 19.0.0, SVG Export Plug-In . SVG Version: 6.00 Build 0)  -->
<svg version="1.1" id="Capa_1" xmlns="http://www.w3.org/2000/svg" xmlns:xlink="http://www.w3.org/1999/xlink" x="0px" y="0px"
	 viewBox="0 0 512.077 512.077" style="enable-background:new 0 0 512.077 512.077;" xml:space="preserve">
<g transform="translate(0 -1)">
	<path style="fill:#AF8066;" d="M494.281,336.525c-18.361-9.181-32.486-48.199-39.459-71.15v-0.088
		c3.44-25.766,4.897-51.758,4.357-77.747l0.261,0.418c98.163-58.439,35.487-144.154-2.119-183.437
		c-3.023-3.164-7.593-4.315-11.754-2.959c-4.161,1.356-7.176,4.977-7.755,9.315c-0.265,24.276-9.004,56.32-52.083,59.057
		l0.282,0.453c-24.137-14.241-50.6-24.107-78.169-29.142c3.904-10.354,8.781-20.315,14.565-29.749
		c-28.16-6.356-54.113,10.77-67.531,21.981c-0.64-10.809-0.286-21.653,1.059-32.397c-21.869,5.661-40.41,20.142-51.2,39.989
		c-27.685,4.981-54.269,14.825-78.521,29.076l0.132-0.21c-43.079-2.737-51.818-34.781-52.083-59.057
		c-0.579-4.338-3.594-7.959-7.755-9.315c-4.161-1.356-8.731-0.205-11.754,2.959C17.15,43.802-45.526,129.518,52.637,187.957
		l0.047-0.075c-0.515,25.875,0.945,51.752,4.367,77.405v0.088c-6.974,22.952-21.098,61.97-39.459,71.15
		c8.195,7.104,18.56,11.213,29.396,11.652c4.414,21.274,6.797,45.727-0.794,58.35c17.966,2.469,35.897-4.75,47.139-18.979
		c10.133,19.789,23.533,37.725,39.636,53.054l-0.265,0.265l5.473,48.64c1.508,13.398,12.823,23.536,26.306,23.57h38.312
		c10.586-0.059,20.14-6.359,24.364-16.066l4.943-11.652c15.817,1.648,31.763,1.648,47.581,0l5.032,11.652
		c4.185,9.74,13.763,16.056,24.364,16.066h38.223c13.513,0.002,24.873-10.143,26.395-23.57l5.473-48.64l-0.265-0.265
		c16.103-15.329,29.503-33.265,39.636-53.054c11.243,14.229,29.174,21.448,47.139,18.979c-7.592-12.623-5.208-37.076-0.794-58.35
		C475.721,347.738,486.086,343.629,494.281,336.525z M208.885,346.324c11.034-9.799,27.983-9.799,47.051-9.799
		s36.017,0,47.051,9.799l-20.568,34.339l-26.483-44.138l-26.483,44.138L208.885,346.324z"/>
	<g>
		<path style="fill:#F9EAB0;" d="M126.347,69.932c-43.079-2.737-51.818-34.781-52.083-59.057c-0.579-4.338-3.594-7.959-7.755-9.315
			s-8.731-0.205-11.754,2.959C17.15,43.802-45.526,129.518,52.637,187.957"/>
		<path style="fill:#F9EAB0;" d="M459.44,187.957c98.163-58.439,35.487-144.154-2.119-183.437
			c-3.023-3.164-7.593-4.314-11.754-2.959s-7.176,4.977-7.755,9.315c-0.265,24.276-9.004,56.32-52.083,59.057"/>
	</g>
	<g>
		<path style="fill:#FFFFFF;" d="M220.626,257.077c0,24.377-25.69,44.138-57.379,44.138s-57.379-19.761-57.379-44.138
			c0-44.138,25.69-44.138,57.379-44.138S220.626,257.077,220.626,257.077z"/>
		<path style="fill:#FFFFFF;" d="M291.246,257.077c0,24.377,25.69,44.138,57.379,44.138s57.379-19.761,57.379-44.138
			c0-44.138-25.69-44.138-57.379-44.138S291.246,257.077,291.246,257.077z"/>
	</g>
	<path style="fill:#2C2F38;" d="M316.14,388.696c0,23.04-26.924,44.844-60.204,44.844s-60.204-21.804-60.204-44.844
		c0-22.246,4.943-35.046,13.153-42.372l20.568,34.339l26.483-44.138l26.483,44.138l20.568-34.339
		C311.197,353.651,316.14,366.451,316.14,388.696z"/>
	<g>
		<path style="fill:#59474E;" d="M238.281,221.766c-4.875,0-8.828-3.952-8.828-8.828s3.952-8.828,8.828-8.828
			c4.873-0.005,8.823-3.954,8.828-8.828v-52.966c0-4.875,3.952-8.828,8.828-8.828s8.828,3.952,8.828,8.828v52.966
			C264.748,209.903,252.9,221.75,238.281,221.766z"/>
		<path style="fill:#59474E;" d="M273.591,221.766c-14.619-0.016-26.467-11.863-26.483-26.483v-52.966
			c0-4.875,3.952-8.828,8.828-8.828s8.828,3.952,8.828,8.828v52.966c0.005,4.873,3.954,8.823,8.828,8.828
			c4.875,0,8.828,3.952,8.828,8.828S278.467,221.766,273.591,221.766z"/>
	</g>
	<g>
		<circle style="fill:#464F5D;" cx="163.246" cy="279.146" r="22.069"/>
		<circle style="fill:#464F5D;" cx="348.626" cy="279.146" r="22.069"/>
	</g>
	<g>
		<path style="fill:#59474E;" d="M202.97,204.111c-2.342,0.003-4.588-0.928-6.241-2.586c-40.535-40.535-72.957-41.547-73.285-41.551
			c-4.875-0.021-8.81-3.991-8.789-8.866c0.021-4.875,3.991-8.81,8.866-8.789c1.595,0,39.5,0.53,85.689,46.724
			c2.524,2.525,3.279,6.321,1.913,9.619C209.758,201.96,206.54,204.11,202.97,204.111z"/>
		<path style="fill:#59474E;" d="M308.902,204.111c-3.57-0.001-6.788-2.152-8.154-5.45s-0.611-7.094,1.913-9.619
			c46.189-46.194,84.095-46.724,85.689-46.724c4.875,0,8.828,3.952,8.828,8.828s-3.952,8.828-8.828,8.828
			c-0.25,0.004-32.672,1.017-73.207,41.551C313.489,203.183,311.243,204.114,308.902,204.111z"/>
		<path style="fill:#59474E;" d="M282.419,151.146h-52.966c-4.875,0-8.828-3.952-8.828-8.828s3.952-8.828,8.828-8.828h52.966
			c4.875,0,8.828,3.952,8.828,8.828S287.294,151.146,282.419,151.146z"/>
		<path style="fill:#59474E;" d="M308.902,115.835H202.97c-4.875,0-8.828-3.952-8.828-8.828s3.952-8.828,8.828-8.828h105.931
			c4.875,0,8.828,3.952,8.828,8.828S313.777,115.835,308.902,115.835z"/>
		<path style="fill:#59474E;" d="M232.102,485.358l-4.943,11.652c-4.224,9.707-13.778,16.007-24.364,16.066h-38.312
			c-13.483-0.033-24.798-10.171-26.306-23.57l-5.473-48.64l0.265-0.265C160.021,466.271,194.956,482.043,232.102,485.358z"/>
		<path style="fill:#59474E;" d="M379.169,440.867l-5.473,48.64c-1.521,13.427-12.882,23.572-26.395,23.57h-38.223
			c-10.601-0.01-20.179-6.327-24.364-16.066l-5.032-11.652c37.176-3.296,72.145-19.07,99.222-44.756L379.169,440.867z"/>
	</g>
</g>
<g>
</g>
<g>
</g>
<g>
</g>
<g>
</g>
<g>
</g>
<g>
</g>
<g>
</g>
<g>
</g>
<g>
</g>
<g>
</g>
<g>
</g>
<g>
</g>
<g>
</g>
<g>
</g>
<g>
</g>
</svg>
