<?xml version="1.0" encoding="iso-8859-1"?>
<!-- Generator: Adobe Illustrator 19.0.0, SVG Export Plug-In . SVG Version: 6.00 Build 0)  -->
<svg version="1.1" id="Capa_1" xmlns="http://www.w3.org/2000/svg" xmlns:xlink="http://www.w3.org/1999/xlink" x="0px" y="0px"
	 viewBox="0 0 504.056 504.056" style="enable-background:new 0 0 504.056 504.056;" xml:space="preserve">
<g>
	<g>
		<path style="fill:#CBB292;" d="M206.124,449.236c0.53,14.742,1.324,24.452,1.677,27.454c0.051,0.292,0.081,0.587,0.088,0.883
			c-0.297,4.444-2.563,8.523-6.179,11.123c-6.572,5.082-14.158,8.694-22.246,10.593c-2.207,0.618-4.59,1.236-6.974,1.677
			c-10.136,2.087-20.46,3.122-30.808,3.09h-0.265c-2.825,0-5.65-0.088-8.386-0.265c-1.589-0.088-3.266-0.177-4.767-0.265
			c-11.836-0.798-23.479-3.418-34.516-7.768c-11.299-4.679-18.273-11.123-18.273-18.185c-0.017-24.24,3.614-48.344,10.77-71.503"/>
		<path style="fill:#CBB292;" d="M417.81,406.069c7.156,23.159,10.787,47.264,10.77,71.503c-0.582,5.576-3.888,10.502-8.828,13.153
			c-2.958,2.012-6.125,3.699-9.445,5.032c-11.037,4.35-22.679,6.97-34.516,7.768c-1.501,0.088-3.178,0.177-4.767,0.265
			c-2.737,0.177-5.561,0.265-8.386,0.265h-1.677c-1.501,0-3.001-0.088-4.502-0.088c-8.367-0.305-16.694-1.309-24.894-3.001
			c-2.383-0.441-4.767-1.059-6.974-1.677c-6.814-1.729-13.31-4.53-19.244-8.298c-1.053-0.694-2.056-1.461-3.001-2.295
			c-3.616-2.6-5.882-6.679-6.179-11.123c0.007-0.296,0.037-0.591,0.088-0.883c0.353-3.001,1.148-12.8,1.677-27.454"/>
	</g>
	<g>
		<path style="fill:#FDD7AD;" d="M154.924,91.101c-46.874-21.539-78.83-8.474-97.986,7.503c-5.147,4.415-7.232,11.435-5.329,17.944
			s7.442,11.3,14.157,12.246c32.132,7.503,36.546,30.102,36.546,30.102"/>
		<path style="fill:#FDD7AD;" d="M401.744,158.897c0,0,4.414-22.599,36.546-30.102c6.715-0.946,12.254-5.738,14.157-12.246
			s-0.182-13.529-5.329-17.944c-19.156-15.978-51.112-29.043-97.986-7.503"/>
	</g>
	<path style="fill:#805333;" d="M289.317,41.892C297.712,25.967,309.018,11.758,322.649,0c-29.165,1.022-56.679,13.79-76.291,35.401
		C136.818,41.335,48.993,215.929,48.993,320.883c0,106.814,90.924,138.152,203.034,138.152s203.034-31.338,203.034-138.152
		C455.062,226.205,383.622,74.998,289.317,41.892z"/>
	<path style="fill:#FDD7AD;" d="M419.752,320.883c0,28.072,0,102.841-167.724,102.841S84.304,348.954,84.304,320.883
		c0-53.407,26.13-126.676,64.441-180.171c0.794,7.327,6.886,55.967,31.603,71.945c0,0-4.943-55.614,40.077-84.921
		c0,0-10.152,42.99,12.006,71.857c2.619-24.824,21.463-44.859,46.08-48.993c0,0,44.138,8.298,35.31,61.263
		c0,0,42.549-28.337,45.021-66.119C395.211,198.709,419.752,269.153,419.752,320.883z"/>
	<g>
		<path style="fill:#FFFFFF;" d="M225.457,285.396c-0.84-26.588-22.933-47.542-49.528-46.976
			c-26.595,0.566-47.776,22.441-47.484,49.041c0.292,26.6,21.947,48.005,48.549,47.987c2.335,0.003,4.666-0.174,6.974-0.53"/>
		<path style="fill:#FFFFFF;" d="M320.089,334.919c2.308,0.355,4.639,0.532,6.974,0.53c26.628,0.036,48.316-21.382,48.614-48.008
			s-20.905-48.524-47.526-49.085s-48.728,20.425-49.551,47.04"/>
	</g>
	<g>
		<path style="fill:#464F5D;" d="M172.58,291.31c-0.593-0.016-1.183-0.075-1.767-0.177c-0.553-0.098-1.089-0.277-1.59-0.53
			c-0.562-0.195-1.095-0.463-1.586-0.797c-0.444-0.349-0.884-0.703-1.323-1.056c-3.414-3.481-3.414-9.054,0-12.534
			c0.44-0.353,0.879-0.707,1.323-1.06c0.491-0.334,1.025-0.603,1.586-0.797c0.501-0.254,1.037-0.432,1.59-0.526
			c2.906-0.549,5.898,0.338,8.035,2.383c2.546,2.525,3.312,6.34,1.937,9.653C179.408,289.18,176.166,291.331,172.58,291.31z"/>
		<path style="fill:#464F5D;" d="M331.476,291.31c-1.155-0.014-2.296-0.254-3.358-0.707c-1.089-0.407-2.081-1.038-2.909-1.854
			c-1.612-1.692-2.527-3.93-2.56-6.267c0.012-1.154,0.251-2.295,0.703-3.358c0.427-1.08,1.058-2.068,1.857-2.91
			c0.827-0.818,1.819-1.451,2.909-1.858c2.151-0.879,4.561-0.879,6.711,0c1.091,0.407,2.084,1.04,2.914,1.858
			c0.797,0.843,1.426,1.831,1.854,2.909c0.453,1.062,0.693,2.203,0.706,3.358c-0.018,2.34-0.935,4.584-2.56,6.268
			c-0.831,0.815-1.824,1.446-2.914,1.854C333.769,291.057,332.63,291.296,331.476,291.31z"/>
	</g>
	<path style="fill:#FF5364;" d="M322.649,322.207c0,21.939-31.618,66.207-70.621,66.207s-70.621-44.268-70.621-66.207
		c0-21.939,31.618-39.724,70.621-39.724S322.649,300.268,322.649,322.207z"/>
</g>
<g>
</g>
<g>
</g>
<g>
</g>
<g>
</g>
<g>
</g>
<g>
</g>
<g>
</g>
<g>
</g>
<g>
</g>
<g>
</g>
<g>
</g>
<g>
</g>
<g>
</g>
<g>
</g>
<g>
</g>
</svg>
