<?xml version="1.0" encoding="iso-8859-1"?>
<!-- Generator: Adobe Illustrator 19.0.0, SVG Export Plug-In . SVG Version: 6.00 Build 0)  -->
<svg version="1.1" id="Layer_1" xmlns="http://www.w3.org/2000/svg" xmlns:xlink="http://www.w3.org/1999/xlink" x="0px" y="0px"
	 viewBox="0 0 511.697 511.697" style="enable-background:new 0 0 511.697 511.697;" xml:space="preserve">
<g transform="translate(0 1)">
	<g>
		<path style="fill:#FFE100;" d="M505.189,119.472L505.189,119.472c-7.81-7.81-13.885-9.546-21.695-1.736l-45.125,45.993
			c-6.075,6.075-14.753,6.075-20.827,0.868l-63.349-59.01c-4.339-4.339-10.414-6.942-16.488-6.942h-94.59l-79.837,75.498
			c-7.81,7.81-9.546,21.695-1.736,30.373c8.678,9.546,22.563,8.678,31.241,0l59.01-62.481h43.39L147.656,306.916H62.612
			c-13.885,0-26.902,10.414-27.769,24.298c-0.868,15.62,11.281,27.77,26.034,27.77H165.88c10.414,0,19.959-4.339,27.77-12.149
			l57.275-61.614l61.614,65.085L296.05,456.177c-2.603,12.149,2.603,25.166,13.885,30.373c15.62,6.942,32.108-1.736,36.447-17.356
			l25.166-135.376c0.868-6.075-0.868-11.281-5.207-15.62l-71.159-72.027l69.424-69.424l45.993,45.993
			c7.81,7.81,21.695,7.81,29.505,0l19.959-19.959l45.125-52.068C513.867,142.035,513.867,128.15,505.189,119.472"/>
		<path style="fill:#FFE100;" d="M462.667,118.605l-0.868-0.868c-7.81-7.81-1.736-7.81-10.414,0l-34.712,45.993
			c-6.075,6.075-14.753,6.075-20.827,0.868l-73.763-59.01c-4.339-4.339-4.339-6.942-10.414-6.942h-68.556l-79.837,75.498
			c-7.81,7.81-9.546,21.695-1.736,30.373c8.678,9.546,4.339,8.678,12.149,0l60.746-62.481h34.712L121.623,306.916h-59.01
			c-13.885,0-26.902,10.414-27.769,24.298c-0.868,15.62,11.281,27.77,26.034,27.77h95.458l69.424-72.895l60.746,64.217
			l-16.488,105.871c-2.603,12.149,2.603,25.166,13.885,30.373c15.62,6.942,16.488-1.736,19.959-17.356l20.827-144.922
			l-55.539-78.102l63.349-69.424l40.786,45.993c7.81,7.81,18.224-3.471,26.034-11.281l8.678-8.678l54.671-54.671
			C470.477,140.299,470.477,126.415,462.667,118.605"/>
	</g>
	<g>
		<path style="fill:#FFA800;" d="M323.819,324.272l-20.827,144.922c-2.603,11.281-3.471,19.092-10.414,19.959
			c12.149,0.868,23.431-7.81,26.034-19.959l27.77-144.922l-77.234-77.234L323.819,324.272z"/>
		<path style="fill:#FFA800;" d="M487.833,118.605l-0.868-0.868c-7.81-7.81-19.092-7.81-27.77-1.736
			c0.868,0.868,0.868,0.868,1.736,1.736l0.868,0.868c7.81,7.81,7.81,20.827,0,29.505l-54.671,54.671l-8.678,8.678
			c-4.339,4.339-8.678,9.546-13.885,12.149c7.81,6.942,20.827,6.942,28.637-0.868l19.959-19.959l54.671-54.671
			C495.643,140.299,495.643,127.282,487.833,118.605"/>
	</g>
	<g>
		<path style="fill:#FFFFFF;" d="M163.277,207.12c-0.868-0.868-1.736-1.736-2.603-2.603c-7.81-8.678-6.942-21.695,1.736-30.373
			l80.705-75.498H217.08l-79.837,75.498c-7.81,7.81-9.546,21.695-1.736,30.373S155.467,213.194,163.277,207.12"/>
		<path style="fill:#FFFFFF;" d="M34.843,331.215c0.868-13.885,13.017-24.298,26.902-24.298H35.711
			c-13.885,0-26.902,10.414-27.769,24.298c0,15.62,12.149,27.77,26.902,27.77h26.034C46.124,358.984,33.975,346.835,34.843,331.215"
			/>
	</g>
	<path style="fill:#FFE100;" d="M425.351,63.933c0-24.298-19.092-43.39-43.39-43.39c-0.868,0-26.034,19.092-26.034,43.39
		c0,0.868,1.736,43.39,26.034,43.39C406.26,107.323,425.351,88.232,425.351,63.933"/>
	<g>
		<path style="fill:#FFA800;" d="M399.318,20.543c-2.603,0-6.075,0-8.678,0.868c19.959,4.339,34.712,21.695,34.712,42.522
			s-14.753,38.183-34.712,42.522c2.603,0.868,6.075,0.868,8.678,0.868c24.298,0,43.39-19.092,43.39-43.39
			S423.616,20.543,399.318,20.543"/>
		<path style="fill:#FFA800;" d="M356.795,71.743c0,0.868,0,0.868,0,1.736C356.795,72.611,356.795,71.743,356.795,71.743"/>
	</g>
	<path d="M295.182,497.832c-5.207,0-9.546-0.868-14.753-3.471c-14.753-6.942-23.431-23.431-19.092-40.786l15.62-100.664
		l-52.068-54.671l-62.481,66.82c-1.736,1.736-3.471,2.603-6.075,2.603H34.843c-9.546,0-18.224-4.339-25.166-10.414
		c-6.942-6.942-10.414-16.488-9.546-26.034c0.868-18.224,16.488-32.976,36.447-32.976h81.573l32.108-35.58
		c3.471-3.471,8.678-3.471,12.149-0.868c3.471,3.471,3.471,8.678,0.868,12.149l-34.712,39.051c-2.603,1.736-4.339,2.603-6.942,2.603
		H36.579c-10.414,0-19.092,6.942-19.092,16.488c0,5.207,1.736,9.546,4.339,13.017c3.471,3.471,7.81,5.207,13.017,5.207h118.02
		l65.953-70.292c1.736-1.736,4.339-2.603,6.075-2.603c2.603,0,4.339,0.868,6.075,2.603l61.614,64.217
		c1.736,1.736,2.603,4.339,2.603,6.942l-16.488,105.871c-1.736,9.546,1.736,18.224,9.546,21.695c5.207,2.603,10.414,1.736,14.753,0
		c4.339-2.603,7.81-6.942,9.546-11.281l26.034-139.715l-74.63-74.631c-2.603-2.603-3.471-4.339-3.471-6.942
		c0-2.603,0.868-4.339,2.603-6.075l69.424-69.424c3.471-3.471,8.678-3.471,12.149,0l45.993,45.993
		c4.339,4.339,12.149,4.339,17.356,0l74.63-74.631c4.339-4.339,4.339-12.149,0-16.488l-0.868-0.868
		c-5.207-5.207-13.017-5.207-17.356,0l-45.125,45.993c-8.678,8.678-23.431,9.546-32.976,0.868l-63.349-59.01
		c-2.603-2.603-6.942-4.339-10.414-4.339h-91.986l-77.234,73.763c-5.207,5.207-5.207,13.017-0.868,18.224
		c2.603,2.603,6.075,4.339,9.546,4.339l0,0c3.471,0,6.942-1.736,8.678-4.339l59.01-62.481c1.736-1.736,4.339-2.603,6.075-2.603
		h43.39c3.471,0,6.942,1.736,7.81,5.207s0.868,6.942-1.736,9.546l-69.424,78.102c-3.471,3.471-8.678,4.339-12.149,0.868
		c-3.471-3.471-3.471-8.678-0.868-12.149l56.407-63.349h-19.959l-56.407,59.878c-5.207,6.075-13.017,9.546-21.695,9.546l0,0
		c-8.678,0-16.488-3.471-21.695-9.546c-10.414-11.281-9.546-30.373,1.736-42.522l79.837-76.366c1.736-3.471,3.471-4.339,6.075-4.339
		h94.59c8.678,0,16.488,3.471,22.563,8.678l63.349,59.01c2.603,2.603,6.075,2.603,8.678,0l45.125-45.993
		c11.281-11.281,30.373-11.281,42.522,0l0.868,0.868c11.281,11.281,11.281,30.373,0,41.654l-74.63,74.631
		c-11.281,11.281-30.373,11.281-41.654,0l-39.919-39.919l-57.275,57.275l72.027,72.027c1.736,1.736,2.603,5.207,2.603,7.81
		L329.026,470.93c-2.603,10.414-9.546,19.092-18.224,23.431C305.595,496.964,300.389,497.832,295.182,497.832z"/>
	<path d="M187.575,241.832c0-5.207-3.471-8.678-8.678-8.678s-8.678,3.471-8.678,8.678s3.471,8.678,8.678,8.678
		S187.575,247.038,187.575,241.832"/>
	<path d="M399.318,116.001c-28.637,0-52.068-23.431-52.068-52.068s23.431-52.068,52.068-52.068
		c28.637,0,52.068,23.431,52.068,52.068S427.955,116.001,399.318,116.001z M399.318,29.221c-19.092,0-34.712,15.62-34.712,34.712
		s15.62,34.712,34.712,34.712c19.092,0,34.712-15.62,34.712-34.712S418.409,29.221,399.318,29.221z"/>
</g>
<g>
</g>
<g>
</g>
<g>
</g>
<g>
</g>
<g>
</g>
<g>
</g>
<g>
</g>
<g>
</g>
<g>
</g>
<g>
</g>
<g>
</g>
<g>
</g>
<g>
</g>
<g>
</g>
<g>
</g>
</svg>
