<?xml version="1.0" encoding="iso-8859-1"?>
<!-- Generator: Adobe Illustrator 19.0.0, SVG Export Plug-In . SVG Version: 6.00 Build 0)  -->
<svg xmlns="http://www.w3.org/2000/svg" xmlns:xlink="http://www.w3.org/1999/xlink" version="1.1" id="Layer_1" x="0px" y="0px" viewBox="0 0 512 512" style="enable-background:new 0 0 512 512;" xml:space="preserve">
<g transform="translate(1 1)">
	<path style="fill:#FFE100;" d="M502.467,255c0,136.533-110.933,247.467-247.467,247.467S7.533,391.533,7.533,255   S118.467,7.533,255,7.533S502.467,118.467,502.467,255"/>
	<path style="fill:#FFA800;" d="M255,7.533c-4.267,0-8.533,0-12.8,0C372.76,14.36,476.867,122.733,476.867,255   S372.76,495.64,242.2,502.467c4.267,0,8.533,0,12.8,0c136.533,0,247.467-110.933,247.467-247.467S391.533,7.533,255,7.533"/>
	<path style="fill:#FFFFFF;" d="M255,7.533c4.267,0,8.533,0,12.8,0C137.24,14.36,33.133,122.733,33.133,255   S137.24,495.64,267.8,502.467c-4.267,0-8.533,0-12.8,0C118.467,502.467,7.533,391.533,7.533,255S118.467,7.533,255,7.533"/>
	<path d="M255,511C114.2,511-1,395.8-1,255S114.2-1,255-1s256,115.2,256,256S395.8,511,255,511z M255,16.067   C123.587,16.067,16.067,123.587,16.067,255S123.587,493.933,255,493.933S493.933,386.413,493.933,255S386.413,16.067,255,16.067z"/>
	<path d="M135.533,220.867c-2.56,0-4.267-0.853-5.973-2.56c-3.413-3.413-3.413-8.533,0-11.947l51.2-51.2   c3.413-3.413,8.533-3.413,11.947,0s3.413,8.533,0,11.947l-51.2,51.2C139.8,220.013,138.093,220.867,135.533,220.867z"/>
	<path d="M186.733,220.867c-2.56,0-4.267-0.853-5.973-2.56l-51.2-51.2c-3.413-3.413-3.413-8.533,0-11.947   c3.413-3.414,8.533-3.413,11.947,0l51.2,51.2c3.413,3.413,3.413,8.533,0,11.947C191,220.013,189.293,220.867,186.733,220.867z"/>
	<path d="M323.267,220.867c-2.56,0-4.267-0.853-5.973-2.56c-3.413-3.413-3.413-8.533,0-11.947l51.2-51.2   c3.413-3.413,8.533-3.413,11.947,0c3.413,3.413,3.413,8.533,0,11.947l-51.2,51.2C327.533,220.013,325.827,220.867,323.267,220.867z   "/>
	<path d="M374.467,220.867c-2.56,0-4.267-0.853-5.973-2.56l-51.2-51.2c-3.413-3.413-3.413-8.533,0-11.947   c3.413-3.413,8.533-3.413,11.947,0l51.2,51.2c3.413,3.413,3.413,8.533,0,11.947C378.733,220.013,377.027,220.867,374.467,220.867z"/>
	<path d="M340.333,331.8H169.667c-5.12,0-8.533-3.413-8.533-8.533s3.413-8.533,8.533-8.533h170.667c5.12,0,8.533,3.413,8.533,8.533   S345.453,331.8,340.333,331.8z"/>
	<path d="M196.973,133.827c-2.56,0-4.267-0.853-5.973-2.56c-16.213-16.213-43.52-16.213-60.587,0c-3.413,3.413-8.533,3.413-11.947,0   c-3.413-3.413-3.413-8.533,0-11.947c23.04-23.04,61.44-23.04,84.48,0c3.413,3.413,3.413,8.533,0,11.947   C202.093,132.973,199.533,133.827,196.973,133.827z"/>
	<path d="M384.707,133.827c-2.56,0-4.267-0.853-5.973-2.56c-7.68-8.533-18.773-12.8-29.867-12.8c-11.093,0-22.187,4.267-29.867,12.8   c-3.413,3.413-8.533,3.413-11.947,0c-3.413-3.413-3.413-8.533,0-11.947c11.093-11.093,26.453-17.92,42.667-17.92   s30.72,5.973,41.813,17.92c3.413,3.413,3.413,8.533,0,11.947C389.827,132.973,387.267,133.827,384.707,133.827z"/>
</g>
<g>
</g>
<g>
</g>
<g>
</g>
<g>
</g>
<g>
</g>
<g>
</g>
<g>
</g>
<g>
</g>
<g>
</g>
<g>
</g>
<g>
</g>
<g>
</g>
<g>
</g>
<g>
</g>
<g>
</g>
</svg>
