<?xml version="1.0" encoding="iso-8859-1"?>
<!-- Generator: Adobe Illustrator 19.0.0, SVG Export Plug-In . SVG Version: 6.00 Build 0)  -->
<svg xmlns="http://www.w3.org/2000/svg" xmlns:xlink="http://www.w3.org/1999/xlink" version="1.1" id="Layer_1" x="0px" y="0px" viewBox="0 0 512 512" style="enable-background:new 0 0 512 512;" xml:space="preserve">
<g transform="translate(1 1)">
	<path style="fill:#FFE100;" d="M502.467,255c0,136.533-110.933,247.467-247.467,247.467S7.533,391.533,7.533,255   S118.467,7.533,255,7.533S502.467,118.467,502.467,255"/>
	<path style="fill:#FFA800;" d="M255,7.533c-4.267,0-8.533,0-12.8,0C372.76,14.36,476.867,122.733,476.867,255   S372.76,495.64,242.2,502.467c4.267,0,8.533,0,12.8,0c136.533,0,247.467-110.933,247.467-247.467S391.533,7.533,255,7.533"/>
	<path style="fill:#FFFFFF;" d="M255,7.533c4.267,0,8.533,0,12.8,0C137.24,14.36,33.133,122.733,33.133,255   S137.24,495.64,267.8,502.467c-4.267,0-8.533,0-12.8,0C118.467,502.467,7.533,391.533,7.533,255S118.467,7.533,255,7.533"/>
	<path style="fill:#E4667F;" d="M297.667,400.067L297.667,400.067c-14.507,0-25.6-11.093-25.6-25.6V331.8h51.2v42.667   C323.267,388.973,312.173,400.067,297.667,400.067"/>
	<path d="M255,511C114.2,511-1,395.8-1,255S114.2-1,255-1s256,115.2,256,256S395.8,511,255,511z M255,16.067   C123.587,16.067,16.067,123.587,16.067,255S123.587,493.933,255,493.933S493.933,386.413,493.933,255S386.413,16.067,255,16.067z"/>
	<path d="M135.533,220.867c-2.56,0-4.267-0.853-5.973-2.56c-3.413-3.413-3.413-8.533,0-11.947l51.2-51.2   c3.413-3.413,8.533-3.413,11.947,0s3.413,8.533,0,11.947l-51.2,51.2C139.8,220.013,138.093,220.867,135.533,220.867z"/>
	<path d="M186.733,220.867c-2.56,0-4.267-0.853-5.973-2.56l-51.2-51.2c-3.413-3.413-3.413-8.533,0-11.947   c3.413-3.414,8.533-3.413,11.947,0l51.2,51.2c3.413,3.413,3.413,8.533,0,11.947C191,220.013,189.293,220.867,186.733,220.867z"/>
	<path d="M323.267,220.867c-2.56,0-4.267-0.853-5.973-2.56c-3.413-3.413-3.413-8.533,0-11.947l51.2-51.2   c3.413-3.413,8.533-3.413,11.947,0c3.413,3.413,3.413,8.533,0,11.947l-51.2,51.2C327.533,220.013,325.827,220.867,323.267,220.867z   "/>
	<path d="M374.467,220.867c-2.56,0-4.267-0.853-5.973-2.56l-51.2-51.2c-3.413-3.413-3.413-8.533,0-11.947   c3.413-3.413,8.533-3.413,11.947,0l51.2,51.2c3.413,3.413,3.413,8.533,0,11.947C378.733,220.013,377.027,220.867,374.467,220.867z"/>
	<path d="M340.333,340.333H169.667c-5.12,0-8.533-3.413-8.533-8.533s3.413-8.533,8.533-8.533h170.667   c5.12,0,8.533,3.413,8.533,8.533S345.453,340.333,340.333,340.333z"/>
	<path d="M297.667,408.6c-18.773,0-34.133-15.36-34.133-34.133V331.8c0-5.12,3.413-8.533,8.533-8.533h51.2   c5.12,0,8.533,3.413,8.533,8.533v42.667C331.8,393.24,316.44,408.6,297.667,408.6z M280.6,340.333v34.133   c0,9.387,7.68,17.067,17.067,17.067s17.067-7.68,17.067-17.067v-34.133H280.6z"/>
</g>
<g>
</g>
<g>
</g>
<g>
</g>
<g>
</g>
<g>
</g>
<g>
</g>
<g>
</g>
<g>
</g>
<g>
</g>
<g>
</g>
<g>
</g>
<g>
</g>
<g>
</g>
<g>
</g>
<g>
</g>
</svg>
