<?xml version="1.0" encoding="iso-8859-1"?>
<!-- Generator: Adobe Illustrator 19.0.0, SVG Export Plug-In . SVG Version: 6.00 Build 0)  -->
<svg xmlns="http://www.w3.org/2000/svg" xmlns:xlink="http://www.w3.org/1999/xlink" version="1.1" id="Layer_1" x="0px" y="0px" viewBox="0 0 512 512" style="enable-background:new 0 0 512 512;" xml:space="preserve">
<g transform="translate(1 1)">
	<path style="fill:#FFE100;" d="M502.467,255c0,136.533-110.933,247.467-247.467,247.467S7.533,391.533,7.533,255   S118.467,7.533,255,7.533S502.467,118.467,502.467,255"/>
	<path style="fill:#FFA800;" d="M255,7.533c-4.267,0-8.533,0-12.8,0C372.76,14.36,476.867,122.733,476.867,255   S372.76,495.64,242.2,502.467c4.267,0,8.533,0,12.8,0c136.533,0,247.467-110.933,247.467-247.467S391.533,7.533,255,7.533"/>
	<path style="fill:#FFFFFF;" d="M255,7.533c4.267,0,8.533,0,12.8,0C137.24,14.36,33.133,122.733,33.133,255   S137.24,495.64,267.8,502.467c-4.267,0-8.533,0-12.8,0C118.467,502.467,7.533,391.533,7.533,255S118.467,7.533,255,7.533"/>
	<g>
		<path style="fill:#63D3FD;" d="M109.933,272.067c0,14.507-11.093,25.6-25.6,25.6s-25.6-11.093-25.6-25.6s11.093-25.6,25.6-25.6    S109.933,257.56,109.933,272.067"/>
		<path style="fill:#63D3FD;" d="M451.267,272.067c0,14.507-11.093,25.6-25.6,25.6s-25.6-11.093-25.6-25.6s11.093-25.6,25.6-25.6    S451.267,257.56,451.267,272.067"/>
	</g>
	<path d="M255,511C114.2,511-1,395.8-1,255S114.2-1,255-1s256,115.2,256,256S395.8,511,255,511z M255,16.067   C123.587,16.067,16.067,123.587,16.067,255S123.587,493.933,255,493.933S493.933,386.413,493.933,255S386.413,16.067,255,16.067z"/>
	<path d="M314.733,212.333c-0.853,0-1.707,0-2.56-0.853c-3.413-0.853-5.12-4.267-5.973-7.68   c-1.707-31.573,23.893-58.027,58.88-60.587c4.267,0,8.533,3.413,9.387,7.68c0,5.12-3.413,8.533-7.68,9.387   c-16.213,0.853-32.427,9.387-39.253,23.893c23.04-9.387,52.053-3.413,69.973,12.8c3.413,3.413,4.267,8.533,0.853,11.947   c-3.413,3.413-8.533,4.267-11.947,0.853c-17.067-15.36-48.64-18.773-64.853-0.853C319.853,211.48,317.293,212.333,314.733,212.333z   "/>
	<path d="M195.267,212.333c-2.56,0-5.12-0.853-6.827-2.56c-16.213-17.92-46.933-14.507-64.853,0.853   c-3.413,3.413-8.533,2.56-11.947-0.853s-2.56-8.533,0.853-11.947c17.92-16.213,46.933-22.187,69.973-12.8   c-1.707-3.413-4.267-6.827-7.68-10.24c-7.68-7.68-19.627-12.8-31.573-13.653c-5.12,0-8.533-4.267-7.68-9.387   c0.853-5.12,4.267-8.533,9.387-7.68c16.213,0.853,30.72,7.68,41.813,17.92c11.947,11.093,17.92,26.453,17.067,41.813   c0,3.413-2.56,6.827-5.973,7.68C196.973,212.333,196.12,212.333,195.267,212.333z"/>
	<path d="M176.493,128.707c-2.56,0-4.267-0.853-5.973-2.56c-10.24-10.24-26.453-10.24-35.84,0c-3.413,3.413-8.533,3.413-11.947,0   s-3.413-8.533,0-11.947c16.213-17.067,43.52-17.067,60.587,0c3.413,3.413,3.413,8.533,0,11.947   C181.613,127.853,179.053,128.707,176.493,128.707z"/>
	<path d="M381.293,128.707c-2.56,0-4.267-0.853-5.973-2.56c-9.387-9.387-26.453-9.387-35.84,0c-3.413,3.413-8.533,3.413-11.947,0   c-3.413-3.413-3.413-8.533,0-11.947c7.68-7.68,18.773-12.8,29.867-12.8s22.187,4.267,29.867,12.8c3.413,3.413,3.413,8.533,0,11.947   C386.413,127.853,383.853,128.707,381.293,128.707z"/>
	<path d="M255,383c-52.907,0-104.96-27.307-134.827-71.68c-2.56-4.267-1.707-9.387,2.56-11.947s9.387-1.707,11.947,2.56   c26.453,39.253,72.533,64,120.32,64s93.867-24.747,121.173-64.853c2.56-4.267,7.68-5.12,11.947-2.56s5.12,7.68,2.56,11.947   C359.96,355.693,307.907,383,255,383z"/>
	<path d="M84.333,306.2c-18.773,0-34.133-15.36-34.133-34.133s15.36-34.133,34.133-34.133s34.133,15.36,34.133,34.133   S103.107,306.2,84.333,306.2z M84.333,255c-9.387,0-17.067,7.68-17.067,17.067s7.68,17.067,17.067,17.067   s17.067-7.68,17.067-17.067S93.72,255,84.333,255z"/>
	<path d="M425.667,306.2c-18.773,0-34.133-15.36-34.133-34.133s15.36-34.133,34.133-34.133s34.133,15.36,34.133,34.133   S444.44,306.2,425.667,306.2z M425.667,255c-9.387,0-17.067,7.68-17.067,17.067s7.68,17.067,17.067,17.067   s17.067-7.68,17.067-17.067S435.053,255,425.667,255z"/>
</g>
<g>
</g>
<g>
</g>
<g>
</g>
<g>
</g>
<g>
</g>
<g>
</g>
<g>
</g>
<g>
</g>
<g>
</g>
<g>
</g>
<g>
</g>
<g>
</g>
<g>
</g>
<g>
</g>
<g>
</g>
</svg>
