<?xml version="1.0" encoding="iso-8859-1"?>
<!-- Generator: Adobe Illustrator 19.0.0, SVG Export Plug-In . SVG Version: 6.00 Build 0)  -->
<svg xmlns="http://www.w3.org/2000/svg" xmlns:xlink="http://www.w3.org/1999/xlink" version="1.1" id="Layer_1" x="0px" y="0px" viewBox="0 0 512 512" style="enable-background:new 0 0 512 512;" xml:space="preserve">
<g transform="translate(1 1)">
	<path style="fill:#FFE100;" d="M502.467,255c0,136.533-110.933,247.467-247.467,247.467S7.533,391.533,7.533,255   S118.467,7.533,255,7.533S502.467,118.467,502.467,255"/>
	<path style="fill:#63D3FD;" d="M195.267,178.2c0,18.773-15.36,34.133-34.133,34.133S127,196.973,127,178.2   s15.36-34.133,34.133-34.133S195.267,159.427,195.267,178.2"/>
	<path style="fill:#3DB9F9;" d="M161.133,144.067c-4.267,0-8.533,0.853-12.8,2.56c12.8,5.12,21.333,17.067,21.333,31.573   c0,14.507-8.533,26.453-21.333,31.573c4.267,1.707,8.533,2.56,12.8,2.56c18.773,0,34.133-15.36,34.133-34.133   S179.907,144.067,161.133,144.067"/>
	<path style="fill:#63D3FD;" d="M138.947,306.2c-9.387,0-14.507,10.24-9.387,17.92c27.307,40.96,72.533,67.413,125.44,67.413   s98.133-26.453,126.293-67.413c5.12-7.68,0-17.92-9.387-17.92H138.947z"/>
	<path style="fill:#3DB9F9;" d="M371.907,306.2h-25.6c9.387,0,14.507,10.24,9.387,17.92c-25.6,37.547-65.707,63.147-113.493,66.56   c4.267,0,8.533,0.853,12.8,0.853c52.907,0,98.133-26.453,126.293-67.413C386.413,316.44,380.44,306.2,371.907,306.2"/>
	<path style="fill:#E4667F;" d="M297.667,408.6v-59.733c0-5.12-3.413-8.533-8.533-8.533h-68.267c-5.12,0-8.533,3.413-8.533,8.533   V408.6c0,23.893,18.773,42.667,42.667,42.667S297.667,432.493,297.667,408.6"/>
	<path style="fill:#DD3859;" d="M289.133,340.333h-25.6c5.12,0,8.533,3.413,8.533,8.533V408.6c0,18.773-12.8,34.987-29.867,40.107   c4.267,1.707,8.533,2.56,12.8,2.56c23.893,0,42.667-18.773,42.667-42.667v-59.733C297.667,343.747,294.253,340.333,289.133,340.333   "/>
	<path style="fill:#FFA800;" d="M255,7.533c-4.267,0-8.533,0-12.8,0C372.76,14.36,476.867,122.733,476.867,255   S372.76,495.64,242.2,502.467c4.267,0,8.533,0,12.8,0c136.533,0,247.467-110.933,247.467-247.467S391.533,7.533,255,7.533"/>
	<path style="fill:#FFFFFF;" d="M255,7.533c4.267,0,8.533,0,12.8,0C137.24,14.36,33.133,122.733,33.133,255   S137.24,495.64,267.8,502.467c-4.267,0-8.533,0-12.8,0C118.467,502.467,7.533,391.533,7.533,255S118.467,7.533,255,7.533"/>
	<path d="M255,459.8c-28.16,0-51.2-23.04-51.2-51.2v-59.733c0-9.387,7.68-17.067,17.067-17.067h68.267   c9.387,0,17.067,7.68,17.067,17.067V408.6C306.2,436.76,283.16,459.8,255,459.8z M220.867,348.867V408.6   c0,18.773,15.36,34.133,34.133,34.133s34.133-15.36,34.133-34.133v-59.733H220.867z"/>
	<path d="M255,511C114.2,511-1,395.8-1,255S114.2-1,255-1s256,115.2,256,256S395.8,511,255,511z M255,16.067   C123.587,16.067,16.067,123.587,16.067,255S123.587,493.933,255,493.933S493.933,386.413,493.933,255S386.413,16.067,255,16.067z"/>
	<path d="M161.133,220.867c-23.893,0-42.667-18.773-42.667-42.667s18.773-42.667,42.667-42.667S203.8,154.307,203.8,178.2   S184.173,220.867,161.133,220.867z M161.133,152.6c-14.507,0-25.6,11.093-25.6,25.6s11.093,25.6,25.6,25.6s25.6-11.093,25.6-25.6   C186.733,163.693,174.787,152.6,161.133,152.6z"/>
	<path d="M383,220.867c-1.707,0-2.56,0-4.267-0.853L319,185.88c-2.56-1.707-4.267-4.267-4.267-7.68s1.707-5.973,4.267-7.68   l59.733-34.133c4.267-2.56,9.387-0.853,11.947,3.413c2.56,4.267,0.853,9.387-3.413,11.947L340.333,178.2l46.933,26.453   c4.267,2.56,5.12,7.68,3.413,11.947C388.973,219.16,385.56,220.867,383,220.867z"/>
	<path d="M212.333,394.093c-0.853,0-1.707,0-2.56,0c-35.84-10.24-66.56-33.28-87.893-64.853c-4.267-5.973-4.267-14.507-0.853-20.48   c3.413-6.827,10.24-10.24,17.92-10.24h232.96c7.68,0,14.507,4.267,17.92,10.24c3.413,6.827,3.413,14.507-0.853,20.48   C367.64,360.813,336.92,383,301.08,394.093c-2.56,0.853-5.12,0-7.68-1.707s-3.413-4.267-3.413-6.827v-36.693H221.72v36.693   c0,2.56-0.853,5.12-3.413,6.827C215.747,393.24,214.04,394.093,212.333,394.093z M138.947,314.733c-1.707,0-2.56,0.853-2.56,1.707   c0,0.853-0.853,1.707,0,3.413c17.067,24.747,40.107,43.52,67.413,53.76v-24.747c0-9.387,7.68-17.067,17.067-17.067h68.267   c9.387,0,17.067,7.68,17.067,17.067v24.747c27.307-10.24,51.2-29.013,67.413-53.76c0.853-1.707,0.853-2.56,0-3.413   c0-0.853-0.853-1.707-2.56-1.707H138.947z"/>
</g>
<g>
</g>
<g>
</g>
<g>
</g>
<g>
</g>
<g>
</g>
<g>
</g>
<g>
</g>
<g>
</g>
<g>
</g>
<g>
</g>
<g>
</g>
<g>
</g>
<g>
</g>
<g>
</g>
<g>
</g>
</svg>
