<?xml version="1.0" encoding="iso-8859-1"?>
<!-- Generator: Adobe Illustrator 19.0.0, SVG Export Plug-In . SVG Version: 6.00 Build 0)  -->
<svg xmlns="http://www.w3.org/2000/svg" xmlns:xlink="http://www.w3.org/1999/xlink" version="1.1" id="Layer_1" x="0px" y="0px" viewBox="0 0 512 512" style="enable-background:new 0 0 512 512;" xml:space="preserve">
<g transform="translate(1 1)">
	<path style="fill:#FFE100;" d="M502.467,255c0,136.533-110.933,247.467-247.467,247.467S7.533,391.533,7.533,255   S118.467,7.533,255,7.533S502.467,118.467,502.467,255"/>
	<path style="fill:#FFA800;" d="M255,7.533c-4.267,0-8.533,0-12.8,0C372.76,14.36,476.867,122.733,476.867,255   S372.76,495.64,242.2,502.467c4.267,0,8.533,0,12.8,0c136.533,0,247.467-110.933,247.467-247.467S391.533,7.533,255,7.533"/>
	<path style="fill:#FFFFFF;" d="M255,7.533c4.267,0,8.533,0,12.8,0C137.24,14.36,33.133,122.733,33.133,255   S137.24,495.64,267.8,502.467c-4.267,0-8.533,0-12.8,0C118.467,502.467,7.533,391.533,7.533,255S118.467,7.533,255,7.533"/>
	<path style="fill:#E4667F;" d="M314.733,391.533V408.6c0,33.28-26.453,59.733-59.733,59.733s-59.733-26.453-59.733-59.733v-17.067   v-32.427c0-14.507,11.947-27.307,26.453-27.307c12.8,0.853,23.893,9.387,33.28,17.067c8.533-7.68,20.48-16.213,33.28-17.067   c14.507-0.853,26.453,12.8,26.453,27.307V391.533"/>
	<path style="fill:#63D3FD;" d="M381.293,356.547c-21.333-49.493-69.973-84.48-126.293-84.48s-104.107,33.28-125.44,81.92   c-10.24,22.187,10.24,46.08,34.133,40.107c11.093-2.56,21.333-5.12,31.573-5.973v-29.013c0-14.507,11.947-27.307,26.453-27.307   c12.8,0.853,23.893,9.387,33.28,17.067c8.533-7.68,20.48-16.213,33.28-17.067c14.507-0.853,26.453,12.8,26.453,27.307v29.013   c11.947,1.707,23.04,4.267,32.427,6.827C370.2,400.067,389.827,377.88,381.293,356.547"/>
	<path style="fill:#3DB9F9;" d="M380.44,356.547c-20.48-49.493-69.12-84.48-125.44-84.48c-4.267,0-8.533,0-12.8,0.853   c51.2,5.12,94.72,37.547,113.493,83.627c5.973,15.36-1.707,30.72-15.36,36.693c2.56,0.853,5.12,0.853,6.827,1.707   C370.2,400.067,389.827,377.88,380.44,356.547"/>
	<path d="M255,511C114.2,511-1,395.8-1,255S114.2-1,255-1s256,115.2,256,256S395.8,511,255,511z M255,16.067   C123.587,16.067,16.067,123.587,16.067,255S123.587,493.933,255,493.933S493.933,386.413,493.933,255S386.413,16.067,255,16.067z"/>
	<path d="M158.573,229.4c-14.507,0-27.307-4.267-37.547-13.653c-3.413-3.413-4.267-8.533-0.853-11.947   c3.413-3.413,8.533-4.267,11.947-0.853c11.947,11.093,32.427,11.947,48.64,4.267c-29.013-6.827-61.44-27.307-63.147-54.613   c0-5.12,3.413-8.533,7.68-9.387c4.267,0,8.533,3.413,9.387,7.68c1.707,21.333,41.813,42.667,67.413,40.96   c3.413,0,6.827,1.707,8.533,5.12c1.707,3.413,0.853,6.827-0.853,9.387c-10.24,11.947-26.453,19.627-42.667,22.187   C164.547,229.4,161.987,229.4,158.573,229.4z"/>
	<path d="M350.573,229.4c-18.773,0-38.4-7.68-51.2-22.187c-2.56-2.56-2.56-5.973-0.853-9.387c1.707-3.413,4.267-5.12,8.533-5.12   c26.453,1.707,66.56-19.627,67.413-40.96c0-5.12,4.267-8.533,9.387-7.68c5.12,0,8.533,4.267,7.68,9.387   c-1.707,26.453-33.28,47.787-63.147,54.613c16.213,7.68,36.693,6.827,48.64-4.267c3.413-3.413,8.533-2.56,11.947,0.853   c3.413,3.413,2.56,8.533-0.853,11.947C378.733,225.133,365.08,229.4,350.573,229.4z"/>
	<path d="M169.667,152.6c-5.12,0-8.533-3.413-8.533-8.533c0-5.12,3.413-8.533,8.533-8.533c18.773,0,34.133-15.36,34.133-34.133   c0-5.12,3.413-8.533,8.533-8.533c5.12,0,8.533,3.413,8.533,8.533C220.867,129.56,197.827,152.6,169.667,152.6z"/>
	<path d="M340.333,152.6c-28.16,0-51.2-23.04-51.2-51.2c0-5.12,3.413-8.533,8.533-8.533s8.533,3.413,8.533,8.533   c0,18.773,15.36,34.133,34.133,34.133c5.12,0,8.533,3.413,8.533,8.533C348.867,149.187,345.453,152.6,340.333,152.6z"/>
	<path d="M255,476.867c-37.547,0-68.267-30.72-68.267-68.267v-49.493c0-19.627,15.36-35.84,34.133-35.84h0.853   c12.8,0.853,23.893,7.68,33.28,14.507c8.533-6.827,19.627-13.653,32.427-14.507h0.853c18.773,0,34.133,16.213,34.133,35.84V408.6   C323.267,446.147,292.547,476.867,255,476.867z M221.72,340.333c-10.24,0-17.92,8.533-17.92,18.773V408.6   c0,28.16,23.04,51.2,51.2,51.2s51.2-23.04,51.2-51.2v-49.493c0-10.24-7.68-18.773-17.067-18.773   c-11.093,0-21.333,8.533-28.16,14.507c-3.413,2.56-8.533,2.56-11.093,0C242.2,348.867,231.96,340.333,221.72,340.333   L221.72,340.333z"/>
	<path d="M353.987,404.333L353.987,404.333c-2.56,0-5.973,0-8.533-0.853c-10.24-2.56-21.333-4.267-32.427-5.973   c-4.267-0.853-6.827-4.267-6.827-8.533V359.96c0-10.24-7.68-18.773-17.067-18.773c-11.093,0-21.333,8.533-28.16,14.507   c-3.413,2.56-8.533,2.56-11.093,0c-6.827-5.973-17.067-14.507-28.16-14.507l0,0c-10.24,0-17.92,8.533-17.92,18.773v29.013   c0,4.267-3.413,7.68-6.827,8.533c-11.093,1.707-21.333,3.413-30.72,5.973c-16.213,4.267-32.427-2.56-40.96-16.213   c-6.827-11.093-7.68-23.893-2.56-35.84c22.187-53.76,74.24-87.893,132.267-87.893c58.88,0,111.787,34.987,133.973,89.6   c5.12,11.093,3.413,23.893-3.413,34.133C378.733,397.507,366.787,404.333,353.987,404.333z M323.267,381.293   c8.533,1.707,17.92,3.413,26.453,5.12c1.707,0,3.413,0.853,5.12,0.853l0,0c6.827,0,12.8-3.413,17.067-9.387   c3.413-5.12,4.267-11.947,1.707-17.92c-20.48-48.64-66.56-79.36-118.613-79.36c-51.2,0-96.427,29.867-116.907,76.8   c-2.56,6.827-2.56,13.653,1.707,19.627c5.12,7.68,13.653,11.093,22.187,8.533c8.533-1.707,16.213-3.413,25.6-5.12v-21.333   c0-19.627,15.36-35.84,34.133-35.84h0.853c12.8,0.853,23.893,7.68,33.28,14.507c8.533-6.827,19.627-13.653,33.28-14.507h0.853   c18.773,0,34.133,16.213,34.133,35.84v22.187H323.267z"/>
</g>
<g>
</g>
<g>
</g>
<g>
</g>
<g>
</g>
<g>
</g>
<g>
</g>
<g>
</g>
<g>
</g>
<g>
</g>
<g>
</g>
<g>
</g>
<g>
</g>
<g>
</g>
<g>
</g>
<g>
</g>
</svg>
