<?xml version="1.0" encoding="iso-8859-1"?>
<!-- Generator: Adobe Illustrator 19.0.0, SVG Export Plug-In . SVG Version: 6.00 Build 0)  -->
<svg xmlns="http://www.w3.org/2000/svg" xmlns:xlink="http://www.w3.org/1999/xlink" version="1.1" id="Layer_1" x="0px" y="0px" viewBox="0 0 512 512" style="enable-background:new 0 0 512 512;" xml:space="preserve">
<g transform="translate(1 1)">
	<path style="fill:#FFE100;" d="M502.467,255c0,136.533-110.933,247.467-247.467,247.467S7.533,391.533,7.533,255   S118.467,7.533,255,7.533S502.467,118.467,502.467,255"/>
	<g>
		<path style="fill:#63D3FD;" d="M163.693,385.56c-23.893,5.973-43.52-17.92-34.133-40.107c21.333-48.64,69.12-81.92,125.44-81.92    c57.173,0,105.813,34.987,126.293,84.48c8.533,21.333-11.093,43.52-33.28,38.4C305.347,376.173,238.787,366.787,163.693,385.56"/>
		<path style="fill:#63D3FD;" d="M178.2,382.147V434.2c0,9.387,7.68,17.067,17.067,17.067s17.067-7.68,17.067-17.067v-17.067    c0,9.387,7.68,17.067,17.067,17.067s17.067-7.68,17.067-17.067V375.32C225.133,375.32,202.093,377.88,178.2,382.147"/>
	</g>
	<path style="fill:#3DB9F9;" d="M380.44,348.013c-20.48-49.493-69.12-84.48-125.44-84.48c-4.267,0-8.533,0-12.8,0.853   c51.2,5.12,94.72,37.547,113.493,83.627c5.973,15.36-1.707,30.72-15.36,36.693c2.56,0.853,5.12,0.853,6.827,1.707   C370.2,391.533,389.827,369.347,380.44,348.013"/>
	<path style="fill:#FFA800;" d="M255,7.533c-4.267,0-8.533,0-12.8,0C372.76,14.36,476.867,122.733,476.867,255   S372.76,495.64,242.2,502.467c4.267,0,8.533,0,12.8,0c136.533,0,247.467-110.933,247.467-247.467S391.533,7.533,255,7.533"/>
	<path style="fill:#FFFFFF;" d="M255,7.533c4.267,0,8.533,0,12.8,0C137.24,14.36,33.133,122.733,33.133,255   S137.24,495.64,267.8,502.467c-4.267,0-8.533,0-12.8,0C118.467,502.467,7.533,391.533,7.533,255S118.467,7.533,255,7.533"/>
	<path d="M255,511C114.2,511-1,395.8-1,255S114.2-1,255-1s256,115.2,256,256S395.8,511,255,511z M255,16.067   C123.587,16.067,16.067,123.587,16.067,255S123.587,493.933,255,493.933S493.933,386.413,493.933,255S386.413,16.067,255,16.067z"/>
	<path d="M327.533,229.4c-5.12,0-8.533-3.413-8.533-8.533c0-5.12,3.413-8.533,8.533-8.533C352.28,212.333,383,203.8,383,165.4   c0-27.307-17.067-46.933-40.96-46.933c-19.627,0-35.84,16.213-35.84,35.84c0,14.507,11.947,26.453,26.453,26.453   c11.093,0,19.627-8.533,19.627-19.627c0-7.68-5.973-13.653-13.653-13.653c-5.12,0-8.533-3.413-8.533-8.533   c0-5.12,3.413-8.533,8.533-8.533c17.067,0,30.72,13.653,30.72,30.72c0,20.48-16.213,36.693-36.693,36.693   c-23.893,0-43.52-19.627-43.52-43.52c0-29.013,23.893-52.907,52.907-52.907c34.133,0,58.027,26.453,58.027,64   C400.067,205.507,372.76,229.4,327.533,229.4z"/>
	<path d="M131.267,229.4c-5.12,0-8.533-3.413-8.533-8.533c0-5.12,3.413-8.533,8.533-8.533c24.747,0,55.467-8.533,55.467-46.933   c0-27.307-17.067-46.933-40.96-46.933c-19.627,0-35.84,16.213-35.84,35.84c0,14.507,11.947,26.453,26.453,26.453   c11.093,0,19.627-8.533,19.627-19.627c0-7.68-5.973-13.653-13.653-13.653c-5.12,0-8.533-3.413-8.533-8.533   c0-5.12,3.413-8.533,8.533-8.533c17.067,0,30.72,13.653,30.72,30.72c0,20.48-16.213,36.693-36.693,36.693   c-23.893,0-43.52-19.627-43.52-43.52c0-29.013,23.893-52.907,52.907-52.907c34.133,0,58.027,26.453,58.027,64   C203.8,205.507,176.493,229.4,131.267,229.4z"/>
	<path d="M353.987,395.8c-2.56,0-5.973,0-8.533-0.853C285.72,380.44,223.427,380.44,165.4,394.093   c-15.36,4.267-32.427-2.56-40.96-16.213c-6.827-11.093-7.68-23.893-2.56-35.84C144.92,289.133,196.973,255,255,255   c58.88,0,111.787,34.987,133.973,89.6c5.12,11.093,3.413,23.893-3.413,34.133C378.733,388.973,366.787,395.8,353.987,395.8z    M253.293,366.787c32.427,0,64.853,4.267,96.427,11.947c8.533,1.707,17.067-1.707,21.333-8.533   c3.413-5.12,4.267-11.947,1.707-17.92c-19.627-49.493-65.707-80.213-117.76-80.213c-51.2,0-97.28,29.867-116.907,76.8   c-2.56,6.827-2.56,13.653,1.707,19.627c5.12,7.68,13.653,11.093,22.187,8.533C191,370.2,221.72,366.787,253.293,366.787z"/>
	<path d="M195.267,459.8c-14.507,0-25.6-11.093-25.6-25.6v-52.053c0-4.267,2.56-7.68,6.827-8.533   c23.04-4.267,46.08-6.827,69.973-7.68c2.56,0,4.267,0.853,5.973,2.56c1.707,1.707,2.56,3.413,2.56,5.973v42.667   c0,14.507-11.093,25.6-25.6,25.6c-3.413,0-6.827-0.853-9.387-1.707C217.453,452.12,207.213,459.8,195.267,459.8z M186.733,389.827   V434.2c0,5.12,3.413,8.533,8.533,8.533c5.12,0,8.533-3.413,8.533-8.533v-17.067c0-5.12,3.413-8.533,8.533-8.533   c5.12,0,8.533,3.413,8.533,8.533s3.413,8.533,8.533,8.533c5.12,0,8.533-3.413,8.533-8.533v-33.28   C220.867,384.707,203.8,386.413,186.733,389.827z"/>
</g>
<g>
</g>
<g>
</g>
<g>
</g>
<g>
</g>
<g>
</g>
<g>
</g>
<g>
</g>
<g>
</g>
<g>
</g>
<g>
</g>
<g>
</g>
<g>
</g>
<g>
</g>
<g>
</g>
<g>
</g>
</svg>
