<?xml version="1.0" encoding="iso-8859-1"?>
<!-- Generator: Adobe Illustrator 19.0.0, SVG Export Plug-In . SVG Version: 6.00 Build 0)  -->
<svg xmlns="http://www.w3.org/2000/svg" xmlns:xlink="http://www.w3.org/1999/xlink" version="1.1" id="Layer_1" x="0px" y="0px" viewBox="0 0 511.146 511.146" style="enable-background:new 0 0 511.146 511.146;" xml:space="preserve">
<g transform="translate(1 1)">
	<path style="fill:#63D3FD;" d="M68.972,365.507L68.972,365.507c-9.387,11.093-26.453,11.093-35.84,0   c-10.24-11.947-10.24-29.867,0-45.227l17.92-31.573l17.92,31.573C79.212,338.2,79.212,353.56,68.972,365.507"/>
	<g>
		<path style="fill:#FFE100;" d="M473.452,212.76c-11.947,34.133-35.84,53.76-88.747,58.88    c-68.267,6.827-99.84-44.373-104.107-74.24s-24.747-28.16-24.747-28.16s-20.48-1.707-24.747,29.013    c-4.267,29.867-35.84,81.92-104.107,74.24c-52.907-5.973-76.8-24.747-88.747-59.733c-2.56,13.653-4.267,27.307-4.267,41.813    c0,17.92,2.56,35.84,5.973,52.907l11.093-18.773l17.92,31.573c10.24,18.773,10.24,34.133,0,45.227    c-0.853,1.707-2.56,2.56-3.413,3.413c38.4,64,109.227,107.52,190.293,107.52c122.88,0,221.867-98.987,221.867-221.867    C477.719,240.067,476.012,226.413,473.452,212.76"/>
		<path style="fill:#FFE100;" d="M228.546,130.84c8.533,2.56,17.92,4.267,27.307,4.267c9.387,0,17.92-1.707,27.307-4.267    c56.32-18.773,105.813-21.333,142.507-18.773c-40.107-48.64-101.547-79.36-169.813-79.36s-129.707,30.72-169.813,79.36    C122.732,109.507,172.226,112.067,228.546,130.84"/>
	</g>
	<g>
		<path style="fill:#FFA800;" d="M473.452,212.76c-5.12,13.653-11.947,25.6-22.187,34.133c0,2.56,0,4.267,0,6.827    c0,117.76-92.16,215.04-209.067,221.867c4.267,0,8.533,0,12.8,0c122.88,0,221.867-98.987,221.867-221.867    C477.719,240.067,476.012,226.413,473.452,212.76"/>
		<path style="fill:#FFA800;" d="M400.066,111.213c9.387,0,17.92,0,26.453,0.853c-40.96-48.64-102.4-79.36-170.667-79.36    c-4.267,0-8.533,0-12.8,0C306.199,36.973,361.666,65.987,400.066,111.213"/>
	</g>
	<g>
		<path style="fill:#63D3FD;" d="M358.252,399.64c-19.627-16.213-74.24-25.6-102.4-25.6s-82.773,9.387-102.4,25.6l0,0    c20.48-35.84,58.027-59.733,102.4-59.733S337.772,363.8,358.252,399.64L358.252,399.64z"/>
		<path style="fill:#63D3FD;" d="M255.852,135.107L255.852,135.107c-9.387,0-17.92-1.707-27.307-4.267    c-131.413-42.667-220.16-1.707-220.16-1.707v29.013C26.306,159,29.719,179.48,29.719,179.48    c8.533,56.32,29.013,86.187,96.427,93.013c68.267,6.827,99.84-44.373,104.107-74.24s25.6-29.013,25.6-29.013    s20.48-1.707,24.747,29.013s35.84,81.92,104.107,74.24c68.267-6.827,87.893-37.547,96.427-93.013c0,0,3.413-21.333,21.333-21.333    v-29.013c0,0-88.747-40.96-220.16,1.707C273.772,133.4,265.239,135.107,255.852,135.107"/>
	</g>
	<path style="fill:#3DB9F9;" d="M388.972,109.507c55.467,1.707,88.747,17.067,88.747,17.067v29.013   c-17.92,0.853-21.333,21.333-21.333,21.333c-8.533,55.467-28.16,86.187-96.427,93.013c7.68,0.853,16.213,0.853,24.747,0   c68.267-6.827,88.747-37.547,96.427-93.013c0,0,3.413-21.333,21.333-21.333v-29.013   C503.319,127.427,459.799,106.947,388.972,109.507"/>
	<path style="fill:#FFFFFF;" d="M122.732,109.507c-55.467,2.56-88.747,17.92-88.747,17.92v29.013   c17.92,0.853,21.333,21.333,21.333,21.333c8.533,55.467,29.013,86.187,96.427,93.013c-7.68,0.853-16.213,0.853-24.747,0   c-68.267-7.68-88.747-37.547-97.28-93.867c0,0-3.413-21.333-21.333-21.333v-29.013C8.386,127.427,51.906,106.947,122.732,109.507"/>
	<path d="M358.252,408.173L358.252,408.173L358.252,408.173c-2.56,0-4.267-0.853-5.12-1.707   c-17.92-14.507-70.827-23.893-97.28-23.893s-78.507,9.387-96.427,23.893c-1.707,0.853-4.267,1.707-5.973,1.707l0,0   c-3.413,0-6.827-2.56-7.68-5.973c-0.853-2.56-0.853-5.973,0.853-7.68c23.04-39.253,64-63.147,109.227-63.147   s85.333,23.04,109.227,62.293c1.707,1.707,1.707,3.413,1.707,5.973C366.786,404.76,363.372,408.173,358.252,408.173z    M255.852,365.507c17.067,0,47.787,4.267,73.387,11.947c-19.627-18.773-45.227-29.013-73.387-29.013s-53.76,10.24-73.387,29.013   C208.066,369.773,238.786,365.507,255.852,365.507z"/>
	<path d="M372.759,281.88c-64,0-94.72-50.347-99.84-82.773c-3.413-20.48-14.507-21.333-17.067-21.333h-0.853   c-1.707,0-12.8,0.853-16.213,21.333c-5.12,31.573-35.84,82.773-99.84,82.773c-4.267,0-8.533,0-13.653-0.853   c-75.094-7.68-95.574-44.374-104.107-100.694c0,0-2.56-13.653-13.653-14.507c-4.267,0-8.533-4.267-8.533-8.533V128.28   c0-3.413,1.707-5.973,5.12-7.68c1.707-0.853,40.96-18.773,104.96-18.773c40.107,0,80.213,6.827,121.173,19.627   c15.36,5.12,32.427,5.12,48.64,0c40.96-12.8,81.92-19.627,121.173-19.627c64.853,0,104.107,17.92,104.96,18.773   c3.413,1.707,5.12,4.267,5.12,7.68v29.013c0,4.267-3.413,8.533-8.533,8.533c-11.093,0-13.653,14.507-13.653,14.507   c-8.533,56.32-29.013,92.16-104.107,100.693C381.292,281.027,377.026,281.88,372.759,281.88z M255.852,160.707   c2.56,0,28.16,0.853,33.28,35.84c4.267,26.453,29.867,67.413,82.774,67.413c3.413,0,7.68,0,11.947-0.853   c64.853-6.827,81.92-35.84,89.6-86.187c1.707-8.533,7.68-23.04,21.333-27.307v-14.507c-11.947-4.266-45.227-14.506-93.014-14.506   c-37.547,0-76.8,6.827-116.053,18.773c-18.773,5.973-40.107,5.973-58.88,0c-39.253-12.8-78.507-18.773-116.053-18.773   c-47.787,0-81.067,10.24-93.013,14.507v16.213c12.8,3.413,18.773,17.92,20.48,26.453c7.68,50.347,23.893,79.36,89.6,86.187   c4.267,0,7.68,0.853,11.947,0.853c52.907,0,79.36-41.813,82.773-67.413C227.692,161.56,252.439,160.707,255.852,160.707   L255.852,160.707z"/>
	<path d="M255.852,143.64c-10.24,0-19.627-1.707-29.867-4.267c-46.933-16.213-94.72-22.187-139.947-18.773   c-3.413,0-6.827-1.707-8.533-4.267c-0.853-3.413-0.853-6.827,1.707-9.387c43.52-52.907,108.373-82.773,176.64-82.773   S387.266,54.04,431.639,105.24c1.707,1.707,3.413,4.267,3.413,6.827c0,5.12-3.413,8.533-8.533,8.533h-0.853   c-45.227-3.413-93.013,2.56-139.947,17.92C275.479,141.933,266.092,143.64,255.852,143.64z M109.932,102.68   c40.107,0,80.213,6.827,121.173,19.627c15.36,5.12,32.427,5.12,48.64,0c41.813-13.653,84.48-20.48,125.44-19.627   c-39.253-39.253-93.013-61.44-149.333-61.44s-110.08,22.187-150.187,61.44C107.372,102.68,109.079,102.68,109.932,102.68z"/>
	<path d="M76.652,186.307c-2.56,0-4.267-0.853-5.973-2.56c-3.413-3.413-3.413-8.533,0-11.947l25.6-25.6   c3.413-3.413,8.533-3.413,11.947,0s3.413,8.533,0,11.947l-25.6,25.6C80.919,185.453,79.212,186.307,76.652,186.307z"/>
	<path d="M51.052,382.573c-9.387,0-17.92-4.267-24.747-11.947c-12.8-14.507-12.8-36.693-0.853-55.467l17.92-30.72   c1.707-2.56,4.267-4.267,7.68-4.267l0,0c3.413,0,5.973,1.707,7.68,4.267l17.92,31.573c15.36,27.307,7.68,45.227-0.853,55.467   C68.972,378.307,60.439,382.573,51.052,382.573z M51.052,305.773l-11.093,18.774c-7.68,12.8-8.533,27.307-0.853,35.84   c5.973,7.68,17.067,7.68,23.04,0c7.68-8.533,6.827-20.48-0.853-35.84L51.052,305.773z"/>
	<path d="M255.852,484.973c-81.92,0-155.307-41.813-197.973-111.787c-2.56-3.413-1.707-8.533,1.707-11.093   c0.853-0.853,1.707-1.707,2.56-2.56c2.56-3.413,11.093-12.8-0.853-35.84l-10.24-17.92l-3.413,5.973   c-1.707,3.413-5.12,5.12-8.533,4.267c-3.413-0.853-5.973-3.413-6.827-6.827c-4.267-17.92-6.827-35.84-6.827-54.613   c0-14.507,1.707-29.013,4.267-43.52c0.853-3.413,4.267-6.827,7.68-6.827s7.68,1.707,8.533,5.973   c11.947,33.28,34.987,48.64,81.92,53.76c4.267,0,7.68,0.853,11.947,0.853l0,0c52.907,0,79.36-41.813,82.773-67.413   c5.12-34.987,30.72-35.84,33.28-35.84h0.853c2.56,0,28.16,0.853,33.28,35.84c4.267,26.453,29.867,67.413,82.773,67.413   c3.413,0,7.68,0,11.947-0.853c46.08-5.12,69.973-20.48,81.92-53.76c0.853-3.413,5.12-5.973,8.533-5.973   c4.267,0,6.827,3.413,7.68,6.827c2.56,14.507,4.267,29.013,4.267,42.667C486.252,381.72,382.999,484.973,255.852,484.973z    M76.652,369.773c39.253,61.44,105.813,98.133,179.2,98.133c117.76,0,213.333-95.573,213.333-213.333c0-4.267,0-8.533,0-12.8   c-16.213,23.04-42.667,34.987-82.773,39.253c-4.267,0.853-9.387,0.853-13.653,0.853c-64,0-94.72-50.347-99.84-82.773   c-3.413-20.48-14.507-21.333-17.067-21.333h-0.853c-1.707,0-12.8,0.853-16.213,21.333c-5.12,31.573-35.84,82.773-99.84,82.773l0,0   c-4.267,0-8.533,0-13.653-0.853c-40.107-4.267-65.707-16.213-82.773-39.253c0,4.267,0,8.533,0,12.8   c0,9.387,0.853,19.627,1.707,29.013c3.413-4.267,11.093-3.413,13.653,0.853l18.773,31.573   C91.159,342.467,84.332,359.533,76.652,369.773z"/>
</g>
<g>
</g>
<g>
</g>
<g>
</g>
<g>
</g>
<g>
</g>
<g>
</g>
<g>
</g>
<g>
</g>
<g>
</g>
<g>
</g>
<g>
</g>
<g>
</g>
<g>
</g>
<g>
</g>
<g>
</g>
</svg>
