<?xml version="1.0" encoding="iso-8859-1"?>
<!-- Generator: Adobe Illustrator 19.0.0, SVG Export Plug-In . SVG Version: 6.00 Build 0)  -->
<svg xmlns="http://www.w3.org/2000/svg" xmlns:xlink="http://www.w3.org/1999/xlink" version="1.1" id="Layer_1" x="0px" y="0px" viewBox="0 0 512 512" style="enable-background:new 0 0 512 512;" xml:space="preserve">
<g transform="translate(1 1)">
	<path style="fill:#FFE100;" d="M502.467,255c0,136.533-110.933,247.467-247.467,247.467S7.533,391.533,7.533,255   S118.467,7.533,255,7.533S502.467,118.467,502.467,255"/>
	<path style="fill:#FFA800;" d="M255,7.533c-4.267,0-8.533,0-12.8,0C372.76,14.36,476.867,122.733,476.867,255   S372.76,495.64,242.2,502.467c4.267,0,8.533,0,12.8,0c136.533,0,247.467-110.933,247.467-247.467S391.533,7.533,255,7.533"/>
	<path style="fill:#FFFFFF;" d="M255,7.533c4.267,0,8.533,0,12.8,0C137.24,14.36,33.133,122.733,33.133,255   S137.24,495.64,267.8,502.467c-4.267,0-8.533,0-12.8,0C118.467,502.467,7.533,391.533,7.533,255S118.467,7.533,255,7.533"/>
	<g>
		<path style="fill:#63D3FD;" d="M186.733,195.267c0,28.16-11.093,51.2-25.6,51.2s-25.6-23.04-25.6-51.2s11.093-51.2,25.6-51.2    S186.733,167.107,186.733,195.267"/>
		<path style="fill:#63D3FD;" d="M374.467,195.267c0,28.16-11.093,51.2-25.6,51.2c-14.507,0-25.6-23.04-25.6-51.2    s11.093-51.2,25.6-51.2C363.373,144.067,374.467,167.107,374.467,195.267"/>
	</g>
	<path d="M255,511C114.2,511-1,395.8-1,255S114.2-1,255-1s256,115.2,256,256S395.8,511,255,511z M255,16.067   C123.587,16.067,16.067,123.587,16.067,255S123.587,493.933,255,493.933S493.933,386.413,493.933,255S386.413,16.067,255,16.067z"/>
	<path d="M161.133,255C141.507,255,127,229.4,127,195.267s14.507-59.733,34.133-59.733s34.133,25.6,34.133,59.733   S180.76,255,161.133,255z M161.133,152.6c-6.827,0-17.067,16.213-17.067,42.667s10.24,42.667,17.067,42.667   S178.2,221.72,178.2,195.267S167.96,152.6,161.133,152.6z"/>
	<path d="M348.867,255c-19.627,0-34.133-25.6-34.133-59.733s14.507-59.733,34.133-59.733c19.627,0,34.133,25.6,34.133,59.733   S368.493,255,348.867,255z M348.867,152.6c-6.827,0-17.067,16.213-17.067,42.667s10.24,42.667,17.067,42.667   s17.067-16.213,17.067-42.667S355.693,152.6,348.867,152.6z"/>
	<path d="M391.533,135.533c-28.16,0-51.2-23.04-51.2-51.2c0-5.12,3.413-8.533,8.533-8.533s8.533,3.413,8.533,8.533   c0,18.773,15.36,34.133,34.133,34.133c5.12,0,8.533,3.413,8.533,8.533C400.065,132.119,396.653,135.533,391.533,135.533z"/>
	<path d="M118.467,135.533c-5.12,0-8.533-3.413-8.533-8.533s3.413-8.533,8.533-8.533c18.773,0,34.133-15.36,34.133-34.133   c0-5.12,3.413-8.533,8.533-8.533c5.12,0,8.533,3.413,8.533,8.533C169.667,112.493,146.627,135.533,118.467,135.533z"/>
	<path d="M357.4,374.467c-2.56,0-5.973-1.707-7.68-4.267c-19.627-34.987-55.467-55.467-94.72-55.467s-75.093,20.48-94.72,55.467   c-2.56,4.267-7.68,5.12-11.947,3.413c-4.267-2.56-5.12-7.68-3.413-11.947c23.893-40.107,64.853-64,110.08-64   s86.187,23.893,110.08,64c2.56,4.267,0.853,9.387-3.413,11.947C359.96,374.467,359.107,374.467,357.4,374.467z"/>
</g>
<g>
</g>
<g>
</g>
<g>
</g>
<g>
</g>
<g>
</g>
<g>
</g>
<g>
</g>
<g>
</g>
<g>
</g>
<g>
</g>
<g>
</g>
<g>
</g>
<g>
</g>
<g>
</g>
<g>
</g>
</svg>
