<?xml version="1.0" encoding="iso-8859-1"?>
<!-- Generator: Adobe Illustrator 19.0.0, SVG Export Plug-In . SVG Version: 6.00 Build 0)  -->
<svg xmlns="http://www.w3.org/2000/svg" xmlns:xlink="http://www.w3.org/1999/xlink" version="1.1" id="Layer_1" x="0px" y="0px" viewBox="0 0 512 512" style="enable-background:new 0 0 512 512;" xml:space="preserve">
<g transform="translate(1 1)">
	<path style="fill:#FFE100;" d="M502.467,255c0,136.533-110.933,247.467-247.467,247.467S7.533,391.533,7.533,255   S118.467,7.533,255,7.533S502.467,118.467,502.467,255"/>
	<path style="fill:#FFA800;" d="M255,7.533c-4.267,0-8.533,0-12.8,0C372.76,14.36,476.867,122.733,476.867,255   S372.76,495.64,242.2,502.467c4.267,0,8.533,0,12.8,0c136.533,0,247.467-110.933,247.467-247.467S391.533,7.533,255,7.533"/>
	<path style="fill:#FFFFFF;" d="M255,7.533c4.267,0,8.533,0,12.8,0C137.24,14.36,33.133,122.733,33.133,255   S137.24,495.64,267.8,502.467c-4.267,0-8.533,0-12.8,0C118.467,502.467,7.533,391.533,7.533,255S118.467,7.533,255,7.533"/>
	<path style="fill:#63D3FD;" d="M400.067,169.667c0,23.893-18.773,42.667-42.667,42.667c-23.893,0-42.667-18.773-42.667-42.667   S333.507,127,357.4,127S400.067,145.773,400.067,169.667"/>
	<path style="fill:#3DB9F9;" d="M357.4,127c-4.267,0-8.533,0.853-12.8,2.56c17.067,5.12,29.867,21.333,29.867,40.107   s-12.8,34.987-29.867,40.107c4.267,0.853,8.533,2.56,12.8,2.56c23.893,0,42.667-18.773,42.667-42.667S381.293,127,357.4,127"/>
	<path style="fill:#63D3FD;" d="M195.267,169.667c0,23.893-18.773,42.667-42.667,42.667s-42.667-18.773-42.667-42.667   S128.707,127,152.6,127S195.267,145.773,195.267,169.667"/>
	<path style="fill:#3DB9F9;" d="M152.6,127c-4.267,0-8.533,0.853-12.8,2.56c17.067,5.12,29.867,21.333,29.867,40.107   s-12.8,34.987-29.867,40.107c4.267,0.853,8.533,2.56,12.8,2.56c23.893,0,42.667-18.773,42.667-42.667S176.493,127,152.6,127"/>
	<path d="M255,511C114.2,511-1,395.8-1,255S114.2-1,255-1s256,115.2,256,256S395.8,511,255,511z M255,16.067   C123.587,16.067,16.067,123.587,16.067,255S123.587,493.933,255,493.933S493.933,386.413,493.933,255S386.413,16.067,255,16.067z"/>
	<path d="M289.133,323.267h-68.267c-5.12,0-8.533-3.413-8.533-8.533s3.413-8.533,8.533-8.533h68.267c5.12,0,8.533,3.413,8.533,8.533   C297.667,319.853,294.253,323.267,289.133,323.267z"/>
	<path d="M161.133,169.667c0,5.12-3.413,8.533-8.533,8.533c-5.12,0-8.533-3.413-8.533-8.533c0-5.12,3.413-8.533,8.533-8.533   C157.72,161.133,161.133,164.547,161.133,169.667"/>
	<path d="M152.6,220.867c-28.16,0-51.2-23.04-51.2-51.2s23.04-51.2,51.2-51.2s51.2,23.04,51.2,51.2S180.76,220.867,152.6,220.867z    M152.6,135.533c-18.773,0-34.133,15.36-34.133,34.133S133.827,203.8,152.6,203.8s34.133-15.36,34.133-34.133   S171.373,135.533,152.6,135.533z"/>
	<path d="M365.933,169.667c0,5.12-3.413,8.533-8.533,8.533s-8.533-3.413-8.533-8.533c0-5.12,3.413-8.533,8.533-8.533   S365.933,164.547,365.933,169.667"/>
	<path d="M357.4,220.867c-28.16,0-51.2-23.04-51.2-51.2s23.04-51.2,51.2-51.2s51.2,23.04,51.2,51.2S385.56,220.867,357.4,220.867z    M357.4,135.533c-18.773,0-34.133,15.36-34.133,34.133S338.627,203.8,357.4,203.8s34.133-15.36,34.133-34.133   S376.173,135.533,357.4,135.533z"/>
</g>
<g>
</g>
<g>
</g>
<g>
</g>
<g>
</g>
<g>
</g>
<g>
</g>
<g>
</g>
<g>
</g>
<g>
</g>
<g>
</g>
<g>
</g>
<g>
</g>
<g>
</g>
<g>
</g>
<g>
</g>
</svg>
