<?xml version="1.0" encoding="iso-8859-1"?>
<!-- Generator: Adobe Illustrator 19.0.0, SVG Export Plug-In . SVG Version: 6.00 Build 0)  -->
<svg xmlns="http://www.w3.org/2000/svg" xmlns:xlink="http://www.w3.org/1999/xlink" version="1.1" id="Layer_1" x="0px" y="0px" viewBox="0 0 512 512" style="enable-background:new 0 0 512 512;" xml:space="preserve">
<g transform="translate(1 1)">
	<path style="fill:#FFE100;" d="M502.467,255c0,136.533-110.933,247.467-247.467,247.467S7.533,391.533,7.533,255   S118.467,7.533,255,7.533S502.467,118.467,502.467,255"/>
	<path style="fill:#FFA800;" d="M255,7.533c-4.267,0-8.533,0-12.8,0C372.76,14.36,476.867,122.733,476.867,255   S372.76,495.64,242.2,502.467c4.267,0,8.533,0,12.8,0c136.533,0,247.467-110.933,247.467-247.467S391.533,7.533,255,7.533"/>
	<path style="fill:#FFFFFF;" d="M255,7.533c4.267,0,8.533,0,12.8,0C137.24,14.36,33.133,122.733,33.133,255   S137.24,495.64,267.8,502.467c-4.267,0-8.533,0-12.8,0C118.467,502.467,7.533,391.533,7.533,255S118.467,7.533,255,7.533"/>
	<path style="fill:#E4667F;" d="M314.733,374.467v17.067c0,33.28-26.453,59.733-59.733,59.733s-59.733-26.453-59.733-59.733v-17.067   V342.04c0-14.507,11.947-27.307,26.453-27.307c12.8,0.853,23.893,9.387,33.28,17.067c8.533-7.68,20.48-16.213,33.28-17.067   c14.507-0.853,26.453,12.8,26.453,27.307V374.467"/>
	<path style="fill:#DD3859;" d="M288.28,314.733c-4.267,0-8.533,1.707-12.8,3.413c8.533,4.267,13.653,13.653,13.653,23.893v32.427   v17.067c0,29.013-20.48,52.053-46.933,58.027c4.267,0.853,8.533,1.707,12.8,1.707c33.28,0,59.733-26.453,59.733-59.733v-17.067   V342.04C314.733,327.533,302.787,313.88,288.28,314.733"/>
	<path style="fill:#63D3FD;" d="M371.907,280.6h-232.96c-9.387,0-14.507,10.24-9.387,17.92c16.213,23.893,39.253,43.52,66.56,54.613   v-11.947c0-14.507,11.947-27.307,26.453-27.307c12.8,0.853,23.893,9.387,33.28,17.067c8.533-7.68,20.48-16.213,33.28-17.067   c14.507-0.853,26.453,12.8,26.453,27.307v11.947c27.307-11.947,49.493-30.72,66.56-54.613   C386.413,290.84,380.44,280.6,371.907,280.6"/>
	<path style="fill:#3DB9F9;" d="M371.907,280.6h-25.6c9.387,0,14.507,10.24,9.387,17.92c-11.093,16.213-24.747,29.867-40.96,40.96   c0,0.853,0,1.707,0,2.56v11.947c27.307-11.947,49.493-30.72,66.56-54.613C386.413,290.84,381.293,280.6,371.907,280.6"/>
	<path d="M255,511C114.2,511-1,395.8-1,255S114.2-1,255-1s256,115.2,256,256S395.8,511,255,511z M255,16.067   C123.587,16.067,16.067,123.587,16.067,255S123.587,493.933,255,493.933S493.933,386.413,493.933,255S386.413,16.067,255,16.067z"/>
	<path d="M391.533,178.2c-5.12,0-8.533-3.413-8.533-8.533c0-14.507-11.093-25.6-25.6-25.6s-25.6,11.093-25.6,25.6   c0,5.12-3.413,8.533-8.533,8.533s-8.533-3.413-8.533-8.533c0-23.893,18.773-42.667,42.667-42.667   c23.893,0,42.667,18.773,42.667,42.667C400.067,174.787,396.653,178.2,391.533,178.2z"/>
	<path d="M186.733,178.2c-5.12,0-8.533-3.413-8.533-8.533c0-14.507-11.093-25.6-25.6-25.6s-25.6,11.093-25.6,25.6   c0,5.12-3.413,8.533-8.533,8.533s-8.533-3.413-8.533-8.533c0-23.893,18.773-42.667,42.667-42.667s42.667,18.773,42.667,42.667   C195.267,174.787,191.853,178.2,186.733,178.2z"/>
	<path d="M255,459.8c-37.547,0-68.267-30.72-68.267-68.267V342.04c0-19.627,15.36-35.84,34.133-35.84h0.853   c12.8,0.853,23.893,7.68,33.28,14.507c8.533-6.827,19.627-13.653,32.427-14.507h0.853c18.773,0,34.133,16.213,34.133,35.84v49.493   C323.267,429.08,292.547,459.8,255,459.8z M221.72,323.267c-10.24,0-17.92,8.533-17.92,18.773v49.493c0,28.16,23.04,51.2,51.2,51.2   s51.2-23.04,51.2-51.2V342.04c0-10.24-7.68-18.773-17.067-18.773c-11.093,0-21.333,8.533-28.16,14.507   c-3.413,2.56-8.533,2.56-11.093,0C242.2,331.8,231.96,323.267,221.72,323.267L221.72,323.267z"/>
	<path d="M314.733,362.52c-1.707,0-3.413-0.853-4.267-1.707c-2.56-1.707-4.267-4.267-4.267-6.827V342.04   c0-10.24-7.68-18.773-17.067-18.773c-11.093,0-21.333,8.533-28.16,14.507c-3.413,2.56-8.533,2.56-11.093,0   c-6.827-5.973-17.067-14.507-28.16-14.507l0,0c-10.24,0-17.92,8.533-17.92,18.773v11.947c0,2.56-1.707,5.973-3.413,6.827   c-2.56,1.707-5.12,1.707-7.68,0.853c-28.16-11.947-52.053-32.427-69.973-58.027c-4.267-5.973-4.267-14.507-0.853-20.48   c3.413-6.827,10.24-10.24,17.92-10.24h232.96c7.68,0,14.507,4.267,17.92,10.24c3.413,6.827,3.413,14.507-0.853,20.48   c-17.067,25.6-41.813,46.08-69.973,58.027C317.293,361.667,315.587,362.52,314.733,362.52z M138.947,289.133   c-1.707,0-2.56,0.853-2.56,1.707c0,0.853-0.853,1.707,0,3.413c12.8,19.627,30.72,34.987,50.347,46.08   c0.853-18.773,16.213-34.133,34.133-34.133h0.853c12.8,0.853,23.893,7.68,33.28,14.507c8.533-6.827,19.627-13.653,33.28-14.507   h0.853c17.92,0,33.28,15.36,34.133,34.133c20.48-11.093,37.547-26.453,50.347-46.08c0.853-1.707,0.853-2.56,0-3.413   c0-0.853-0.853-1.707-2.56-1.707H138.947z"/>
</g>
<g>
</g>
<g>
</g>
<g>
</g>
<g>
</g>
<g>
</g>
<g>
</g>
<g>
</g>
<g>
</g>
<g>
</g>
<g>
</g>
<g>
</g>
<g>
</g>
<g>
</g>
<g>
</g>
<g>
</g>
</svg>
