<?xml version="1.0" encoding="iso-8859-1"?>
<!-- Generator: Adobe Illustrator 19.0.0, SVG Export Plug-In . SVG Version: 6.00 Build 0)  -->
<svg xmlns="http://www.w3.org/2000/svg" xmlns:xlink="http://www.w3.org/1999/xlink" version="1.1" id="Layer_1" x="0px" y="0px" viewBox="0 0 512 512" style="enable-background:new 0 0 512 512;" xml:space="preserve">
<g transform="translate(1 1)">
	<path style="fill:#FFE100;" d="M502.467,255c0,136.533-110.933,247.467-247.467,247.467S7.533,391.533,7.533,255   S118.467,7.533,255,7.533S502.467,118.467,502.467,255"/>
	<path style="fill:#FFA800;" d="M255,7.533c-4.267,0-8.533,0-12.8,0C372.76,14.36,476.867,122.733,476.867,255   S372.76,495.64,242.2,502.467c4.267,0,8.533,0,12.8,0c136.533,0,247.467-110.933,247.467-247.467S391.533,7.533,255,7.533"/>
	<path style="fill:#FFFFFF;" d="M255,7.533c4.267,0,8.533,0,12.8,0C137.24,14.36,33.133,122.733,33.133,255   S137.24,495.64,267.8,502.467c-4.267,0-8.533,0-12.8,0C118.467,502.467,7.533,391.533,7.533,255S118.467,7.533,255,7.533"/>
	<path d="M357.4,229.4c-11.947,0-23.893-5.12-32.427-14.507c-3.413-3.413-2.56-8.533,0.853-11.947s8.533-2.56,11.947,0.853   c5.12,5.12,11.947,8.533,19.627,8.533s14.507-3.413,19.627-8.533c3.413-3.413,8.533-4.267,11.947-0.853   c3.413,3.413,4.267,8.533,0.853,11.947C381.293,224.28,369.347,229.4,357.4,229.4z"/>
	<path d="M152.6,229.4c-11.947,0-23.893-5.12-31.573-14.507c-3.413-3.413-2.56-8.533,0.853-11.947   c3.413-3.413,8.533-2.56,11.947,0.853c5.12,5.12,11.947,8.533,18.773,8.533c7.68,0,14.507-3.413,19.627-8.533   c3.413-3.413,8.533-4.267,11.947-0.853s4.267,8.533,0.853,11.947C176.493,224.28,164.547,229.4,152.6,229.4z"/>
	<path d="M255,511C114.2,511-1,395.8-1,255S114.2-1,255-1s256,115.2,256,256S395.8,511,255,511z M255,16.067   C123.587,16.067,16.067,123.587,16.067,255S123.587,493.933,255,493.933S493.933,386.413,493.933,255S386.413,16.067,255,16.067z"/>
	<path d="M255,391.533c-33.28,0-64.853-12.8-88.747-36.693c-3.413-3.413-3.413-8.533,0-11.947c3.413-3.413,8.533-3.413,11.947,0   c20.48,20.48,47.787,31.573,76.8,31.573s56.32-11.093,76.8-31.573c3.413-3.413,8.533-3.413,11.947,0   c3.413,3.413,3.413,8.533,0,11.947C319.853,378.733,288.28,391.533,255,391.533z"/>
	<path d="M183.32,135.533c-1.707,0-3.413,0-4.267-0.853c-16.213-9.387-36.693-9.387-52.907,0c-4.267,2.56-9.387,0.853-11.947-2.56   c-2.56-4.267-0.853-9.387,2.56-11.947c21.333-12.8,48.64-12.8,69.973,0c4.267,2.56,5.12,7.68,2.56,11.947   C188.44,133.827,185.88,135.533,183.32,135.533z"/>
	<path d="M388.12,135.533c-1.707,0-3.413,0-4.267-0.853c-16.213-9.387-36.693-9.387-52.907,0c-4.267,2.56-9.387,0.853-11.947-2.56   c-2.56-4.267-0.853-9.387,2.56-11.947c21.333-12.8,48.64-12.8,69.973,0c4.267,2.56,5.12,7.68,2.56,11.947   C393.24,133.827,390.68,135.533,388.12,135.533z"/>
</g>
<g>
</g>
<g>
</g>
<g>
</g>
<g>
</g>
<g>
</g>
<g>
</g>
<g>
</g>
<g>
</g>
<g>
</g>
<g>
</g>
<g>
</g>
<g>
</g>
<g>
</g>
<g>
</g>
<g>
</g>
</svg>
