<?xml version="1.0" encoding="iso-8859-1"?>
<!-- Generator: Adobe Illustrator 19.0.0, SVG Export Plug-In . SVG Version: 6.00 Build 0)  -->
<svg xmlns="http://www.w3.org/2000/svg" xmlns:xlink="http://www.w3.org/1999/xlink" version="1.1" id="Layer_1" x="0px" y="0px" viewBox="0 0 512 512" style="enable-background:new 0 0 512 512;" xml:space="preserve">
<g transform="translate(1 1)">
	<path style="fill:#FFE100;" d="M502.467,255c0,136.533-110.933,247.467-247.467,247.467S7.533,391.533,7.533,255   S118.467,7.533,255,7.533S502.467,118.467,502.467,255"/>
	<path style="fill:#FFA800;" d="M255,7.533c-4.267,0-8.533,0-12.8,0C372.76,14.36,476.867,122.733,476.867,255   S372.76,495.64,242.2,502.467c4.267,0,8.533,0,12.8,0c136.533,0,247.467-110.933,247.467-247.467S391.533,7.533,255,7.533"/>
	<path style="fill:#FFFFFF;" d="M255,7.533c4.267,0,8.533,0,12.8,0C137.24,14.36,33.133,122.733,33.133,255   S137.24,495.64,267.8,502.467c-4.267,0-8.533,0-12.8,0C118.467,502.467,7.533,391.533,7.533,255S118.467,7.533,255,7.533"/>
	<g>
		<path style="fill:#FFE100;" d="M212.333,152.6c0,28.16-23.04,51.2-51.2,51.2s-51.2-23.04-51.2-51.2s23.04-51.2,51.2-51.2    S212.333,124.44,212.333,152.6"/>
		<path style="fill:#FFE100;" d="M400.067,152.6c0,28.16-23.04,51.2-51.2,51.2s-51.2-23.04-51.2-51.2s23.04-51.2,51.2-51.2    C377.027,101.4,400.067,124.44,400.067,152.6"/>
	</g>
	<g>
		<path style="fill:#63D3FD;" d="M186.733,127c0,14.507-11.093,25.6-25.6,25.6s-25.6-11.093-25.6-25.6s11.093-25.6,25.6-25.6    C175.64,101.4,186.733,112.493,186.733,127"/>
		<path style="fill:#63D3FD;" d="M374.467,127c0,14.507-11.093,25.6-25.6,25.6c-14.507,0-25.6-11.093-25.6-25.6    s11.093-25.6,25.6-25.6C363.373,101.4,374.467,112.493,374.467,127"/>
	</g>
	<path d="M357.4,383c-2.56,0-5.973-1.707-7.68-4.267c-19.627-34.987-55.467-55.467-94.72-55.467s-75.093,20.48-94.72,55.467   c-2.56,4.267-7.68,5.12-11.947,3.413c-4.267-2.56-5.12-7.68-3.413-11.947c23.893-40.107,64.853-64,110.08-64   s86.187,23.893,110.08,64c2.56,4.267,0.853,9.387-3.413,11.947C359.96,383,359.107,383,357.4,383z"/>
	<path d="M255,511C114.2,511-1,395.8-1,255S114.2-1,255-1s256,115.2,256,256S395.8,511,255,511z M255,16.067   C123.587,16.067,16.067,123.587,16.067,255S123.587,493.933,255,493.933S493.933,386.413,493.933,255S386.413,16.067,255,16.067z"/>
	<path d="M161.133,212.333c-33.28,0-59.733-26.453-59.733-59.733s26.453-59.733,59.733-59.733s59.733,26.453,59.733,59.733   S194.413,212.333,161.133,212.333z M161.133,109.933c-23.893,0-42.667,18.773-42.667,42.667s18.773,42.667,42.667,42.667   S203.8,176.493,203.8,152.6S185.027,109.933,161.133,109.933z"/>
	<path d="M348.867,212.333c-33.28,0-59.733-26.453-59.733-59.733s26.453-59.733,59.733-59.733S408.6,119.32,408.6,152.6   S382.147,212.333,348.867,212.333z M348.867,109.933c-23.893,0-42.667,18.773-42.667,42.667s18.773,42.667,42.667,42.667   c23.893,0,42.667-18.773,42.667-42.667S372.76,109.933,348.867,109.933z"/>
	<path d="M161.133,161.133C142.36,161.133,127,145.773,127,127s15.36-34.133,34.133-34.133s34.133,15.36,34.133,34.133   S179.907,161.133,161.133,161.133z M161.133,109.933c-9.387,0-17.067,7.68-17.067,17.067s7.68,17.067,17.067,17.067   S178.2,136.387,178.2,127S170.52,109.933,161.133,109.933z"/>
	<path d="M348.867,161.133c-18.773,0-34.133-15.36-34.133-34.133s15.36-34.133,34.133-34.133C367.64,92.867,383,108.227,383,127   S367.64,161.133,348.867,161.133z M348.867,109.933c-9.387,0-17.067,7.68-17.067,17.067s7.68,17.067,17.067,17.067   s17.067-7.68,17.067-17.067S358.253,109.933,348.867,109.933z"/>
</g>
<g>
</g>
<g>
</g>
<g>
</g>
<g>
</g>
<g>
</g>
<g>
</g>
<g>
</g>
<g>
</g>
<g>
</g>
<g>
</g>
<g>
</g>
<g>
</g>
<g>
</g>
<g>
</g>
<g>
</g>
</svg>
