<?xml version="1.0" encoding="iso-8859-1"?>
<!-- Generator: Adobe Illustrator 19.0.0, SVG Export Plug-In . SVG Version: 6.00 Build 0)  -->
<svg xmlns="http://www.w3.org/2000/svg" xmlns:xlink="http://www.w3.org/1999/xlink" version="1.1" id="Layer_1" x="0px" y="0px" viewBox="0 0 512 512" style="enable-background:new 0 0 512 512;" xml:space="preserve">
<g transform="translate(1 1)">
	<path style="fill:#FFE100;" d="M502.467,255c0,136.533-110.933,247.467-247.467,247.467S7.533,391.533,7.533,255   S118.467,7.533,255,7.533S502.467,118.467,502.467,255"/>
	<path style="fill:#FFA800;" d="M255,7.533c-4.267,0-8.533,0-12.8,0C372.76,14.36,476.867,122.733,476.867,255   S372.76,495.64,242.2,502.467c4.267,0,8.533,0,12.8,0c136.533,0,247.467-110.933,247.467-247.467S391.533,7.533,255,7.533"/>
	<path style="fill:#FFFFFF;" d="M255,7.533c4.267,0,8.533,0,12.8,0C137.24,14.36,33.133,122.733,33.133,255   S137.24,495.64,267.8,502.467c-4.267,0-8.533,0-12.8,0C118.467,502.467,7.533,391.533,7.533,255S118.467,7.533,255,7.533"/>
	<path style="fill:#63D3FD;" d="M127,331.8c27.307,40.107,75.093,68.267,128,68.267S355.693,372.76,383,331.8H127z"/>
	<path style="fill:#E4667F;" d="M220.867,357.4c-17.067,0-32.427,8.533-41.813,22.187c22.187,12.8,48.64,20.48,75.947,20.48   s53.76-7.68,75.947-20.48c-8.533-13.653-24.747-22.187-41.813-22.187c-12.8,0-24.747,5.12-34.133,12.8   C245.613,362.52,233.667,357.4,220.867,357.4"/>
	<g>
		<polygon style="fill:#FFA800;" points="161.133,118.467 179.907,153.453 220.867,161.133 191.853,189.293 203.8,229.4     161.133,203.8 118.467,229.4 130.413,189.293 101.4,161.133 142.36,153.453   "/>
		<polygon style="fill:#FFA800;" points="348.867,118.467 367.64,153.453 408.6,161.133 379.587,189.293 391.533,229.4     348.867,203.8 306.2,229.4 318.147,189.293 289.133,161.133 330.093,153.453   "/>
	</g>
	<path d="M255,511C114.2,511-1,395.8-1,255S114.2-1,255-1s256,115.2,256,256S395.8,511,255,511z M255,16.067   C123.587,16.067,16.067,123.587,16.067,255S123.587,493.933,255,493.933S493.933,386.413,493.933,255S386.413,16.067,255,16.067z"/>
	<path d="M255,408.6c-52.907,0-104.96-27.307-134.827-71.68c-1.707-2.56-1.707-5.973-0.853-8.533c0.853-2.56,4.267-5.12,7.68-5.12   h256c3.413,0,5.973,1.707,7.68,4.267s1.707,5.973-0.853,8.533C359.96,381.293,307.907,408.6,255,408.6z M144.067,340.333   c27.307,31.573,68.267,51.2,110.933,51.2c41.813,0,82.773-19.627,110.933-51.2H144.067z"/>
	<path d="M203.8,237.933c-1.707,0-3.413,0-4.267-0.853l-38.4-23.04l-38.4,23.04c-3.413,1.707-6.827,1.707-9.387-0.853   s-4.267-5.973-2.56-9.387l11.093-34.987l-25.6-24.747c-2.56-2.56-3.413-5.973-2.56-8.533c0.853-2.56,3.413-5.12,6.827-5.973   l36.693-6.827l17.067-31.573c2.56-5.973,11.947-5.973,15.36,0l17.067,31.573l36.693,6.827c3.413,0.853,5.973,2.56,6.827,5.973   c0.853,3.413,0,6.827-2.56,8.533l-25.6,24.747l11.093,34.987c0.853,3.413,0,6.827-2.56,9.387   C207.213,237.08,205.507,237.933,203.8,237.933z M161.133,195.267c1.707,0,3.413,0,4.267,0.853l23.893,14.507l-5.973-18.773   c-0.853-3.413,0-6.827,2.56-8.533l17.067-17.067l-24.747-4.267c-2.56-0.853-5.12-1.707-5.973-4.267l-11.093-21.333L150.04,157.72   c-0.853,2.56-3.413,4.267-5.973,4.267l-24.747,4.267l17.067,17.067c2.56,2.56,3.413,5.973,2.56,8.533l-5.973,18.773l23.893-14.507   C157.72,195.267,159.427,195.267,161.133,195.267z"/>
	<path d="M391.533,237.933c-1.707,0-3.413,0-4.267-0.853l-38.4-23.04l-38.4,23.04c-3.413,1.707-6.827,1.707-9.387-0.853   s-4.267-5.973-2.56-9.387l11.093-34.987l-25.6-24.747c-2.56-2.56-3.413-5.973-2.56-8.533s3.413-5.12,6.827-5.973l36.693-6.827   L342.04,114.2c2.56-5.973,11.947-5.973,15.36,0l17.067,31.573l36.693,6.827c3.413,0.853,5.973,2.56,6.827,5.973   c0.853,3.413,0,6.827-2.56,8.533l-25.6,24.747l11.093,34.987c0.853,3.413,0,6.827-2.56,9.387   C394.947,237.08,393.24,237.933,391.533,237.933z M348.867,195.267c1.707,0,3.413,0,4.267,0.853l23.893,14.507l-5.973-18.773   c-0.853-3.413,0-6.827,2.56-8.533l17.067-17.067l-24.747-4.267c-2.56-0.853-5.12-1.707-5.973-4.267l-11.093-21.333l-11.093,21.333   c-0.853,2.56-3.413,4.267-5.973,4.267l-24.747,4.267l17.067,17.067c2.56,2.56,3.413,5.973,2.56,8.533l-5.973,18.773L344.6,196.12   C345.453,195.267,347.16,195.267,348.867,195.267z"/>
	<path d="M255,408.6c-28.16,0-55.467-7.68-80.213-21.333c-1.707-0.853-3.413-3.413-4.267-5.12c-0.853-2.56,0-5.12,1.707-6.827   c11.093-16.213,29.867-25.6,49.493-25.6c11.947,0,23.893,3.413,34.133,11.093c10.24-6.827,22.187-11.093,34.133-11.093   c19.627,0,37.547,9.387,49.493,25.6c1.707,1.707,1.707,4.267,1.707,6.827c-0.853,2.56-1.707,4.267-4.267,5.12   C310.467,400.92,283.16,408.6,255,408.6z M191.853,377.027c39.253,18.773,86.187,18.773,125.44,0   c-7.68-6.827-17.067-11.093-28.16-11.093c-10.24,0-20.48,4.267-28.16,11.093c-3.413,2.56-8.533,2.56-11.093,0   c-8.533-6.827-18.773-11.093-29.013-11.093S200.387,370.2,191.853,377.027z"/>
</g>
<g>
</g>
<g>
</g>
<g>
</g>
<g>
</g>
<g>
</g>
<g>
</g>
<g>
</g>
<g>
</g>
<g>
</g>
<g>
</g>
<g>
</g>
<g>
</g>
<g>
</g>
<g>
</g>
<g>
</g>
</svg>
