<?xml version="1.0" encoding="iso-8859-1"?>
<!-- Generator: Adobe Illustrator 19.0.0, SVG Export Plug-In . SVG Version: 6.00 Build 0)  -->
<svg xmlns="http://www.w3.org/2000/svg" xmlns:xlink="http://www.w3.org/1999/xlink" version="1.1" id="Layer_1" x="0px" y="0px" viewBox="0 0 512 512" style="enable-background:new 0 0 512 512;" xml:space="preserve">
<g transform="translate(1 1)">
	<path style="fill:#FFE100;" d="M502.467,255c0,136.533-110.933,247.467-247.467,247.467S7.533,391.533,7.533,255   S118.467,7.533,255,7.533S502.467,118.467,502.467,255"/>
	<path style="fill:#FFA800;" d="M255,7.533c-4.267,0-8.533,0-12.8,0C372.76,14.36,476.867,122.733,476.867,255   S372.76,495.64,242.2,502.467c4.267,0,8.533,0,12.8,0c136.533,0,247.467-110.933,247.467-247.467S391.533,7.533,255,7.533"/>
	<path style="fill:#FFFFFF;" d="M255,7.533c4.267,0,8.533,0,12.8,0C137.24,14.36,33.133,122.733,33.133,255   S137.24,495.64,267.8,502.467c-4.267,0-8.533,0-12.8,0C118.467,502.467,7.533,391.533,7.533,255S118.467,7.533,255,7.533"/>
	<path style="fill:#63D3FD;" d="M195.267,186.733c0,23.893-18.773,42.667-42.667,42.667s-42.667-18.773-42.667-42.667   s18.773-42.667,42.667-42.667S195.267,162.84,195.267,186.733"/>
	<path style="fill:#3DB9F9;" d="M152.6,144.067c-4.267,0-8.533,0.853-12.8,2.56c17.067,5.12,29.867,21.333,29.867,40.107   s-12.8,34.987-29.867,40.107c4.267,0.853,8.533,2.56,12.8,2.56c23.893,0,42.667-18.773,42.667-42.667   S176.493,144.067,152.6,144.067"/>
	<path style="fill:#63D3FD;" d="M400.067,186.733c0,23.893-18.773,42.667-42.667,42.667c-23.893,0-42.667-18.773-42.667-42.667   s18.773-42.667,42.667-42.667C381.293,144.067,400.067,162.84,400.067,186.733"/>
	<path style="fill:#3DB9F9;" d="M357.4,144.067c-4.267,0-8.533,0.853-12.8,2.56c17.067,5.12,29.867,21.333,29.867,40.107   s-12.8,34.987-29.867,40.107c4.267,0.853,8.533,2.56,12.8,2.56c23.893,0,42.667-18.773,42.667-42.667   S381.293,144.067,357.4,144.067"/>
	<path d="M255,511C114.2,511-1,395.8-1,255S114.2-1,255-1s256,115.2,256,256S395.8,511,255,511z M255,16.067   C123.587,16.067,16.067,123.587,16.067,255S123.587,493.933,255,493.933S493.933,386.413,493.933,255S386.413,16.067,255,16.067z"/>
	<path d="M357.4,331.8c-1.707,0-3.413-0.853-5.12-1.707L331.8,316.44l-20.48,13.653c-2.56,1.707-6.827,1.707-9.387,0L280.6,316.44   l-20.48,13.653c-2.56,1.707-6.827,1.707-9.387,0L229.4,316.44l-20.48,13.653c-2.56,1.707-6.827,1.707-9.387,0L178.2,316.44   l-20.48,13.653c-4.267,2.56-9.387,1.707-11.947-2.56s-1.707-9.387,2.56-11.947l25.6-17.067c2.56-1.707,6.827-1.707,9.387,0   l20.48,13.653l20.48-13.653c2.56-1.707,6.827-1.707,9.387,0l20.48,13.653l20.48-13.653c2.56-1.707,6.827-1.707,9.387,0   l20.48,13.653l20.48-13.653c2.56-1.707,6.827-1.707,9.387,0l25.6,17.067c4.267,2.56,5.12,7.68,2.56,11.947   C362.52,330.093,359.96,331.8,357.4,331.8z"/>
	<path d="M152.6,237.933c-28.16,0-51.2-23.04-51.2-51.2s23.04-51.2,51.2-51.2s51.2,23.04,51.2,51.2S180.76,237.933,152.6,237.933z    M152.6,152.6c-18.773,0-34.133,15.36-34.133,34.133s15.36,34.133,34.133,34.133s34.133-15.36,34.133-34.133   S171.373,152.6,152.6,152.6z"/>
	<path d="M186.733,127c-2.56,0-5.12-0.853-6.827-3.413c-6.827-8.533-16.213-13.653-27.307-13.653s-20.48,5.12-27.307,13.653   c-2.56,3.413-8.533,4.267-11.947,1.707c-3.413-2.56-4.267-8.533-1.707-11.947c9.387-12.8,24.747-20.48,40.96-20.48   s31.573,7.68,40.96,20.48c2.56,3.413,1.707,9.387-1.707,11.947C190.147,126.147,188.44,127,186.733,127z"/>
	<path d="M391.533,127c-2.56,0-5.12-0.853-6.827-3.413c-6.827-8.533-16.213-13.653-27.307-13.653s-20.48,5.12-27.307,13.653   c-2.56,3.413-8.533,4.267-11.947,1.707c-3.413-2.56-4.267-8.533-1.707-11.947c9.387-12.8,24.747-20.48,40.96-20.48   c16.213,0,31.573,7.68,40.96,20.48c2.56,3.413,1.707,9.387-1.707,11.947C394.947,126.147,393.24,127,391.533,127z"/>
	<path d="M357.4,237.933c-28.16,0-51.2-23.04-51.2-51.2s23.04-51.2,51.2-51.2s51.2,23.04,51.2,51.2S385.56,237.933,357.4,237.933z    M357.4,152.6c-18.773,0-34.133,15.36-34.133,34.133s15.36,34.133,34.133,34.133s34.133-15.36,34.133-34.133   S376.173,152.6,357.4,152.6z"/>
	<path d="M365.933,186.733c0,5.12-3.413,8.533-8.533,8.533s-8.533-3.413-8.533-8.533c0-5.12,3.413-8.533,8.533-8.533   S365.933,181.613,365.933,186.733"/>
	<path d="M161.133,186.733c0,5.12-3.413,8.533-8.533,8.533c-5.12,0-8.533-3.413-8.533-8.533c0-5.12,3.413-8.533,8.533-8.533   S161.133,181.613,161.133,186.733"/>
</g>
<g>
</g>
<g>
</g>
<g>
</g>
<g>
</g>
<g>
</g>
<g>
</g>
<g>
</g>
<g>
</g>
<g>
</g>
<g>
</g>
<g>
</g>
<g>
</g>
<g>
</g>
<g>
</g>
<g>
</g>
</svg>
