<?xml version="1.0" encoding="iso-8859-1"?>
<!-- Generator: Adobe Illustrator 19.0.0, SVG Export Plug-In . SVG Version: 6.00 Build 0)  -->
<svg xmlns="http://www.w3.org/2000/svg" xmlns:xlink="http://www.w3.org/1999/xlink" version="1.1" id="Layer_1" x="0px" y="0px" viewBox="0 0 512 512" style="enable-background:new 0 0 512 512;" xml:space="preserve">
<g transform="translate(1 1)">
	<path style="fill:#FFE100;" d="M502.467,255c0,136.533-110.933,247.467-247.467,247.467S7.533,391.533,7.533,255   S118.467,7.533,255,7.533S502.467,118.467,502.467,255"/>
	<path style="fill:#FFA800;" d="M255,7.533c-4.267,0-8.533,0-12.8,0C372.76,14.36,476.867,122.733,476.867,255   S372.76,495.64,242.2,502.467c4.267,0,8.533,0,12.8,0c136.533,0,247.467-110.933,247.467-247.467S391.533,7.533,255,7.533"/>
	<path style="fill:#FFFFFF;" d="M255,7.533c4.267,0,8.533,0,12.8,0C137.24,14.36,33.133,122.733,33.133,255   S137.24,495.64,267.8,502.467c-4.267,0-8.533,0-12.8,0C118.467,502.467,7.533,391.533,7.533,255S118.467,7.533,255,7.533"/>
	<path style="fill:#63D3FD;" d="M163.693,411.16c-23.893,5.973-43.52-17.92-34.133-40.107c21.333-48.64,69.12-81.92,125.44-81.92   c57.173,0,105.813,34.987,126.293,84.48c8.533,21.333-11.093,43.52-33.28,38.4C305.347,401.773,238.787,392.387,163.693,411.16"/>
	<path style="fill:#3DB9F9;" d="M380.44,373.613c-20.48-49.493-69.12-84.48-125.44-84.48c-4.267,0-8.533,0-12.8,0.853   c51.2,5.12,94.72,37.547,113.493,83.627c5.973,15.36-1.707,30.72-15.36,36.693c2.56,0.853,5.12,0.853,6.827,1.707   C370.2,417.133,389.827,394.947,380.44,373.613"/>
	<path style="fill:#63D3FD;" d="M186.733,186.733c0,18.773-15.36,34.133-34.133,34.133s-34.133-15.36-34.133-34.133   S133.827,152.6,152.6,152.6S186.733,167.96,186.733,186.733"/>
	<path style="fill:#3DB9F9;" d="M152.6,152.6c-4.267,0-8.533,0.853-12.8,2.56c12.8,5.12,21.333,17.067,21.333,31.573   c0,14.507-8.533,26.453-21.333,31.573c4.267,1.707,8.533,2.56,12.8,2.56c18.773,0,34.133-15.36,34.133-34.133   S171.373,152.6,152.6,152.6"/>
	<path style="fill:#63D3FD;" d="M391.533,186.733c0,18.773-15.36,34.133-34.133,34.133s-34.133-15.36-34.133-34.133   S338.627,152.6,357.4,152.6S391.533,167.96,391.533,186.733"/>
	<path style="fill:#3DB9F9;" d="M357.4,152.6c-4.267,0-8.533,0.853-12.8,2.56c12.8,5.12,21.333,17.067,21.333,31.573   c0,14.507-8.533,26.453-21.333,31.573c4.267,1.707,8.533,2.56,12.8,2.56c18.773,0,34.133-15.36,34.133-34.133   S376.173,152.6,357.4,152.6"/>
	<path d="M255,511C114.2,511-1,395.8-1,255S114.2-1,255-1s256,115.2,256,256S395.8,511,255,511z M255,16.067   C123.587,16.067,16.067,123.587,16.067,255S123.587,493.933,255,493.933S493.933,386.413,493.933,255S386.413,16.067,255,16.067z"/>
	<path d="M357.4,229.4c-23.893,0-42.667-18.773-42.667-42.667s18.773-42.667,42.667-42.667c23.893,0,42.667,18.773,42.667,42.667   S381.293,229.4,357.4,229.4z M357.4,161.133c-14.507,0-25.6,11.093-25.6,25.6s11.093,25.6,25.6,25.6s25.6-11.093,25.6-25.6   C383,172.227,371.907,161.133,357.4,161.133z"/>
	<path d="M152.6,229.4c-23.893,0-42.667-18.773-42.667-42.667s18.773-42.667,42.667-42.667s42.667,18.773,42.667,42.667   S176.493,229.4,152.6,229.4z M152.6,161.133c-14.507,0-25.6,11.093-25.6,25.6s11.093,25.6,25.6,25.6s25.6-11.093,25.6-25.6   C178.2,172.227,167.107,161.133,152.6,161.133z"/>
	<path d="M353.987,421.4c-2.56,0-5.973,0-8.533-0.853c-59.733-14.507-122.88-14.507-180.053-0.853   c-15.36,4.267-32.427-2.56-40.96-16.213c-6.827-11.093-7.68-23.893-2.56-35.84c23.04-52.907,75.093-87.04,133.12-87.04   c58.88,0,111.787,34.987,133.973,89.6c5.12,11.093,3.413,23.893-3.413,34.133C377.88,414.573,366.787,421.4,353.987,421.4z    M253.293,392.387c32.427,0,64.853,4.267,96.427,11.947c8.533,1.707,17.067-1.707,21.333-8.533   c3.413-5.12,4.267-11.947,1.707-17.92c-19.627-49.493-66.56-80.213-117.76-80.213s-97.28,29.867-116.907,76.8   c-2.56,6.827-2.56,13.653,1.707,19.627c5.12,7.68,13.653,11.093,22.187,8.533C191,395.8,221.72,392.387,253.293,392.387z"/>
	<path d="M383,135.533c-23.893,0-42.667-18.773-42.667-42.667c0-5.12,3.413-8.533,8.533-8.533s8.533,3.413,8.533,8.533   c0,14.507,11.093,25.6,25.6,25.6c5.12,0,8.533,3.413,8.533,8.533C391.532,132.119,388.12,135.533,383,135.533z"/>
	<path d="M127,135.533c-5.12,0-8.533-3.413-8.533-8.533s3.413-8.533,8.533-8.533c14.507,0,25.6-11.093,25.6-25.6   c0-5.12,3.413-8.533,8.533-8.533c5.12,0,8.533,3.413,8.533,8.533C169.667,116.76,150.893,135.533,127,135.533z"/>
	<path style="fill:#E4667F;" d="M289.133,357.4c-12.8,0-24.747,5.12-34.133,12.8c-9.387-8.533-21.333-12.8-34.133-12.8   c-28.16,0-51.2,23.04-51.2,51.2v0.853c68.267-15.36,129.707-8.533,170.667,0c0-0.853,0-0.853,0-1.707   C340.333,380.44,317.293,357.4,289.133,357.4"/>
	<path style="fill:#DD3859;" d="M289.133,355.693c-4.267,0-8.533,0.853-12.8,1.707c21.333,5.12,36.693,23.893,37.547,46.08   c9.387,1.707,17.92,3.413,25.6,5.12c0-0.853,0-0.853,0-1.707C340.333,378.733,317.293,355.693,289.133,355.693"/>
	<path d="M339.48,418.84c-0.853,0-0.853,0-1.707,0c-55.467-11.947-113.493-12.8-166.4,0c-2.56,0.853-5.12,0-6.827-1.707   s-3.413-4.267-3.413-6.827V408.6c0-33.28,26.453-59.733,59.733-59.733c11.947,0,23.893,3.413,34.133,11.093   c10.24-6.827,22.187-11.093,34.133-11.093c33.28,0,59.733,26.453,59.733,59.733c0,0.853,0,0.853,0,1.707   c0,2.56-1.707,5.12-3.413,6.827C343.747,417.987,342.04,418.84,339.48,418.84z M253.293,392.387c25.6,0,52.053,2.56,77.653,7.68   c-4.267-19.627-21.333-34.133-41.813-34.133c-10.24,0-20.48,4.267-28.16,11.093c-3.413,2.56-8.533,2.56-11.093,0   c-8.533-6.827-18.773-11.093-29.013-11.093c-20.48,0-37.547,14.507-41.813,33.28C202.947,394.093,227.693,392.387,253.293,392.387z   "/>
</g>
<g>
</g>
<g>
</g>
<g>
</g>
<g>
</g>
<g>
</g>
<g>
</g>
<g>
</g>
<g>
</g>
<g>
</g>
<g>
</g>
<g>
</g>
<g>
</g>
<g>
</g>
<g>
</g>
<g>
</g>
</svg>
