<?xml version="1.0" encoding="iso-8859-1"?>
<!-- Generator: Adobe Illustrator 19.0.0, SVG Export Plug-In . SVG Version: 6.00 Build 0)  -->
<svg xmlns="http://www.w3.org/2000/svg" xmlns:xlink="http://www.w3.org/1999/xlink" version="1.1" id="Layer_1" x="0px" y="0px" viewBox="0 0 512 512" style="enable-background:new 0 0 512 512;" xml:space="preserve">
<g transform="translate(1 1)">
	<path style="fill:#FFE100;" d="M502.467,255c0,136.533-110.933,247.467-247.467,247.467S7.533,391.533,7.533,255   S118.467,7.533,255,7.533S502.467,118.467,502.467,255"/>
	<path style="fill:#FFA800;" d="M255,7.533c-4.267,0-8.533,0-12.8,0C372.76,14.36,476.867,122.733,476.867,255   S372.76,495.64,242.2,502.467c4.267,0,8.533,0,12.8,0c136.533,0,247.467-110.933,247.467-247.467S391.533,7.533,255,7.533"/>
	<path style="fill:#FFFFFF;" d="M255,7.533c4.267,0,8.533,0,12.8,0C137.24,14.36,33.133,122.733,33.133,255   S137.24,495.64,267.8,502.467c-4.267,0-8.533,0-12.8,0C118.467,502.467,7.533,391.533,7.533,255S118.467,7.533,255,7.533"/>
	<path style="fill:#63D3FD;" d="M138.947,280.6c-9.387,0-14.507,10.24-9.387,17.92c27.307,40.96,72.533,67.413,125.44,67.413   s98.133-26.453,126.293-67.413c5.12-7.68,0-17.92-9.387-17.92H138.947L138.947,280.6z"/>
	<path style="fill:#3DB9F9;" d="M371.907,280.6h-25.6c9.387,0,14.507,10.24,9.387,17.92c-25.6,37.547-65.707,63.147-113.493,66.56   c4.267,0,8.533,0.853,12.8,0.853c52.907,0,98.133-26.453,126.293-67.413C386.413,290.84,380.44,280.6,371.907,280.6"/>
	<path d="M255,511C114.2,511-1,395.8-1,255S114.2-1,255-1s256,115.2,256,256S395.8,511,255,511z M255,16.067   C123.587,16.067,16.067,123.587,16.067,255S123.587,493.933,255,493.933S493.933,386.413,493.933,255S386.413,16.067,255,16.067z"/>
	<path d="M186.733,186.733c-5.12,0-8.533-3.413-8.533-8.533c0-14.507-11.093-25.6-25.6-25.6S127,163.693,127,178.2   c0,5.12-3.413,8.533-8.533,8.533s-8.533-3.413-8.533-8.533c0-23.893,18.773-42.667,42.667-42.667s42.667,18.773,42.667,42.667   C195.267,183.32,191.853,186.733,186.733,186.733z"/>
	<path d="M391.533,186.733c-5.12,0-8.533-3.413-8.533-8.533c0-14.507-11.093-25.6-25.6-25.6s-25.6,11.093-25.6,25.6   c0,5.12-3.413,8.533-8.533,8.533s-8.533-3.413-8.533-8.533c0-23.893,18.773-42.667,42.667-42.667   c23.893,0,42.667,18.773,42.667,42.667C400.067,183.32,396.653,186.733,391.533,186.733z"/>
	<path d="M255,374.467c-52.907,0-103.253-26.453-133.12-70.827c-4.267-5.973-4.267-14.507-0.853-20.48   c3.413-6.827,10.24-10.24,17.92-10.24h232.96c7.68,0,14.507,4.267,17.92,10.24c3.413,6.827,3.413,14.507-0.853,20.48   C358.253,348.013,307.907,374.467,255,374.467z M138.947,289.133c-1.707,0-2.56,0.853-2.56,1.707c0,0.853-0.853,1.707,0,3.413   C162.84,333.507,207.213,357.4,255,357.4s92.16-23.893,118.613-63.147c0.853-1.707,0.853-2.56,0-3.413   c0-0.853-0.853-1.707-2.56-1.707H138.947L138.947,289.133z"/>
</g>
<g>
</g>
<g>
</g>
<g>
</g>
<g>
</g>
<g>
</g>
<g>
</g>
<g>
</g>
<g>
</g>
<g>
</g>
<g>
</g>
<g>
</g>
<g>
</g>
<g>
</g>
<g>
</g>
<g>
</g>
</svg>
