<?xml version="1.0" encoding="iso-8859-1"?>
<!-- Generator: Adobe Illustrator 19.0.0, SVG Export Plug-In . SVG Version: 6.00 Build 0)  -->
<svg version="1.1" id="Capa_1" xmlns="http://www.w3.org/2000/svg" xmlns:xlink="http://www.w3.org/1999/xlink" x="0px" y="0px"
	 viewBox="0 0 512 512" style="enable-background:new 0 0 512 512;" xml:space="preserve">
<g>
	<g>
		<path style="fill:#FB7B76;" d="M167.724,494.168v0.177c0,0.441-0.088,0.794-0.088,1.148c-0.045,0.711-0.133,1.418-0.265,2.119
			c-0.106,0.54-0.253,1.072-0.441,1.589c-0.105,0.569-0.252,1.13-0.441,1.677c-0.264,0.53-0.529,0.971-0.794,1.501
			c-0.265,0.53-0.53,1.059-0.795,1.501c-0.352,0.53-0.706,0.971-1.058,1.412c-0.331,0.43-0.685,0.843-1.06,1.236
			c-0.529,0.53-1.058,0.971-1.588,1.412c-0.274,0.286-0.57,0.552-0.884,0.794c-0.023,0-0.046,0.009-0.063,0.025
			s-0.025,0.039-0.025,0.063c-1.371,0.898-2.855,1.611-4.414,2.119c-0.308,0.156-0.634,0.275-0.971,0.353
			c-1.518,0.456-3.093,0.694-4.679,0.706H97.103c-9.751,0-17.655-7.905-17.655-17.655s7.904-17.655,17.655-17.655h18.626
			l-24.188-33.898c-2.728-3.903-3.806-8.725-3.001-13.418c0.886-4.69,3.622-8.826,7.592-11.476l47.051-31.338
			c5.758,10.48,13.563,19.696,22.953,27.101l-35.222,23.481l33.544,46.963c0,0.088,0.088,0.088,0.088,0.177
			c0.375,0.559,0.7,1.149,0.971,1.766l0.795,1.324c0.176,0.441,0.264,0.971,0.441,1.501c0.228,0.572,0.405,1.163,0.529,1.766
			c0.102,0.405,0.161,0.819,0.177,1.236C167.596,492.632,167.684,493.398,167.724,494.168z"/>
		<path style="fill:#FB7B76;" d="M432.552,494.345c-0.029,9.739-7.916,17.627-17.655,17.655h-53.054
			c-1.585-0.012-3.161-0.25-4.679-0.706c-0.337-0.078-0.663-0.197-0.971-0.353c-1.559-0.508-3.043-1.22-4.414-2.119
			c0.001-0.023-0.008-0.046-0.025-0.063s-0.039-0.026-0.063-0.025c-0.314-0.242-0.609-0.508-0.884-0.794
			c-0.53-0.441-1.059-0.883-1.588-1.412c-0.375-0.393-0.729-0.806-1.06-1.236c-0.352-0.441-0.706-0.883-1.058-1.412
			c-0.265-0.441-0.53-0.971-0.795-1.501c-0.265-0.53-0.53-0.971-0.794-1.501c-0.188-0.547-0.336-1.108-0.441-1.677
			c-0.188-0.517-0.335-1.049-0.441-1.589c-0.132-0.7-0.22-1.408-0.265-2.119c0-0.353-0.088-0.706-0.088-1.148v-0.177
			c0.04-0.77,0.128-1.536,0.265-2.295c0.015-0.417,0.075-0.831,0.177-1.236c0.124-0.603,0.301-1.194,0.529-1.766
			c0.177-0.53,0.265-1.059,0.441-1.501l0.795-1.324c0.271-0.616,0.596-1.207,0.971-1.766c0-0.088,0.088-0.088,0.088-0.177
			l33.544-46.963l-35.222-23.481c9.389-7.405,17.194-16.621,22.952-27.101l47.051,31.338c3.97,2.65,6.706,6.786,7.592,11.476
			c0.805,4.693-0.274,9.515-3.001,13.418L396.27,476.69h18.626C424.635,476.718,432.523,484.606,432.552,494.345z"/>
	</g>
	<g>
		<path style="fill:#F0C419;" d="M408.364,209.479c15.625,10.681,41.225,34.339,30.455,70.444c0,0-28.69-31.338-50.406-28.16
			H123.586c-21.716-3.178-50.406,28.16-50.406,28.16c-10.77-36.105,14.83-59.763,30.455-70.444H408.364z"/>
		<path style="fill:#F0C419;" d="M388.59,128.265c6.179-23.746,56.585-25.423,56.585-25.423
			C416.397,58.35,359.724,84.48,359.724,84.48l-4.502-3.266c-0.971-22.51,36.988-45.903,36.988-45.903
			c-46.963-24.364-83.244,26.483-83.244,26.483C291.31,44.138,317.793,0,317.793,0C264.828,0,256,61.793,256,61.793
			S247.172,0,194.207,0c0,0,26.483,44.138,8.828,61.793c0,0-36.281-50.847-83.244-26.483c0,0,37.959,23.393,36.988,45.903
			l-4.502,3.266c0,0-56.673-26.13-85.451,18.361c0,0,50.406,1.677,56.585,25.423H388.59z"/>
	</g>
	<path style="fill:#CC4B4C;" d="M388.414,233.754v110.521c0.018,14.775-3.686,29.317-10.77,42.284
		c-5.758,10.48-13.563,19.696-22.953,27.101c-15.538,12.26-34.761,18.917-54.554,18.891h-88.276
		c-19.793,0.026-39.015-6.63-54.554-18.891c-9.389-7.405-17.194-16.621-22.952-27.101c-7.084-12.967-10.787-27.509-10.77-42.284
		V233.754l3.443-108.138c10.922-37.783,45.503-63.8,84.833-63.823h88.276c39.33,0.024,73.911,26.04,84.833,63.823L388.414,233.754z"
		/>
	<path style="fill:#894B9D;" d="M229.517,180.966c0.043,12.305-3.417,24.369-9.975,34.781
		c-6.531-36.848-37.901-64.136-75.299-65.501c-0.993-0.149-1.998-0.208-3.002-0.177c-14.543-0.006-28.806,3.995-41.224,11.564
		c9.568-31.361,40.654-50.99,73.082-46.149S229.525,148.178,229.517,180.966z"/>
	<path style="fill:#E6E7E8;" d="M219.542,215.746c-15.532,25.189-45.905,36.995-74.371,28.909s-48.097-34.097-48.067-63.69
		c-0.03-6.556,0.953-13.077,2.914-19.332c12.418-7.569,26.681-11.57,41.224-11.564c1.004-0.032,2.009,0.027,3.002,0.177
		c-7.547,6.656-11.859,16.243-11.83,26.306c-0.019,18.947,14.932,34.525,33.864,35.284c18.931,0.759,35.082-13.572,36.58-32.459
		C211.427,189.88,217.17,202.4,219.542,215.746z"/>
	<path style="fill:#2C2F38;" d="M202.858,179.377c-1.249,15.828-12.918,28.872-28.51,31.869
		c-15.592,2.996-31.265-4.793-38.292-19.031c-7.027-14.238-3.676-31.416,8.187-41.969
		C167.078,151.013,188.458,161.639,202.858,179.377z"/>
	<path style="fill:#894B9D;" d="M411.983,161.633c-12.418-7.569-26.681-11.57-41.224-11.564c-1.004-0.032-2.009,0.027-3.002,0.177
		c-37.397,1.365-68.767,28.653-75.299,65.501c-6.558-10.412-10.018-22.475-9.975-34.781c-0.008-32.788,23.989-60.64,56.418-65.482
		S402.414,130.272,411.983,161.633z"/>
	<path style="fill:#E6E7E8;" d="M414.897,180.966c0.03,29.592-19.601,55.603-48.067,63.69s-58.84-3.72-74.371-28.909
		c2.372-13.347,8.115-25.866,16.684-36.37c1.249,15.828,12.918,28.872,28.51,31.869c15.592,2.996,31.265-4.793,38.292-19.031
		c7.027-14.238,3.676-31.416-8.187-41.969c0.993-0.149,1.998-0.208,3.002-0.177c14.543-0.006,28.806,3.995,41.224,11.564
		C413.944,167.889,414.927,174.41,414.897,180.966z"/>
	<path style="fill:#2C2F38;" d="M379.586,176.552c0.019,18.947-14.932,34.525-33.864,35.284
		c-18.931,0.759-35.082-13.572-36.58-32.459c14.4-17.738,35.78-28.364,58.614-29.131
		C375.304,156.902,379.615,166.489,379.586,176.552z"/>
	<path style="fill:#FB7B76;" d="M158.897,291.31h194.207c19.501,0,35.31,15.809,35.31,35.31l0,0c0,19.501-15.809,35.31-35.31,35.31
		H158.897c-19.501,0-35.31-15.809-35.31-35.31l0,0C123.586,307.119,139.395,291.31,158.897,291.31z"/>
	<path style="fill:#2C2F38;" d="M344.276,335.448H167.724c-4.875,0-8.828-3.952-8.828-8.828s3.952-8.828,8.828-8.828h176.552
		c4.875,0,8.828,3.952,8.828,8.828S349.151,335.448,344.276,335.448z"/>
	<path style="fill:#894B9D;" d="M264.828,397.241v35.31h-17.655v-35.31c0-4.875,3.952-8.828,8.828-8.828
		S264.828,392.366,264.828,397.241z"/>
	<g>
		<path style="fill:#2C2F38;" d="M229.517,264.828c-3.57-0.001-6.788-2.152-8.154-5.45c-1.366-3.298-0.611-7.094,1.913-9.619
			l8.828-8.828c3.456-3.394,9.001-3.369,12.426,0.056c3.425,3.425,3.45,8.97,0.056,12.426l-8.828,8.828
			C234.105,263.899,231.859,264.83,229.517,264.828z"/>
		<path style="fill:#2C2F38;" d="M282.483,264.828c-2.342,0.003-4.588-0.928-6.241-2.586l-8.828-8.828
			c-2.264-2.223-3.16-5.49-2.348-8.556c0.812-3.067,3.207-5.462,6.274-6.274c3.067-0.812,6.333,0.085,8.556,2.348l8.828,8.828
			c2.524,2.525,3.279,6.321,1.913,9.619C289.271,262.676,286.053,264.827,282.483,264.828z"/>
	</g>
</g>
<g>
</g>
<g>
</g>
<g>
</g>
<g>
</g>
<g>
</g>
<g>
</g>
<g>
</g>
<g>
</g>
<g>
</g>
<g>
</g>
<g>
</g>
<g>
</g>
<g>
</g>
<g>
</g>
<g>
</g>
</svg>
