<?xml version="1.0" encoding="iso-8859-1"?>
<!-- Generator: Adobe Illustrator 19.0.0, SVG Export Plug-In . SVG Version: 6.00 Build 0)  -->
<svg version="1.1" id="Capa_1" xmlns="http://www.w3.org/2000/svg" xmlns:xlink="http://www.w3.org/1999/xlink" x="0px" y="0px"
	 viewBox="0 0 512 512" style="enable-background:new 0 0 512 512;" xml:space="preserve">
<g>
	<g>
		<path style="fill:#95A5A5;" d="M432.596,485.429c-0.582,5.576-3.888,10.502-8.828,13.153c-2.777,1.903-5.733,3.529-8.828,4.855
			c-0.177,0.088-0.441,0.177-0.618,0.265c-4.918,2.036-9.997,3.66-15.183,4.855c-6.375,1.387-12.832,2.36-19.332,2.913
			c-1.501,0.088-3.178,0.177-4.767,0.265c-1.412,0.088-2.825,0.177-4.237,0.177C369.479,512,368.066,512,366.654,512h-1.677
			c-1.501,0-3.001-0.088-4.502-0.088c-2.472-0.088-4.943-0.265-7.327-0.441c-5.902-0.493-11.769-1.348-17.567-2.56
			c-2.383-0.441-4.767-1.059-6.974-1.677c-6.819-1.756-13.315-4.587-19.244-8.386c-1.053-0.694-2.056-1.461-3.001-2.295
			c-3.616-2.6-5.882-6.679-6.179-11.123c0.005-0.325,0.035-0.65,0.088-0.971c0.265-2.472,0.883-9.622,1.412-20.392h-91.277
			c0.53,10.77,1.148,17.92,1.412,20.392c0.053,0.321,0.083,0.646,0.088,0.971c-0.297,4.444-2.563,8.523-6.179,11.123
			c-6.564,5.113-14.151,8.756-22.246,10.681c-2.207,0.618-4.59,1.236-6.974,1.677c-5.798,1.212-11.664,2.067-17.567,2.56
			c-4.237,0.353-8.739,0.53-13.241,0.53h-0.265c-1.412,0-2.824,0-4.149-0.088c-1.412,0-2.825-0.088-4.237-0.177
			c-1.589-0.088-3.266-0.177-4.767-0.265c-6.5-0.553-12.958-1.526-19.332-2.913h-0.088c-5.158-1.195-10.208-2.819-15.095-4.855
			c-0.177-0.088-0.441-0.177-0.618-0.265c-10.946-4.767-17.655-11.123-17.655-18.008c-0.02-27.279,4.515-54.37,13.418-80.155
			h326.268C428.074,431.061,432.609,458.151,432.596,485.429z"/>
		<path style="fill:#95A5A5;" d="M167.768,87.834c-4.061,2.913-8.033,6.003-11.917,9.181l-60.116,70.268
			c-22.433,34.704-36.514,74.136-41.137,115.2h-0.53c-65.059-26.041-39.018-80.772-20.833-107.785
			c-12.623-5.826-43.52-25.512-3.443-68.767C75.785,56.32,157.528,84.127,167.768,87.834z"/>
		<path style="fill:#95A5A5;" d="M478.764,174.698c18.185,27.012,44.226,81.743-20.833,107.785h-0.53
			c-4.623-41.064-18.704-80.496-41.137-115.2l-60.116-70.268c-3.884-3.178-7.768-6.268-11.829-9.181
			c10.505-3.796,91.983-31.426,137.887,18.097C522.284,149.186,491.388,168.872,478.764,174.698z"/>
	</g>
	<path style="fill:#7F8C8D;" d="M467.906,295.018c0,95.426-94.897,172.844-211.862,172.844S44.182,390.444,44.182,295.018
		c0-4.061,0.177-8.21,0.53-12.535c4.06-37.264,16.095-73.218,35.286-105.418c3.835-6.545,8.273-12.718,13.256-18.438l44.42-51.921
		c5.919-7.043,12.663-13.349,20.086-18.784l0.122-0.088c16.739-12.469,35.447-22.047,55.349-28.337
		c3.266-0.971,6.621-1.942,9.975-2.737h0.088C234.863,33.772,252.239,14.205,273.699,0c-5.017,13.695-7.674,28.142-7.857,42.726
		c12.638-15.803,31.76-25.023,51.994-25.07c-8.685,12.845-13.775,27.78-14.742,43.255c18.314,6.308,35.552,15.389,51.112,26.924
		h0.088l0.228,0.164c7.295,5.368,13.922,11.588,19.74,18.53l44.572,52.099c4.983,5.72,9.421,11.893,13.256,18.438
		c19.191,32.2,31.225,68.154,35.286,105.418C467.73,286.808,467.906,290.957,467.906,295.018z"/>
	<g>
		<path style="fill:#E6E7E8;" d="M120.099,483.752c-5.01,4.456-7.12,11.332-5.473,17.832c0.466,2.458-0.145,4.997-1.677,6.974
			h-0.088c-5.158-1.195-10.208-2.819-15.095-4.855c-0.177-0.088-0.441-0.177-0.618-0.265c-2.38-12.727,2.396-25.736,12.447-33.898
			c3.964-2.815,9.449-1.953,12.359,1.942C124.79,475.391,123.965,480.854,120.099,483.752z"/>
		<path style="fill:#E6E7E8;" d="M165.297,491.697c-4.397,5.629-6.65,12.637-6.356,19.774c-4.237,0.353-8.739,0.53-13.241,0.53
			h-0.265c-1.412,0-2.824,0-4.149-0.088c-0.48-11.937,3.59-23.611,11.388-32.662c3.446-3.438,9.019-3.454,12.485-0.037
			S168.686,488.203,165.297,491.697z"/>
		<path style="fill:#E6E7E8;" d="M414.941,503.437c-0.177,0.088-0.441,0.177-0.618,0.265c-4.918,2.036-9.997,3.66-15.183,4.855
			c-1.532-1.977-2.143-4.516-1.677-6.974c1.626-6.499-0.481-13.364-5.473-17.832c-3.819-2.982-4.564-8.466-1.677-12.359
			c2.884-3.823,8.292-4.646,12.182-1.854C412.544,477.702,417.321,490.71,414.941,503.437z"/>
		<path style="fill:#E6E7E8;" d="M370.803,511.912C369.479,512,368.066,512,366.654,512h-1.677c-1.501,0-3.001-0.088-4.502-0.088
			c-2.472-0.088-4.943-0.265-7.327-0.441c0.294-7.136-1.959-14.145-6.356-19.774c-3.281-3.542-3.164-9.048,0.265-12.447
			c3.437-3.354,8.922-3.354,12.359,0C367.213,488.301,371.283,499.975,370.803,511.912z"/>
	</g>
	<g>
		<path style="fill:#FFFFFF;" d="M141.286,197.819c4.129,21.122,21.556,37.078,42.959,39.335
			c21.403,2.257,41.774-9.715,50.217-29.511c8.443-19.796,2.983-42.785-13.46-56.67
			C162.102,143.413,145.081,185.426,141.286,197.819z"/>
		<path style="fill:#FFFFFF;" d="M291.087,150.972c-16.872,13.828-22.643,37.104-14.183,57.212s29.135,32.258,50.818,29.864
			c21.683-2.394,39.21-18.761,43.08-40.23C367.007,185.426,349.986,143.413,291.087,150.972z"/>
	</g>
	<g>
		<path style="fill:#2C3E50;" d="M194.251,203.034h-8.828c-4.875,0-8.828-3.952-8.828-8.828s3.952-8.828,8.828-8.828h8.828
			c4.875,0,8.828,3.952,8.828,8.828S199.126,203.034,194.251,203.034z"/>
		<path style="fill:#2C3E50;" d="M326.665,203.034h-8.828c-4.875,0-8.828-3.952-8.828-8.828s3.952-8.828,8.828-8.828h8.828
			c4.875,0,8.828,3.952,8.828,8.828S331.54,203.034,326.665,203.034z"/>
		<path style="fill:#2C3E50;" d="M379.63,308.966c-2.287,0.003-4.486-0.884-6.129-2.474c-0.552-0.487-16.561-14.241-64.922-16.603
			l-105.5,0.009c-48.561,2.383-64.353,16.466-64.509,16.608c-3.542,3.267-9.039,3.13-12.414-0.31
			c-3.345-3.426-3.318-8.904,0.061-12.297c1.931-1.927,20.448-18.905,76.431-21.647l106.362-0.009
			c56.414,2.75,74.931,19.729,76.862,21.655c2.524,2.525,3.279,6.321,1.913,9.619C386.418,306.814,383.2,308.965,379.63,308.966z"/>
		<path style="fill:#2C3E50;" d="M115.165,335.448c-2.686,0.004-5.228-1.216-6.905-3.315
			c-15.543-19.431-22.215-37.095-19.828-52.487c1.173-8.837,5.859-16.827,13-22.164c4.03-2.679,9.466-1.614,12.187,2.389
			c2.72,4.003,1.71,9.449-2.264,12.21c-3.155,2.733-5.139,6.574-5.543,10.728c-0.931,7.047,1.129,19.409,16.241,38.297
			c2.118,2.649,2.531,6.277,1.063,9.335S118.556,335.446,115.165,335.448z"/>
		<path style="fill:#2C3E50;" d="M396.924,335.448c-3.392-0.003-6.482-1.948-7.951-5.006c-1.469-3.057-1.055-6.686,1.063-9.335
			c15.362-19.198,17.276-31.672,16.172-38.754c-0.479-3.932-2.38-7.553-5.345-10.181c-4.012-2.721-5.078-8.169-2.389-12.202
			c2.689-4.033,8.128-5.144,12.183-2.487c7.141,5.336,11.827,13.327,13,22.164c2.388,15.392-4.284,33.056-19.828,52.487
			C402.152,334.232,399.61,335.452,396.924,335.448z"/>
	</g>
	<path style="fill:#95A5A5;" d="M247.758,229.517c-21.661-0.137-40.179,15.56-43.591,36.951c-0.728,4.919-1.092,9.885-1.088,14.858
		c-0.072,11.074,1.81,22.074,5.561,32.494c-1.935,1.186-3.714,2.61-5.297,4.237c-5.548,5.472-8.794,12.86-9.071,20.648
		c0.042,8.584,3.508,16.797,9.63,22.815c6.122,6.018,14.392,9.343,22.976,9.238h60.062c13.747,0.022,25.849-9.055,29.677-22.258
		c3.828-13.203-1.543-27.345-13.169-34.68c3.751-10.42,5.634-21.42,5.561-32.494c0.003-4.973-0.36-9.939-1.089-14.858
		c-3.412-21.391-21.929-37.088-43.59-36.951H247.758z"/>
</g>
<g>
</g>
<g>
</g>
<g>
</g>
<g>
</g>
<g>
</g>
<g>
</g>
<g>
</g>
<g>
</g>
<g>
</g>
<g>
</g>
<g>
</g>
<g>
</g>
<g>
</g>
<g>
</g>
<g>
</g>
</svg>
