<?xml version="1.0" encoding="iso-8859-1"?>
<!-- Generator: Adobe Illustrator 19.0.0, SVG Export Plug-In . SVG Version: 6.00 Build 0)  -->
<svg version="1.1" id="Capa_1" xmlns="http://www.w3.org/2000/svg" xmlns:xlink="http://www.w3.org/1999/xlink" x="0px" y="0px"
	 viewBox="0 0 512.028 512.028" style="enable-background:new 0 0 512.028 512.028;" xml:space="preserve">
<g transform="translate(0 -1)">
	<path style="fill:#CC66A1;" d="M235.818,64.79c-51.739,6.467-92.429,45.002-97.729,93.328
		c-43.475-31.528-37.277-100.514-28.385-143.001c1.36-6.329,6.036-11.427,12.223-13.328s12.92-0.307,17.598,4.166
		C168.091,32.722,215.877,55.807,235.818,64.79z"/>
	<path style="fill:#FF5364;" d="M185.247,83.294c-14.201,9.242-26.02,21.706-34.493,36.379h-0.09
		c-11.318-16.438-12.665-41.589-10.42-65.392C154.608,64.905,169.64,74.597,185.247,83.294z"/>
	<path style="fill:#CC66A1;" d="M373.878,158.207c-5.21-48.236-45.811-86.86-97.46-93.328c19.941-9.252,67.548-32.157,96.112-58.925
		c4.679-4.474,11.411-6.067,17.598-4.166s10.864,7,12.223,13.328C411.245,57.604,417.353,126.589,373.878,158.207z"/>
	<path style="fill:#FF5364;" d="M361.302,119.672c-8.533-14.657-20.376-27.115-34.582-36.379
		c15.649-8.675,30.712-18.366,45.092-29.013C373.967,78.084,372.62,103.235,361.302,119.672z"/>
	<path style="fill:#955BA5;" d="M466.653,370.818c-17.397,13.998-42.555,12.603-58.296-3.234l-21.827-22.726v52.907
		c0.018,13.194-1.368,26.352-4.132,39.253l-9.342,43.295c-5.505,19.349-23.179,32.696-43.295,32.696s-37.791-13.347-43.295-32.696
		l-10.509-48.685c-2.119-8.444-9.8-14.298-18.504-14.102l-2.874,0.09c-8.687-0.234-16.374,5.588-18.504,14.013l-10.509,48.685
		c-5.01,19.683-22.994,33.264-43.296,32.696c-20.293,0.539-38.261-13.03-43.295-32.696l-9.342-43.295
		c-2.764-12.901-4.15-26.059-4.132-39.253v-52.907l-21.827,22.726c-15.742,15.837-40.9,17.232-58.296,3.234
		c-8.133-6.347-13.168-15.867-13.837-26.162c-0.669-10.295,3.091-20.386,10.334-27.733l83.627-87.13V159.91
		c-0.017-3.573,0.193-7.143,0.629-10.689v-0.09c1.52-13.552,5.832-26.643,12.665-38.445c8.473-14.673,20.291-27.137,34.493-36.379
		c15.223-9.949,32.522-16.278,50.571-18.504c5.07-0.573,10.168-0.873,15.27-0.898h33.774c5.136,0.01,10.266,0.34,15.36,0.988h0.18
		c17.959,2.195,35.17,8.496,50.302,18.414c14.207,9.264,26.049,21.722,34.582,36.379v0.09c6.805,11.808,11.087,24.898,12.575,38.445
		c0.436,3.546,0.646,7.116,0.629,10.689v69.883l83.627,87.13c7.243,7.347,11.003,17.438,10.334,27.733
		C479.82,354.952,474.786,364.471,466.653,370.818z"/>
	<ellipse style="fill:#FFFFFF;" cx="211.102" cy="171.677" rx="41.229" ry="26.947"/>
	<g>
		<path style="fill:#3D324C;" d="M345.839,153.712c-0.006,6.175-1.259,12.286-3.683,17.965
			c-7.174-16.371-23.355-26.947-41.229-26.947s-34.055,10.575-41.229,26.947c-2.424-5.679-3.677-11.79-3.683-17.965
			c0-24.804,20.108-44.912,44.912-44.912C325.731,108.8,345.839,128.908,345.839,153.712z"/>
		<path style="fill:#3D324C;" d="M256.014,153.712c-0.006,6.175-1.259,12.286-3.683,17.965
			c-7.174-16.371-23.355-26.947-41.229-26.947s-34.055,10.575-41.229,26.947c-2.424-5.679-3.677-11.79-3.683-17.965
			c0-24.804,20.108-44.912,44.912-44.912S256.014,128.908,256.014,153.712z"/>
	</g>
	<ellipse style="fill:#FFFFFF;" cx="300.926" cy="171.677" rx="41.229" ry="26.947"/>
	<g>
		<path style="fill:#2C3E50;" d="M211.102,198.625c-4.961,0-8.982-4.022-8.982-8.982v-8.982c0-4.961,4.022-8.982,8.982-8.982
			c4.961,0,8.982,4.022,8.982,8.982v8.982C220.084,194.603,216.063,198.625,211.102,198.625z"/>
		<path style="fill:#2C3E50;" d="M300.926,198.625c-4.961,0-8.982-4.022-8.982-8.982v-8.982c0-4.961,4.022-8.982,8.982-8.982
			s8.982,4.022,8.982,8.982v8.982C309.909,194.603,305.887,198.625,300.926,198.625z"/>
	</g>
	<g>
		<path style="fill:#F5EFCA;" d="M229.067,278.569v-26.049c0-9.922-8.043-17.965-17.965-17.965s-17.965,8.043-17.965,17.965v20.749"
			/>
		<path style="fill:#F5EFCA;" d="M318.891,273.269v-20.749c0-9.922-8.043-17.965-17.965-17.965s-17.965,8.043-17.965,17.965v26.049"
			/>
	</g>
	<path style="fill:#FF5364;" d="M327.874,366.221c0,15.114-32.173,11.729-71.86,11.729s-71.86,3.386-71.86-11.729
		s32.173-50.824,71.86-50.824S327.874,351.107,327.874,366.221z"/>
	<path style="fill:#2C3E50;" d="M357.26,243.875c-4.773-1.339-9.73,1.437-11.083,6.206c-0.057,0.206-12.044,20.403-90.162,20.403
		c-77.579,0-89.649-19.693-90.342-20.969c-1.623-4.562-6.571-7.017-11.186-5.548c-4.615,1.468-7.235,6.33-5.924,10.992
		c1.579,5.591,14.171,33.491,107.452,33.491s105.873-27.9,107.452-33.491c0.647-2.293,0.357-4.749-0.807-6.827
		C361.495,246.052,359.553,244.521,357.26,243.875z"/>
</g>
<g>
</g>
<g>
</g>
<g>
</g>
<g>
</g>
<g>
</g>
<g>
</g>
<g>
</g>
<g>
</g>
<g>
</g>
<g>
</g>
<g>
</g>
<g>
</g>
<g>
</g>
<g>
</g>
<g>
</g>
</svg>
