<?xml version="1.0" encoding="iso-8859-1"?>
<!-- Generator: Adobe Illustrator 19.0.0, SVG Export Plug-In . SVG Version: 6.00 Build 0)  -->
<svg version="1.1" id="Capa_1" xmlns="http://www.w3.org/2000/svg" xmlns:xlink="http://www.w3.org/1999/xlink" x="0px" y="0px"
	 viewBox="0 0 511.983 511.983" style="enable-background:new 0 0 511.983 511.983;" xml:space="preserve">
<g>
	<g>
		<path style="fill:#59474E;" d="M130.237,423.145v52.907c-9.91,0.029-17.936,8.055-17.965,17.965v-17.965
			c-0.071-9.892-8.073-17.894-17.965-17.965c-9.91,0.029-17.936,8.055-17.965,17.965c-0.071-9.892-8.073-17.894-17.965-17.965
			c-9.91,0.029-17.936,8.055-17.965,17.965v17.965c-0.071-9.892-8.073-17.894-17.965-17.965c-3.155,0.003-6.254,0.84-8.982,2.425
			v-83.267c-0.008-36.254,26.991-66.836,62.967-71.321C78.516,363.385,98.279,399.842,130.237,423.145z"/>
		<path style="fill:#59474E;" d="M498.518,395.209v83.267c-2.728-1.585-5.827-2.422-8.982-2.425
			c-9.892,0.071-17.894,8.073-17.965,17.965v-17.965c-0.029-9.91-8.055-17.936-17.965-17.965
			c-9.892,0.071-17.894,8.073-17.965,17.965c-0.029-9.91-8.055-17.936-17.965-17.965c-9.892,0.071-17.894,8.073-17.965,17.965
			v17.965c-0.029-9.91-8.055-17.936-17.965-17.965v-52.907c31.958-23.302,51.721-59.76,53.805-99.256
			C471.526,328.373,498.526,358.955,498.518,395.209z"/>
		<path style="fill:#59474E;" d="M139.219,134.628c-6.198,11.138-12.036,22.636-17.426,34.313l-1.437-0.719
			c-7.716-13.111-23.719-18.807-37.984-13.52c-14.265,5.287-22.689,20.037-19.996,35.01c2.693,14.973,15.73,25.863,30.943,25.848
			c1.292,0,2.583-0.09,3.862-0.269h5.749c-4.491,12.575-8.354,24.792-11.587,36.559l-1.976-0.539
			c-29.535-1.654-54.531-22.391-61.61-51.113s5.418-58.7,30.802-73.89s57.709-12.032,79.673,7.782L139.219,134.628z"/>
	</g>
	<g>
		<path style="fill:#FB7B76;" d="M121.794,168.941c-7.096,15.45-13.384,31.079-18.863,46.349h-5.749
			c-1.28,0.179-2.57,0.269-3.862,0.269c-15.241,0.041-28.317-10.856-31.024-25.855c-2.707-14.999,5.735-29.779,20.03-35.068
			s30.324,0.437,38.031,13.586L121.794,168.941z"/>
		<path style="fill:#FB7B76;" d="M450.102,184.121c-0.019,17.355-14.083,31.419-31.439,31.439c-2.576-0.008-5.142-0.34-7.635-0.988
			l-1.976,0.719c-5.479-15.27-11.767-30.9-18.863-46.349l1.437-0.719c7.16-12.242,21.64-18.161,35.325-14.44
			C440.637,157.503,450.127,169.939,450.102,184.121z"/>
	</g>
	<path style="fill:#59474E;" d="M486.032,184.121c0.014,35.666-27.809,65.144-63.416,67.189l-1.976,0.539
		c-3.234-11.767-7.096-23.983-11.587-36.559l1.976-0.719c2.493,0.649,5.059,0.98,7.635,0.988
		c15.241,0.041,28.317-10.856,31.024-25.855s-5.735-29.779-20.03-35.068s-30.323,0.437-38.031,13.586l-1.437,0.719
		c-5.389-11.677-11.228-23.175-17.426-34.313l0.988-0.539c12.287-11.174,28.304-17.357,44.912-17.336
		C455.865,116.766,486.019,146.92,486.032,184.121z"/>
	<path style="fill:#AF8066;" d="M433.125,251.849c-3.234-11.767-7.096-23.983-11.587-36.559c-5.479-15.27-11.767-30.9-18.863-46.349
		c-5.389-11.677-11.228-23.175-17.426-34.313c-8.774-16.064-18.711-31.465-29.732-46.08v-0.09
		c10.42-17.067,53.176-17.067,53.176-17.067c-20.57-28.205-62.159-29.373-80.573-28.474c9.432-36.02,53.625-36.02,53.625-36.02
		c-89.825-27.666-125.754,36.828-125.754,36.828s-35.93-64.494-125.754-36.828c0,0,44.194,0,53.625,36.02
		c-18.414-0.898-60.003,0.269-80.573,28.474c0,0,42.756,0,53.176,17.067v0.09c-11.021,14.615-20.958,30.016-29.732,46.08
		c-6.198,11.138-12.036,22.636-17.426,34.313c-7.096,15.45-13.384,31.079-18.863,46.349c-4.491,12.575-8.354,24.792-11.587,36.559
		c-6.724,22.449-10.587,45.658-11.498,69.075c0,0.988,0,1.976,0.09,2.964c2.084,39.496,21.847,75.954,53.805,99.256
		c38.752,29.267,86.181,44.728,134.737,43.924c48.555,0.804,95.984-14.658,134.737-43.924c31.958-23.302,51.721-59.76,53.805-99.256
		c0.09-0.988,0.09-1.976,0.09-2.964C443.706,297.508,439.843,274.3,433.125,251.849z M318.869,421.977
		c-20.375,6.218-41.575,9.307-62.877,9.162c-21.302,0.145-42.502-2.944-62.877-9.162c-32.427-10.42-53.895-28.564-53.895-49.224
		c0-20.66,21.468-42.487,53.895-55.512c11.557-4.645,23.614-7.93,35.93-9.791c8.916-1.382,17.925-2.072,26.947-2.066
		c6.108,0,12.126,0.359,17.965,0.898c12.216,1.246,24.263,3.806,35.93,7.635c37.367,12.396,62.877,36.289,62.877,58.835
		C372.763,393.413,351.295,411.557,318.869,421.977z"/>
	<g>
		<path style="fill:#59474E;" d="M193.114,170.648c-0.333-0.002-0.665-0.021-0.996-0.057c-2.851-0.318-5.379-1.979-6.803-4.469
			c-11.995-22.427-11.995-49.363,0-71.789c2.453-4.312,7.936-5.819,12.248-3.366c4.312,2.453,5.819,7.936,3.366,12.248
			c-6.818,13.156-8.532,28.368-4.811,42.711c13.417-12.601,38.083-32.539,59.873-32.539c4.961,0,8.982,4.022,8.982,8.982
			s-4.022,8.982-8.982,8.982c-18.803,0-46.982,26.263-56.25,36.382C198.039,169.589,195.634,170.647,193.114,170.648z"/>
		<path style="fill:#59474E;" d="M319.869,170.648c-2.52,0-4.925-1.058-6.627-2.917c-9.268-10.118-37.447-36.382-56.25-36.382
			c-4.961,0-8.982-4.022-8.982-8.982s4.022-8.982,8.982-8.982c21.781,0,46.443,19.925,59.864,32.531
			c3.662-14.331,1.961-29.507-4.785-42.671c-2.449-4.306-0.949-9.781,3.351-12.238c4.301-2.457,9.779-0.969,12.245,3.326
			c11.995,22.427,11.995,49.363,0,71.789c-1.424,2.491-3.951,4.151-6.803,4.469C320.534,170.627,320.201,170.646,319.869,170.648z"
			/>
	</g>
	<g>
		<circle style="fill:#FFFFFF;" cx="184.132" cy="242.507" r="35.93"/>
		<circle style="fill:#FFFFFF;" cx="327.851" cy="242.507" r="35.93"/>
		<circle style="fill:#FFFFFF;" cx="255.991" cy="206.577" r="35.93"/>
	</g>
	<g>
		<path style="fill:#2C2F38;" d="M184.132,251.49c-1.18,0.031-2.35-0.215-3.417-0.719c-2.254-0.821-4.029-2.597-4.851-4.851
			c-0.459-1.08-0.702-2.239-0.715-3.413c0.017-2.382,0.949-4.665,2.605-6.378c0.872-0.794,1.873-1.433,2.961-1.89
			c1.639-0.715,3.46-0.902,5.211-0.535c0.563,0.096,1.109,0.277,1.618,0.535c0.573,0.197,1.117,0.47,1.618,0.811
			c0.447,0.359,0.895,0.719,1.346,1.079c0.359,0.447,0.719,0.895,1.075,1.346c0.34,0.5,0.613,1.043,0.811,1.614
			c0.258,0.51,0.44,1.055,0.539,1.618c0.104,0.594,0.164,1.196,0.18,1.799c-0.014,1.174-0.259,2.333-0.719,3.412
			c-0.457,1.088-1.095,2.09-1.886,2.965C188.786,250.523,186.509,251.454,184.132,251.49z"/>
		<path style="fill:#2C2F38;" d="M255.991,215.56c-1.18,0.031-2.35-0.215-3.417-0.719c-1.086-0.457-2.087-1.095-2.961-1.886
			c-1.641-1.722-2.571-3.999-2.605-6.377c0.013-1.175,0.255-2.336,0.715-3.417c0.825-2.252,2.599-4.026,4.851-4.851
			c1.639-0.715,3.46-0.902,5.211-0.535c0.563,0.096,1.109,0.277,1.618,0.535c0.573,0.197,1.117,0.47,1.618,0.811
			c0.47,0.332,0.92,0.692,1.347,1.078c0.791,0.873,1.429,1.874,1.886,2.961c0.461,1.081,0.705,2.242,0.719,3.417
			c0.023,2.389-0.916,4.688-2.605,6.377C260.679,214.644,258.381,215.583,255.991,215.56z"/>
		<path style="fill:#2C2F38;" d="M327.851,251.49c-2.378-0.035-4.655-0.965-6.378-2.605c-0.794-0.874-1.433-1.876-1.89-2.965
			c-0.459-1.08-0.702-2.239-0.715-3.413c0.014-0.603,0.074-1.204,0.18-1.798c0.096-0.563,0.277-1.109,0.535-1.618
			c0.198-0.571,0.471-1.114,0.811-1.614c0.359-0.452,0.719-0.899,1.079-1.346c2.58-2.552,6.444-3.299,9.789-1.89
			c1.089,0.457,2.092,1.096,2.965,1.89c0.387,0.425,0.746,0.875,1.075,1.346c0.34,0.5,0.613,1.043,0.811,1.614
			c0.258,0.51,0.44,1.055,0.539,1.618c0.103,0.594,0.163,1.196,0.18,1.799c0.031,1.178-0.216,2.347-0.719,3.412
			c-0.818,2.256-2.594,4.033-4.851,4.851C330.198,251.274,329.029,251.52,327.851,251.49z"/>
	</g>
	<path style="fill:#F9EAB0;" d="M309.886,313.918v18.414c0,9.922-8.043,17.965-17.965,17.965s-17.965-8.043-17.965-17.965v-26.049
		C286.173,307.529,298.219,310.089,309.886,313.918z"/>
	<path style="fill:#2C2F38;" d="M372.763,372.753c0,20.66-21.468,38.804-53.895,49.224c-0.18-24.702-28.205-44.733-62.877-44.733
		s-62.698,20.031-62.877,44.733c-32.427-10.42-53.895-28.564-53.895-49.224c0-20.66,21.468-42.487,53.895-55.512v15.091
		c0,9.922,8.043,17.965,17.965,17.965s17.965-8.043,17.965-17.965V307.45c8.916-1.382,17.925-2.072,26.947-2.066
		c6.108,0,12.126,0.359,17.965,0.898v26.049c0,9.922,8.043,17.965,17.965,17.965s17.965-8.043,17.965-17.965v-18.414
		C347.253,326.314,372.763,350.207,372.763,372.753z"/>
	<path style="fill:#F9EAB0;" d="M229.044,307.45v24.881c0,9.922-8.043,17.965-17.965,17.965s-17.965-8.043-17.965-17.965v-15.091
		C204.671,312.597,216.729,309.311,229.044,307.45z"/>
	<path style="fill:#FF5364;" d="M318.869,421.977c-20.375,6.218-41.575,9.307-62.877,9.162c-21.302,0.145-42.502-2.944-62.877-9.162
		c0.18-24.702,28.205-44.733,62.877-44.733S318.689,397.275,318.869,421.977z"/>
	<g>
		<path style="fill:#FB7B76;" d="M112.272,467.069v27.576c-0.345,9.673-8.286,17.336-17.965,17.336s-17.62-7.663-17.965-17.336
			v-27.576c0.029-9.91,8.055-17.936,17.965-17.965C104.199,449.175,112.201,457.177,112.272,467.069z"/>
		<path style="fill:#FB7B76;" d="M148.202,485.034v8.982c-0.002,9.801-7.857,17.792-17.656,17.964s-17.929-7.54-18.274-17.335
			v-9.611c0.029-9.91,8.055-17.936,17.965-17.965C140.129,467.14,148.131,475.142,148.202,485.034z"/>
		<path style="fill:#FB7B76;" d="M40.412,485.034v8.982c0,9.922-8.043,17.965-17.965,17.965s-17.965-8.043-17.965-17.965v-8.982
			c0.024-9.912,8.053-17.941,17.965-17.965C32.34,467.14,40.341,475.142,40.412,485.034z"/>
		<path style="fill:#FB7B76;" d="M76.342,467.069v27.576c-0.345,9.795-8.475,17.507-18.274,17.335s-17.654-8.163-17.656-17.964
			v-26.947c0.029-9.91,8.055-17.936,17.965-17.965C68.269,449.175,76.271,457.177,76.342,467.069z"/>
		<path style="fill:#FB7B76;" d="M435.641,467.069v27.576c-0.345,9.795-8.475,17.507-18.274,17.335
			c-9.799-0.171-17.654-8.163-17.656-17.964v-26.947c0.071-9.892,8.073-17.894,17.965-17.965
			C427.585,449.133,435.612,457.159,435.641,467.069z"/>
		<path style="fill:#FB7B76;" d="M399.711,485.034v8.982c0,9.922-8.043,17.965-17.965,17.965c-9.922,0-17.965-8.043-17.965-17.965
			v-8.982c0.071-9.892,8.073-17.894,17.965-17.965C391.656,467.098,399.682,475.124,399.711,485.034z"/>
		<path style="fill:#FB7B76;" d="M507.5,485.034v8.982c-0.002,9.801-7.857,17.792-17.656,17.964
			c-9.799,0.171-17.929-7.54-18.274-17.335v-9.611c0.071-9.892,8.073-17.894,17.965-17.965
			C499.447,467.092,507.477,475.122,507.5,485.034z"/>
		<path style="fill:#FB7B76;" d="M471.57,467.069v27.576c-0.345,9.673-8.286,17.336-17.965,17.336s-17.62-7.663-17.965-17.336
			v-27.576c0.071-9.892,8.073-17.894,17.965-17.965C463.515,449.133,471.541,457.159,471.57,467.069z"/>
	</g>
</g>
<g>
</g>
<g>
</g>
<g>
</g>
<g>
</g>
<g>
</g>
<g>
</g>
<g>
</g>
<g>
</g>
<g>
</g>
<g>
</g>
<g>
</g>
<g>
</g>
<g>
</g>
<g>
</g>
<g>
</g>
</svg>
