<?xml version="1.0" encoding="iso-8859-1"?>
<!-- Generator: Adobe Illustrator 19.0.0, SVG Export Plug-In . SVG Version: 6.00 Build 0)  -->
<svg version="1.1" id="Capa_1" xmlns="http://www.w3.org/2000/svg" xmlns:xlink="http://www.w3.org/1999/xlink" x="0px" y="0px"
	 viewBox="0 0 512.053 512.053" style="enable-background:new 0 0 512.053 512.053;" xml:space="preserve">
<g transform="translate(0 -1)">
	<path style="fill:#4C8056;" d="M485.544,477.743h-18.626l24.188-33.898c2.728-3.903,3.806-8.725,3.001-13.418
		c-0.886-4.69-3.622-8.826-7.592-11.476l-76.535-51.023c15.468-16.407,23.622-38.385,22.599-60.91
		c-0.091-17-3.792-33.788-10.858-49.25l0.53,0.875l46.61-31.073c7.194-4.801,9.848-14.108,6.268-21.981
		c-6.091-13.418-12.211-26.865-18.361-40.342c-6.179-13.594-12.388-27.248-18.626-40.96c-1.942-4.326-3.884-8.563-5.826-12.8
		c-3.042-7.924-6.58-15.649-10.593-23.128c-3.077-5.077-7.2-9.44-12.094-12.8c-9.255-6.575-21.191-8.067-31.779-3.972
		c-18.093,9.29-25.367,31.39-16.331,49.611c6.79,19.067,27.591,29.193,46.786,22.775l28.513,62.588l-32.839,21.892l0.071,0.117
		c-32.612-39.07-79.323-63.695-129.985-68.527c-0.369-2.959-0.561-5.938-0.575-8.92c-0.143-10.392,1.408-20.738,4.59-30.632h-0.124
		c27.815-10.664,44.061-39.655,38.639-68.946C311.17,22.253,285.621,1,255.833,1s-55.338,21.253-60.761,50.544
		c-5.423,29.291,10.824,58.282,38.639,68.946h-0.124c3.182,9.894,4.733,20.24,4.59,30.632c-0.014,2.984-0.206,5.965-0.575,8.926
		c-50.634,5.012-97.262,29.749-129.804,68.864l0.279-0.46L75.238,206.56l28.513-62.588c19.195,6.418,39.997-3.708,46.786-22.775
		c9.036-18.221,1.762-40.321-16.331-49.611c-10.588-4.094-22.525-2.602-31.779,3.972c-4.894,3.36-9.016,7.724-12.094,12.8
		c-4.013,7.48-7.551,15.204-10.593,23.128c-1.942,4.237-3.884,8.474-5.826,12.8c-6.268,13.683-12.476,27.336-18.626,40.96
		c-6.179,13.506-12.3,26.954-18.361,40.342c-3.58,7.873-0.926,17.18,6.268,21.981l46.61,31.073l0.627-1.037
		c-7.129,15.502-10.864,32.349-10.955,49.412c-1.023,22.526,7.131,44.503,22.599,60.91l-76.535,51.023
		c-3.97,2.65-6.706,6.786-7.592,11.476c-0.805,4.693,0.274,9.515,3.001,13.418l24.188,33.898H26.509
		c-9.751,0-17.655,7.905-17.655,17.655s7.904,17.655,17.655,17.655h53.054c1.585-0.012,3.161-0.25,4.679-0.706
		c0.337-0.078,0.663-0.197,0.971-0.353c1.558-0.508,3.043-1.22,4.414-2.119c-0.001-0.024,0.008-0.046,0.025-0.063
		c0.017-0.017,0.039-0.026,0.063-0.025c0.314-0.242,0.609-0.508,0.883-0.794c0.53-0.441,1.059-0.883,1.589-1.412
		c0.375-0.393,0.728-0.806,1.059-1.236c0.353-0.441,0.706-0.883,1.059-1.412c0.265-0.441,0.53-0.971,0.794-1.501
		c0.265-0.53,0.53-0.971,0.794-1.501c0.188-0.547,0.336-1.108,0.441-1.677c0.188-0.517,0.336-1.049,0.442-1.589
		c0.131-0.7,0.22-1.408,0.265-2.119c0-0.353,0.088-0.706,0.088-1.148v-0.177c-0.04-0.77-0.128-1.536-0.265-2.295
		c-0.015-0.417-0.075-0.831-0.177-1.236c-0.124-0.603-0.301-1.194-0.53-1.766c-0.177-0.53-0.265-1.059-0.441-1.501l-0.794-1.324
		c-0.271-0.616-0.596-1.207-0.971-1.766c0-0.088-0.088-0.088-0.088-0.177l-33.545-46.963l64.265-42.902
		c2.792-1.78,4.977-4.366,6.268-7.415c15.267,6.854,31.383,11.633,47.919,14.21c-0.086,23.828-2.363,49.343-11.02,58
		c-17.655,17.655-8.828,52.966,88.276,52.966h1.501c97.103,0,105.931-35.31,88.276-52.966c-4.655-5.596-7.638-12.391-8.607-19.605
		c-2.405-12.738-3.416-25.7-3.015-38.657l0.588-0.001c16.02-2.605,31.63-7.294,46.433-13.948c1.29,3.049,3.476,5.635,6.268,7.415
		l64.265,42.902l-33.545,46.963c0,0.088-0.088,0.088-0.088,0.177c-0.375,0.559-0.7,1.149-0.971,1.766l-0.794,1.324
		c-0.177,0.441-0.265,0.971-0.441,1.501c-0.229,0.572-0.406,1.162-0.53,1.766c-0.102,0.405-0.161,0.819-0.177,1.236
		c-0.137,0.759-0.225,1.525-0.265,2.295v0.177c0,0.441,0.088,0.794,0.088,1.148c0.045,0.711,0.133,1.418,0.265,2.119
		c0.106,0.54,0.253,1.072,0.441,1.589c0.105,0.569,0.253,1.13,0.441,1.677c0.265,0.53,0.53,0.971,0.794,1.501
		c0.265,0.53,0.53,1.059,0.794,1.501c0.353,0.53,0.706,0.971,1.059,1.412c0.331,0.43,0.685,0.843,1.059,1.236
		c0.53,0.53,1.059,0.971,1.589,1.412c0.274,0.286,0.569,0.552,0.883,0.794c0.024-0.001,0.046,0.009,0.063,0.025
		c0.017,0.017,0.026,0.039,0.025,0.063c1.371,0.898,2.855,1.611,4.414,2.119c0.308,0.156,0.634,0.275,0.971,0.353
		c1.518,0.457,3.093,0.694,4.679,0.706h53.054c9.751,0,17.655-7.904,17.655-17.655S495.295,477.743,485.544,477.743z"/>
	<path style="fill:#71C285;" d="M299.97,204.088c-17.405-11.877-27.424-31.915-26.483-52.966
		c-0.142-10.392,1.408-20.738,4.59-30.632h-44.491c3.182,9.894,4.733,20.24,4.59,30.632c0.941,21.05-9.078,41.088-26.483,52.966
		H299.97z"/>
	<circle style="fill:#E6E7E8;" cx="255.833" cy="62.847" r="61.793"/>
	<g>
		<circle style="fill:#2C2F38;" cx="255.833" cy="62.847" r="26.483"/>
		<path style="fill:#2C2F38;" d="M379.613,323.349c0,25.6-16.772,34.869-43.255,38.135c-0.326-0.014-0.653,0.015-0.971,0.088
			c0.073-0.704,0.103-1.411,0.088-2.118c0-32.221-35.575-58.262-79.448-58.262c-42.284,0-76.8,24.188-79.272,54.731v0.441
			c-0.088,0.971-0.177,2.119-0.177,3.09c-0.015,0.707,0.015,1.415,0.088,2.119c-27.012-3.178-44.226-12.359-44.226-38.223
			c0-46.345,55.349-83.95,123.586-83.95S379.613,277.004,379.613,323.349z"/>
	</g>
	<g>
		<path style="fill:#71C285;" d="M108.076,228.452L75.238,206.56l28.513-62.588c19.195,6.418,39.997-3.708,46.786-22.775
			c9.036-18.221,1.761-40.321-16.331-49.611c-10.588-4.094-22.525-2.602-31.779,3.972c-4.894,3.36-9.017,7.723-12.094,12.8
			c-4.012,7.48-7.55,15.204-10.593,23.128c-1.942,4.237-3.884,8.474-5.826,12.8c-6.268,13.683-12.476,27.336-18.626,40.96
			c-6.179,13.506-12.3,26.954-18.361,40.342c-3.58,7.873-0.927,17.18,6.268,21.981l46.61,31.073"/>
		<path style="fill:#71C285;" d="M422.25,258.642l46.61-31.073c7.194-4.8,9.848-14.108,6.268-21.981
			c-6.091-13.418-12.211-26.865-18.361-40.342c-6.179-13.594-12.388-27.248-18.626-40.96c-1.942-4.326-3.884-8.563-5.826-12.8
			c-3.043-7.924-6.581-15.649-10.593-23.128c-3.077-5.077-7.2-9.44-12.094-12.8c-9.255-6.575-21.191-8.067-31.779-3.972
			c-18.092,9.29-25.367,31.39-16.331,49.611c6.79,19.067,27.591,29.193,46.786,22.775l28.513,62.588l-32.839,21.892"/>
		<path style="fill:#71C285;" d="M130.852,387.878c-1.29,3.049-3.476,5.635-6.268,7.415l-64.265,42.902l33.545,46.963
			c0,0.088,0.088,0.088,0.088,0.177c0.375,0.559,0.7,1.149,0.971,1.766l0.794,1.324c0.177,0.441,0.265,0.971,0.441,1.501
			c0.229,0.572,0.406,1.162,0.53,1.766c0.102,0.405,0.161,0.819,0.177,1.236c0.137,0.759,0.225,1.525,0.265,2.295v0.177
			c0,0.441-0.088,0.794-0.088,1.148c-0.045,0.711-0.133,1.418-0.265,2.119c-0.106,0.54-0.254,1.072-0.442,1.589
			c-0.105,0.569-0.253,1.13-0.441,1.677c-0.265,0.53-0.53,0.971-0.794,1.501c-0.265,0.53-0.53,1.059-0.794,1.501
			c-0.353,0.53-0.706,0.971-1.059,1.412c-0.331,0.43-0.685,0.843-1.059,1.236c-0.53,0.53-1.059,0.971-1.589,1.412
			c-0.274,0.286-0.569,0.552-0.883,0.794c-0.024,0-0.046,0.009-0.063,0.025c-0.017,0.017-0.026,0.039-0.025,0.063
			c-1.371,0.898-2.855,1.611-4.414,2.119c-0.308,0.156-0.634,0.275-0.971,0.353c-1.518,0.457-3.093,0.694-4.679,0.706H26.509
			c-9.751,0-17.655-7.904-17.655-17.655s7.904-17.655,17.655-17.655h18.626l-24.188-33.898c-2.728-3.903-3.806-8.725-3.001-13.418
			c0.886-4.69,3.622-8.826,7.592-11.476l76.535-51.023C110.348,376.302,120.106,383.067,130.852,387.878z"/>
		<path style="fill:#71C285;" d="M503.199,495.398c-0.029,9.739-7.916,17.627-17.655,17.655H432.49
			c-1.585-0.012-3.161-0.25-4.679-0.706c-0.337-0.078-0.663-0.197-0.971-0.353c-1.558-0.508-3.043-1.22-4.414-2.119
			c0.001-0.024-0.009-0.046-0.025-0.063c-0.017-0.017-0.04-0.026-0.063-0.025c-0.314-0.242-0.609-0.508-0.883-0.794
			c-0.53-0.441-1.059-0.883-1.589-1.412c-0.375-0.393-0.728-0.806-1.059-1.236c-0.353-0.441-0.706-0.883-1.059-1.412
			c-0.265-0.441-0.53-0.971-0.794-1.501c-0.265-0.53-0.53-0.971-0.794-1.501c-0.188-0.547-0.336-1.108-0.441-1.677
			c-0.188-0.517-0.335-1.049-0.441-1.589c-0.131-0.7-0.22-1.408-0.265-2.119c0-0.353-0.088-0.706-0.088-1.148v-0.177
			c0.04-0.77,0.128-1.536,0.265-2.295c0.015-0.417,0.075-0.831,0.177-1.236c0.124-0.603,0.301-1.194,0.53-1.766
			c0.177-0.53,0.265-1.059,0.441-1.501l0.794-1.324c0.271-0.616,0.596-1.207,0.971-1.766c0-0.088,0.088-0.088,0.088-0.177
			l33.545-46.963l-64.265-42.902c-2.792-1.78-4.977-4.366-6.268-7.415c10.72-4.855,20.471-11.615,28.778-19.95l76.535,51.023
			c3.97,2.65,6.706,6.786,7.592,11.476c0.805,4.693-0.274,9.515-3.001,13.418l-24.188,33.898h18.626
			C495.283,477.772,503.171,485.659,503.199,495.398z"/>
	</g>
	<path style="fill:#FF5364;" d="M257.527,513.053h-1.501c-97.103,0-105.931-35.31-88.276-52.966
		c14.566-14.566,11.123-76.888,9.446-98.516c-0.177-2.207-0.265-3.972-0.441-5.208v-0.441c2.472-30.543,36.988-54.731,79.272-54.731
		c43.873,0,79.448,26.041,79.448,58.262c0.015,0.707-0.015,1.415-0.088,2.119c-0.276,1.807-0.34,3.64-0.192,5.462
		c-0.153,9.131-0.674,18.232-0.911,27.357c-0.82,15.425,0.158,30.893,2.913,46.092c0.969,7.214,3.952,14.009,8.607,19.604
		C363.458,477.743,354.631,513.053,257.527,513.053z"/>
	<g>
		<path style="fill:#C03A2B;" d="M256.027,442.433c-2.341,0.001-4.587-0.929-6.243-2.585c-1.656-1.656-2.585-3.901-2.585-6.243
			v-88.276c0-4.875,3.952-8.828,8.828-8.828s8.828,3.952,8.828,8.828v88.276c0.001,2.341-0.929,4.587-2.585,6.243
			C260.614,441.503,258.368,442.433,256.027,442.433z"/>
		<path style="fill:#C03A2B;" d="M256.027,486.571c-2.341,0.001-4.587-0.929-6.243-2.585c-1.656-1.656-2.585-3.901-2.585-6.243
			v-8.828c0-4.875,3.952-8.828,8.828-8.828s8.828,3.952,8.828,8.828v8.828c0.001,2.341-0.929,4.587-2.585,6.243
			C260.614,485.641,258.368,486.571,256.027,486.571z"/>
	</g>
</g>
<g>
</g>
<g>
</g>
<g>
</g>
<g>
</g>
<g>
</g>
<g>
</g>
<g>
</g>
<g>
</g>
<g>
</g>
<g>
</g>
<g>
</g>
<g>
</g>
<g>
</g>
<g>
</g>
<g>
</g>
</svg>
