<?xml version="1.0" encoding="iso-8859-1"?>
<!-- Generator: Adobe Illustrator 19.0.0, SVG Export Plug-In . SVG Version: 6.00 Build 0)  -->
<svg version="1.1" id="Capa_1" xmlns="http://www.w3.org/2000/svg" xmlns:xlink="http://www.w3.org/1999/xlink" x="0px" y="0px"
	 viewBox="0 0 512 512" style="enable-background:new 0 0 512 512;" xml:space="preserve">
<g>
	<path style="fill:#7F8C8D;" d="M436.171,347.895l-65.412-65.412c5.764-7.622,8.866-16.927,8.828-26.483v-70.621
		c0.009-7.027-2.778-13.768-7.746-18.736c-4.969-4.969-11.71-7.756-18.736-7.746h-8.828V97.103
		c0.003-9.366-3.717-18.349-10.339-24.971c-6.623-6.623-15.605-10.342-24.971-10.339H291.31L282.483,0h-52.966l-8.828,61.793
		h-17.655c-9.366-0.003-18.349,3.717-24.971,10.339c-6.623,6.623-10.342,15.605-10.339,24.971v61.793h-8.828
		c-7.027-0.009-13.768,2.778-18.736,7.746c-4.969,4.969-7.756,11.71-7.746,18.736V256c-0.038,9.556,3.064,18.861,8.828,26.483
		l-65.412,65.412c-3.332,3.321-5.206,7.831-5.208,12.535v64.794c0.002,4.704,1.876,9.214,5.208,12.535l33.721,33.721
		c3.321,3.332,7.831,5.206,12.535,5.208h36.811v17.655c0.029,9.739,7.916,17.627,17.655,17.655h61.793
		c9.739-0.029,17.627-7.916,17.655-17.655c0.029,9.739,7.916,17.627,17.655,17.655h61.793c9.739-0.029,17.627-7.916,17.655-17.655
		V476.69h36.811c4.704-0.002,9.214-1.876,12.535-5.208l33.721-33.721c3.332-3.321,5.206-7.831,5.208-12.535V360.43
		C441.377,355.726,439.503,351.216,436.171,347.895z"/>
	<g>
		<polygon style="fill:#C03A2B;" points="203.034,114.759 238.345,123.586 238.345,150.069 203.034,150.069 		"/>
		<polygon style="fill:#C03A2B;" points="308.966,114.759 308.966,150.069 273.655,150.069 273.655,123.586 		"/>
	</g>
	<path style="fill:#BDC3C7;" d="M308.966,61.793H203.034c-9.366-0.003-18.349,3.717-24.971,10.339
		c-6.623,6.623-10.342,15.605-10.339,24.971V220.69c0.029,9.739,7.916,17.627,17.655,17.655h17.655l17.655-44.138h70.621
		l17.655,44.138h17.655c9.739-0.029,17.626-7.916,17.655-17.655V97.103c0.003-9.366-3.717-18.349-10.339-24.971
		S318.331,61.79,308.966,61.793z M238.345,150.069h-35.31v-35.31l35.31,8.828V150.069z M308.966,150.069h-35.31v-26.483l35.31-8.828
		V150.069z"/>
	<path style="fill:#95A5A5;" d="M379.586,185.379V256c0.038,9.556-3.064,18.861-8.828,26.483
		c-8.344,11.104-21.421,17.642-35.31,17.655H176.552c-13.89-0.013-26.966-6.551-35.31-17.655
		c-5.764-7.622-8.865-16.927-8.828-26.483v-70.621c-0.009-7.027,2.778-13.768,7.746-18.736c4.969-4.969,11.71-7.756,18.736-7.746
		h8.828v61.793c0.029,9.739,7.916,17.627,17.655,17.655h17.655l17.655-44.138h70.621l17.655,44.138h17.655
		c9.739-0.029,17.626-7.916,17.655-17.655v-61.793h8.828c7.027-0.009,13.768,2.778,18.736,7.746
		C376.808,171.611,379.596,178.353,379.586,185.379z"/>
	<g>
		<polygon style="fill:#C03A2B;" points="238.345,123.586 238.345,150.069 203.034,150.069 203.034,114.759 		"/>
		<polygon style="fill:#C03A2B;" points="308.966,114.759 308.966,150.069 273.655,150.069 273.655,123.586 		"/>
	</g>
	<path style="fill:#3F5C6C;" d="M150.069,414.897h-26.483c-4.875,0-8.828-3.952-8.828-8.828s3.952-8.828,8.828-8.828h26.483
		c4.875,0,8.828,3.952,8.828,8.828S154.944,414.897,150.069,414.897z"/>
	<path style="fill:#BDC3C7;" d="M353.103,360.43v45.639c-9.739,0.028-17.627,7.916-17.655,17.655v26.483h-52.966
		c-7.027-0.009-13.768,2.778-18.737,7.746c-4.969,4.969-7.756,11.71-7.746,18.737c0.009-7.027-2.778-13.768-7.746-18.737
		c-4.969-4.969-11.71-7.756-18.736-7.746h-52.966v-26.483c-0.028-9.739-7.916-17.627-17.655-17.655V360.43
		c0.002-4.704,1.876-9.214,5.208-12.535l47.757-47.757h88.276l47.757,47.757C351.227,351.216,353.101,355.726,353.103,360.43z"/>
	<g>
		<path style="fill:#3F5C6C;" d="M388.414,414.897h-26.483c-4.875,0-8.828-3.952-8.828-8.828s3.952-8.828,8.828-8.828h26.483
			c4.875,0,8.828,3.952,8.828,8.828S393.289,414.897,388.414,414.897z"/>
		<path style="fill:#3F5C6C;" d="M229.517,370.759h-17.655c-4.875,0-8.828-3.952-8.828-8.828s3.952-8.828,8.828-8.828h8.828v-17.655
			c0-4.875,3.952-8.828,8.828-8.828s8.828,3.952,8.828,8.828v26.483C238.345,366.806,234.393,370.759,229.517,370.759z"/>
		<path style="fill:#3F5C6C;" d="M300.138,370.759h-17.655c-4.875,0-8.828-3.952-8.828-8.828v-26.483
			c0-4.875,3.952-8.828,8.828-8.828s8.828,3.952,8.828,8.828v17.655h8.828c4.875,0,8.828,3.952,8.828,8.828
			S305.013,370.759,300.138,370.759z"/>
		<path style="fill:#3F5C6C;" d="M256,432.552c-4.875,0-8.828-3.952-8.828-8.828v-35.31c0-4.875,3.952-8.828,8.828-8.828
			s8.828,3.952,8.828,8.828v35.31C264.828,428.599,260.875,432.552,256,432.552z"/>
	</g>
</g>
<g>
</g>
<g>
</g>
<g>
</g>
<g>
</g>
<g>
</g>
<g>
</g>
<g>
</g>
<g>
</g>
<g>
</g>
<g>
</g>
<g>
</g>
<g>
</g>
<g>
</g>
<g>
</g>
<g>
</g>
</svg>
