<?xml version="1.0" encoding="iso-8859-1"?>
<!-- Generator: Adobe Illustrator 19.0.0, SVG Export Plug-In . SVG Version: 6.00 Build 0)  -->
<svg version="1.1" id="Capa_1" xmlns="http://www.w3.org/2000/svg" xmlns:xlink="http://www.w3.org/1999/xlink" x="0px" y="0px"
	 viewBox="0 0 505.648 505.648" style="enable-background:new 0 0 505.648 505.648;" xml:space="preserve">
<g>
	<g>
		<path style="fill:#804169;" d="M452.91,274.39c-0.619-11.31-2.078-22.559-4.365-33.653c-0.42-2.182-0.923-4.365-1.427-6.631
			c-8.273-35.633-21.495-69.931-39.281-101.896c15.024-26.691,19.221-61.272,20.228-86.536c-0.299-4.524-3.168-8.475-7.377-10.158
			c-4.209-1.684-9.012-0.802-12.348,2.268c-11.764,14.429-27.4,25.203-45.073,31.056C331.289,33.503,293.015,9.414,251.803,9.414
			S172.317,33.503,140.422,68.84c-17.748-5.796-33.453-16.577-45.241-31.056c-3.336-3.07-8.138-3.952-12.348-2.268
			c-4.209,1.684-7.078,5.634-7.377,10.158c1.007,25.264,5.204,59.929,20.228,86.62h0.084
			c-17.613,31.544-30.749,65.387-39.03,100.553l-1.511,6.799c-2.529,12.166-4.073,24.517-4.616,36.931v0.076
			C26.602,302.484,0,335.571,0,355.393c0,31.467,14.43,47.422,42.889,47.422c11.872-0.34,23.643-2.287,34.992-5.787
			c7.561-2.195,15.387-3.964,23.195-5.638c19.778,15.744,42.479,27.415,66.792,34.338v38.862c-8.33-1.304-16.749-1.949-25.18-1.931
			c-41.715,0-75.541,15.024-75.541,33.574h151.082c0-7.974-6.295-15.36-16.787-21.068v-41.632
			c16.655,2.655,33.495,3.974,50.361,3.945c16.869,0.044,33.713-1.303,50.361-4.029v41.715
			c-10.492,5.708-16.787,13.094-16.787,21.068h151.082c0-18.549-33.826-33.574-75.541-33.574c-8.431-0.019-16.851,0.627-25.18,1.931
			v-38.862c24.494-6.965,47.352-18.75,67.231-34.665h0.058c8.319,1.765,16.684,3.629,24.78,5.977
			c11.335,3.494,23.091,5.436,34.947,5.775c28.463,0,42.893-15.955,42.893-47.422C505.647,334.994,477.448,300.53,452.91,274.39z"/>
		<path style="fill:#804169;" d="M93.167,384.517c5.875-1.343,11.751-2.602,17.626-3.777c8.561-1.763,25.432-2.098,31.391-9.401
			c1.911-2.616,2.806-5.838,2.518-9.065c-0.487-5.694-2.849-11.067-6.715-15.276c-13.01-14.689-35.672-16.619-54.054-16.787
			L93.167,384.517z"/>
		<path style="fill:#804169;" d="M421.687,330.211c-18.382,0.168-41.044,2.098-54.054,16.787c-3.866,4.209-6.228,9.582-6.715,15.276
			c-0.288,3.227,0.607,6.449,2.518,9.065c5.959,7.302,22.83,7.638,31.391,9.401c5.288,1.091,10.66,2.182,16.031,3.441
			L421.687,330.211z"/>
	</g>
	<g>
		<path style="fill:#F5EFCA;" d="M140.422,68.84c-17.258,19.377-32.24,40.668-44.653,63.454h-0.084
			c-15.024-26.691-19.221-61.356-20.228-86.62c0.299-4.524,3.168-8.475,7.377-10.158c4.209-1.684,9.012-0.802,12.348,2.268
			C106.97,52.262,122.675,63.043,140.422,68.84z"/>
		<path style="fill:#F5EFCA;" d="M428.066,45.674c-1.007,25.264-5.204,59.845-20.228,86.536
			c-12.435-22.727-27.385-43.984-44.569-63.37c17.673-5.853,33.309-16.627,45.073-31.056c3.336-3.07,8.138-3.952,12.348-2.268
			C424.898,37.199,427.767,41.15,428.066,45.674z"/>
	</g>
	<path style="fill:#FFFFFF;" d="M310.641,190.964c10.844-13.358,16.744-30.05,16.703-47.255c0-41.72-33.821-75.541-75.541-75.541
		s-75.541,33.821-75.541,75.541c-0.041,17.205,5.859,33.897,16.703,47.255"/>
	<g>
		<circle style="fill:#3D324C;" cx="251.803" cy="126.922" r="25.18"/>
		<path style="fill:#3D324C;" d="M340.828,207.594c-0.986-0.002-1.964-0.176-2.889-0.516c-5.82-2.107-11.749-3.899-17.762-5.369
			c-6.488-1.611-13.439-2.992-20.652-4.111c-7.373-1.143-15.102-2.025-22.975-2.615c-16.475-1.213-33.017-1.213-49.492,0
			c-7.873,0.59-15.602,1.471-22.975,2.615c-7.213,1.119-14.164,2.5-20.652,4.111c-6.013,1.469-11.942,3.262-17.762,5.369
			c-2.816,1.032-5.968,0.484-8.27-1.438c-2.302-1.922-3.403-4.927-2.889-7.881c0.514-2.955,2.565-5.411,5.381-6.443
			c6.39-2.315,12.899-4.285,19.5-5.902c6.971-1.725,14.414-3.209,22.119-4.406c7.807-1.209,15.984-2.139,24.295-2.762
			c17.31-1.279,34.69-1.279,52,0c8.311,0.623,16.488,1.553,24.295,2.762c7.705,1.197,15.148,2.68,22.119,4.406
			c6.601,1.616,13.11,3.587,19.5,5.902c3.821,1.402,6.086,5.342,5.375,9.35C348.381,204.673,344.898,207.593,340.828,207.594z"/>
	</g>
	<g>
		<path style="fill:#F5EFCA;" d="M175.507,250.977l-21.319,21.319c-2.23,2.217-5.513,3-8.503,2.027
			c-2.99-0.973-5.184-3.538-5.682-6.643l-5.708-34.245C147.431,240.606,161.233,246.481,175.507,250.977z"/>
		<path style="fill:#F5EFCA;" d="M360.163,237.967l-4.952,29.713c-0.497,3.105-2.691,5.67-5.681,6.643
			c-2.99,0.973-6.274,0.191-8.503-2.027l-19.557-19.557C334.905,249.361,347.893,244.403,360.163,237.967z"/>
		<path style="fill:#F5EFCA;" d="M317.776,253.579l-10.66,29.461c-1.449,3.041-4.365,5.119-7.712,5.495
			c-3.348,0.376-6.652-1.004-8.739-3.648l-22.075-26.271v-0.252C285.097,258.28,301.562,256.679,317.776,253.579z"/>
	</g>
	<g>
		<path style="fill:#802F34;" d="M201.443,433.535v41.632c-10.509-5.407-21.863-8.983-33.574-10.576v-38.862
			C178.876,429.067,190.092,431.675,201.443,433.535z"/>
		<path style="fill:#802F34;" d="M335.738,425.729v38.862c-11.711,1.593-23.064,5.169-33.574,10.576v-41.715
			C313.521,431.659,324.739,429.078,335.738,425.729z"/>
	</g>
	<g>
		<path style="fill:#CC66A1;" d="M42.889,402.816C14.43,402.816,0,386.861,0,355.393c0-20.971,29.779-56.799,54.758-83.164
			c2.063-2.177,5.131-3.088,8.048-2.39s5.24,2.899,6.094,5.775c0.854,2.875,0.109,5.988-1.954,8.165
			c-30.471,32.151-50.16,60.266-50.16,71.615c0,22.332,7.074,30.635,26.102,30.635c10.302-0.344,20.511-2.071,30.352-5.135
			c11.524-3.341,23.373-5.791,34.828-8.16l1.025-0.213c2.156-0.443,4.795-0.811,7.656-1.201c5.75-0.787,16.451-2.246,18.93-5.287
			c0.567-1.011,0.793-2.178,0.643-3.328c-0.389-3.798-2.015-7.363-4.627-10.148c-10.693-12.074-31.184-13.799-47.84-13.951
			c-4.636-0.022-8.376-3.797-8.354-8.432c0.022-4.636,3.797-8.376,8.432-8.354h0.078c20.131,0.185,45.172,2.582,60.258,19.615
			c5.113,5.614,8.213,12.77,8.811,20.34c0.412,5.301-1.133,10.569-4.344,14.807c-6.713,8.229-19.467,9.971-29.717,11.369
			c-2.442,0.332-4.693,0.631-6.529,1.012l-1.02,0.209c-11.143,2.303-22.664,4.684-33.591,7.856
			C66.532,400.529,54.761,402.475,42.889,402.816z"/>
		<path style="fill:#CC66A1;" d="M462.754,402.816c-11.856-0.339-23.612-2.281-34.947-5.775c-10.963-3.18-22.471-5.562-33.602-7.861
			l-1.053-0.217c-1.832-0.381-4.082-0.68-6.525-1.012c-10.25-1.397-23.004-3.139-29.668-11.303c-3.235-4.231-4.8-9.505-4.398-14.816
			c0.589-7.583,3.685-14.755,8.799-20.385c15.103-17.045,40.143-19.443,60.275-19.627h0.078c4.636-0.022,8.411,3.719,8.432,8.354
			c0.022,4.636-3.719,8.411-8.354,8.432c-16.656,0.152-37.148,1.877-47.852,13.959c-2.619,2.803-4.242,6.391-4.619,10.209
			c-0.143,1.156,0.102,2.326,0.697,3.328c2.426,2.971,13.131,4.43,18.881,5.217c2.861,0.389,5.5,0.758,7.652,1.201l1.058,0.221
			c11.447,2.365,23.283,4.811,34.84,8.164c9.827,3.058,20.021,4.781,30.307,5.123c19.033,0,26.107-8.303,26.107-30.635
			c0-11.34-19.688-39.451-50.16-71.619c-3.187-3.366-3.042-8.678,0.324-11.865c3.366-3.187,8.678-3.042,11.865,0.324
			c24.979,26.369,54.758,62.201,54.758,83.16C505.647,386.861,491.217,402.816,462.754,402.816z"/>
	</g>
	<path style="fill:#3D324C;" d="M419.242,239.152c-2.934-7.903-9.001-14.244-16.766-17.525c-12.336-4.081-25.843-2.516-36.918,4.279
		c-33.361,16.68-48.586,24.295-113.754,24.295s-80.393-7.615-113.754-24.295c-11.074-6.797-24.583-8.362-36.918-4.279
		c-7.765,3.281-13.832,9.622-16.766,17.525c-1.467,4.398,0.909,9.152,5.307,10.619c4.398,1.467,9.152-0.909,10.619-5.307
		c1.415-3.267,4.008-5.881,7.262-7.324c7.855-1.99,16.184-0.619,22.988,3.783c33.615,16.807,52.135,26.066,121.262,26.066
		s87.648-9.258,121.262-26.066c6.757-4.337,14.991-5.731,22.799-3.861c3.387,1.414,6.077,4.11,7.484,7.5
		c1.515,4.36,6.265,6.68,10.635,5.192C418.353,248.266,420.702,243.53,419.242,239.152L419.242,239.152z"/>
</g>
<g>
</g>
<g>
</g>
<g>
</g>
<g>
</g>
<g>
</g>
<g>
</g>
<g>
</g>
<g>
</g>
<g>
</g>
<g>
</g>
<g>
</g>
<g>
</g>
<g>
</g>
<g>
</g>
<g>
</g>
</svg>
