<?xml version="1.0" encoding="iso-8859-1"?>
<!-- Generator: Adobe Illustrator 19.0.0, SVG Export Plug-In . SVG Version: 6.00 Build 0)  -->
<svg version="1.1" id="Capa_1" xmlns="http://www.w3.org/2000/svg" xmlns:xlink="http://www.w3.org/1999/xlink" x="0px" y="0px"
	 viewBox="0 0 512.002 512.002" style="enable-background:new 0 0 512.002 512.002;" xml:space="preserve">
<g>
	<g>
		<path style="fill:#F0785A;" d="M211.863,300.18v123.544h-35.31V273.655C186.862,284.29,198.777,293.241,211.863,300.18z"/>
		<path style="fill:#F0785A;" d="M335.449,273.655v150.069h-35.31V300.18C313.225,293.241,325.14,284.29,335.449,273.655z"/>
		<path style="fill:#F0785A;" d="M141.242,212.745c-15.89,8.828-64.177,40.695-64.177,105.048c0,9.751-7.904,17.655-17.655,17.655
			s-17.655-7.904-17.655-17.655c0-97.368,84.039-137.092,89.776-139.652C133.513,189.991,136.769,201.593,141.242,212.745z"/>
		<path style="fill:#F0785A;" d="M470.247,317.793c0,9.751-7.905,17.655-17.655,17.655s-17.655-7.904-17.655-17.655
			c0-64.353-48.287-96.221-64.177-105.048c4.484-11.148,7.741-22.751,9.711-34.604C386.208,180.701,470.247,220.425,470.247,317.793
			z"/>
	</g>
	<path style="fill:#D25627;" d="M397.242,158.897c-0.028,6.443-0.529,12.875-1.5,19.244c-1.97,11.853-5.227,23.456-9.711,34.604
		c-10.963,27.73-28.289,52.495-50.582,72.298c-10.562,9.366-22.463,17.102-35.31,22.952c-27.975,13.065-60.301,13.065-88.276,0
		c-12.847-5.85-24.748-13.586-35.31-22.952c-22.293-19.803-39.619-44.568-50.582-72.298c-4.473-11.152-7.729-22.753-9.711-34.604
		c-0.971-6.369-1.472-12.801-1.5-19.244c-0.03-11.241,1.729-22.415,5.209-33.103v-0.088c9.765-29.091,29.826-53.611,56.407-68.943
		h0.088c15.31-9.102,32.104-15.436,49.611-18.714h59.851c17.491,3.288,34.278,9.59,49.611,18.626
		c26.558,15.342,46.636,39.812,56.496,68.855v0.088C395.514,136.366,397.272,147.598,397.242,158.897z"/>
	<path style="fill:#2C2F38;" d="M317.794,250.703c-0.441,10.937-7.561,20.476-17.92,24.011l-0.53-1.059
		c-4.244-20.561-22.349-35.31-43.343-35.31c-20.994,0-39.099,14.75-43.343,35.31l-0.53,1.059
		c-10.359-3.535-17.479-13.074-17.92-24.011c0-21.981,27.63-47.669,61.793-47.669S317.794,228.723,317.794,250.703z"/>
	<g>
		<circle style="fill:#ECF0F1;" cx="185.38" cy="150.069" r="35.31"/>
		<circle style="fill:#ECF0F1;" cx="326.622" cy="150.069" r="35.31"/>
		<circle style="fill:#ECF0F1;" cx="256.001" cy="114.759" r="35.31"/>
	</g>
	<g>
		<path style="fill:#2C2F38;" d="M185.38,158.897c-2.337-0.035-4.575-0.949-6.268-2.56c-3.414-3.481-3.414-9.054,0-12.534
			c2.828-2.861,7.227-3.458,10.716-1.456c3.488,2.002,5.191,6.103,4.147,9.987C192.932,156.218,189.403,158.913,185.38,158.897z"/>
		<path style="fill:#2C2F38;" d="M256.001,123.586c-2.337-0.035-4.575-0.949-6.268-2.56c-0.779-0.859-1.406-1.844-1.854-2.914
			c-0.943-2.138-0.943-4.573,0-6.711c0.448-1.068,1.075-2.052,1.854-2.909c3.539-3.267,8.995-3.267,12.534,0
			c0.779,0.857,1.406,1.841,1.854,2.909c0.943,2.138,0.943,4.573,0,6.711c-0.448,1.07-1.075,2.055-1.854,2.914
			C260.574,122.636,258.337,123.55,256.001,123.586z"/>
		<path style="fill:#2C2F38;" d="M326.622,158.897c-2.348,0.023-4.607-0.9-6.267-2.56c-1.66-1.66-2.583-3.919-2.56-6.267
			c0.014-1.155,0.254-2.296,0.707-3.358c0.426-1.08,1.055-2.067,1.854-2.91c3.539-3.267,8.995-3.267,12.534,0
			c0.779,0.857,1.406,1.841,1.854,2.91c0.453,1.062,0.693,2.203,0.706,3.358c-0.013,0.592-0.074,1.181-0.181,1.763
			c-0.093,0.554-0.27,1.09-0.526,1.59c-0.176,0.542-0.445,1.049-0.793,1.5c-0.353,0.53-0.707,0.97-1.06,1.414
			C331.195,157.946,328.958,158.86,326.622,158.897z"/>
	</g>
	<path style="fill:#FF5364;" d="M299.874,274.715c-13.91,5.665-28.864,8.313-43.873,7.768c-15.009,0.544-29.963-2.103-43.873-7.768
		l0.53-1.059c4.244-20.561,22.349-35.31,43.343-35.31s39.099,14.75,43.343,35.31L299.874,274.715z"/>
	<g>
		<path style="fill:#F5EFCA;" d="M176.376,56.761c-26.581,15.333-46.642,39.852-56.407,68.943
			c-17.215-28.69-21.982-67.354-23.041-95.161c0.267-4.782,3.271-8.981,7.712-10.776c4.441-1.795,9.519-0.864,13.034,2.389
			C132.15,38.488,153.16,56.143,176.376,56.761z"/>
		<path style="fill:#F5EFCA;" d="M414.898,30.543c-0.971,27.719-5.738,66.295-22.864,94.985
			c-9.86-29.043-29.938-53.513-56.496-68.855c23.128-0.53,44.138-18.273,58.615-34.516c3.515-3.254,8.593-4.185,13.034-2.39
			C411.627,21.563,414.631,25.761,414.898,30.543z"/>
		<path style="fill:#F5EFCA;" d="M228.05,61.793c-3.115,0-5.999-1.642-7.59-4.32c-1.591-2.678-1.652-5.996-0.162-8.732
			l21.313-39.115C244.017,3.801,249.698,0,256.001,0c6.303,0,11.984,3.801,14.389,9.627l21.313,39.115
			c1.491,2.735,1.429,6.054-0.161,8.732c-1.591,2.678-4.475,4.32-7.59,4.32H228.05z"/>
	</g>
	<g>
		<path style="fill:#D25627;" d="M220.691,511.117c-1.758,0.614-3.611,0.913-5.473,0.883h-42.019
			c-5.513,0.009-10.713-2.56-14.056-6.943c-3.344-4.383-4.447-10.077-2.981-15.391l20.392-74.77h35.31l20.392,74.77
			C234.746,498.757,229.654,508.201,220.691,511.117z"/>
		<path style="fill:#D25627;" d="M338.804,512h-42.019c-1.862,0.03-3.715-0.269-5.473-0.883
			c-8.964-2.916-14.055-12.36-11.565-21.451l20.392-74.77h35.31l20.392,74.77c1.465,5.314,0.362,11.008-2.981,15.391
			C349.516,509.44,344.317,512.009,338.804,512z"/>
	</g>
	<g>
		<path style="fill:#F5EFCA;" d="M194.208,503.172V512h-17.655v-8.828c0-4.875,3.952-8.828,8.828-8.828
			S194.208,498.297,194.208,503.172z"/>
		<path style="fill:#F5EFCA;" d="M220.691,503.172v7.945c-1.758,0.614-3.611,0.913-5.473,0.883h-12.182v-8.828
			c0-4.875,3.952-8.828,8.828-8.828S220.691,498.297,220.691,503.172z"/>
		<path style="fill:#F5EFCA;" d="M308.967,503.172V512h-12.182c-1.862,0.03-3.715-0.269-5.473-0.883v-7.945
			c0-4.875,3.952-8.828,8.828-8.828S308.967,498.297,308.967,503.172z"/>
		<path style="fill:#F5EFCA;" d="M335.449,503.172V512h-17.655v-8.828c0-4.875,3.952-8.828,8.828-8.828
			S335.449,498.297,335.449,503.172z"/>
	</g>
</g>
<g>
</g>
<g>
</g>
<g>
</g>
<g>
</g>
<g>
</g>
<g>
</g>
<g>
</g>
<g>
</g>
<g>
</g>
<g>
</g>
<g>
</g>
<g>
</g>
<g>
</g>
<g>
</g>
<g>
</g>
</svg>
