<?xml version="1.0" encoding="iso-8859-1"?>
<!-- Generator: Adobe Illustrator 19.0.0, SVG Export Plug-In . SVG Version: 6.00 Build 0)  -->
<svg version="1.1" id="Capa_1" xmlns="http://www.w3.org/2000/svg" xmlns:xlink="http://www.w3.org/1999/xlink" x="0px" y="0px"
	 viewBox="0 0 512 512" style="enable-background:new 0 0 512 512;" xml:space="preserve">
<g>
	<path style="fill:#4C8056;" d="M387.972,154.041c0.177-0.971,0.177-1.942,0.265-2.913c25.248-7.68,42.461,0.883,59.586,9.446
		c17.655,8.828,44.138-26.483,17.655-44.138s-79.448,8.828-79.448,8.828c-7.151-29.043-29.043-50.229-54.996-50.229
		c-2.243,0.012-4.484,0.16-6.709,0.441c-0.177-0.177-0.441-0.265-0.619-0.441c-7.58-5.427-16.161-9.297-25.246-11.388l0.352-1.854
		L270.389,9.622c-2.417-5.812-8.094-9.6-14.389-9.6c-6.295,0-11.972,3.787-14.389,9.6l-28.425,52.171l0.352,1.854
		c-9.329,2.165-18.125,6.188-25.864,11.829c-2.225-0.282-4.466-0.429-6.709-0.441c-25.953,0-47.845,21.186-54.996,50.229
		c0,0-52.966-26.483-79.448-8.828s0,52.966,17.655,44.138c17.125-8.563,34.338-17.126,59.586-9.446
		c0.088,0.971,0.088,1.942,0.265,2.913c1.332,23.582,14.436,44.913,34.869,56.761v8.563c-15.853,8.159-30.523,18.434-43.608,30.543
		c-16.975,16.871-31.078,36.402-41.754,57.821c-0.53,1.059-1.06,2.03-1.589,3.09c-3.001,5.65-5.914,11.476-8.564,17.39
		c-10.151,22.069-16.33,50.759-1.942,72.474c4.59,6.885,14.037,16.419,22.953,15.978c1.866-0.136,3.691-0.615,5.384-1.412
		c-14.829-12.094-13.417-44.844-12.534-55.261c0.268-3.138,2.19-5.895,5.042-7.232c2.852-1.337,6.2-1.051,8.783,0.75
		c2.584,1.801,4.01,4.844,3.742,7.982c-1.5,18.803,1.588,38.135,6.621,40.519c0.924,0.433,1.762,1.032,2.472,1.766
		c1.765-2.03,3.354-3.884,4.767-5.473c6.063-6.146,10.099-14.002,11.564-22.51c0.045-7.914-0.486-15.821-1.589-23.658
		c-0.283-8.333,0.279-16.674,1.678-24.894c4.326-24.718,16.243-50.582,38.577-63.735v45.462
		c-0.043,21.441,9.71,41.728,26.483,55.084v86.157h-26.483c-7.027-0.009-13.768,2.778-18.736,7.746
		c-4.969,4.969-7.756,11.71-7.746,18.736v26.483c0.014,4.869,3.958,8.813,8.828,8.828h88.276c4.869-0.014,8.813-3.958,8.828-8.828
		v-35.31c-0.028-9.739-7.916-17.627-17.655-17.655v-71.15c2.929,0.355,5.877,0.532,8.828,0.53h52.966
		c2.951,0.002,5.898-0.175,8.828-0.53v71.15c-9.739,0.028-17.627,7.916-17.655,17.655v35.31c0.014,4.869,3.958,8.813,8.828,8.828
		h88.276c4.869-0.014,8.813-3.958,8.828-8.828v-26.483c0.009-7.027-2.778-13.768-7.746-18.736
		c-4.969-4.969-11.71-7.756-18.736-7.746h-26.483v-86.157c16.773-13.357,26.526-33.643,26.483-55.084v-45.462
		c22.334,13.153,34.251,39.018,38.577,63.735c1.398,8.22,1.96,16.56,1.678,24.894c-1.103,7.837-1.635,15.744-1.589,23.658
		c1.465,8.508,5.5,16.364,11.564,22.51c1.412,1.589,3.002,3.443,4.767,5.473c0.71-0.734,1.547-1.332,2.472-1.766
		c5.385-2.56,8.032-23.923,6.621-40.519c-0.201-2.33,0.532-4.644,2.039-6.433c1.507-1.788,3.663-2.904,5.993-3.101
		c2.339-0.243,4.676,0.475,6.475,1.99c1.798,1.515,2.903,3.697,3.06,6.043c0.883,10.417,2.295,43.167-12.534,55.261
		c1.693,0.797,3.518,1.276,5.384,1.412c8.916,0.441,18.362-9.092,22.953-15.978c14.388-21.716,8.209-50.406-1.942-72.474
		c-2.648-5.915-5.563-11.741-8.564-17.39c-0.529-1.059-1.059-2.03-1.59-3.09c-10.676-21.419-24.78-40.95-41.754-57.821
		c-13.085-12.11-27.755-22.385-43.607-30.543v-8.563C373.537,198.954,386.64,177.623,387.972,154.041z"/>
	<path style="fill:#2C2F38;" d="M264.827,233.931h-17.655c-4.875,0-8.828-3.952-8.828-8.828s3.952-8.828,8.828-8.828h17.655
		c4.875,0,8.828,3.952,8.828,8.828S269.703,233.931,264.827,233.931z"/>
	<g>
		<path style="fill:#527F72;" d="M123.586,145.655c0,1.854,0.088,3.708,0.177,5.473c-25.248-7.68-42.461,0.883-59.586,9.446
			c-17.655,8.828-44.138-26.483-17.655-44.138s79.448,8.828,79.448,8.828C124.401,131.947,123.602,138.789,123.586,145.655z"/>
		<path style="fill:#527F72;" d="M447.823,160.573c-17.125-8.563-34.338-17.126-59.586-9.446c0.088-1.766,0.177-3.619,0.177-5.473
			c-0.016-6.866-0.815-13.707-2.383-20.392c0,0,52.966-26.483,79.448-8.828S465.478,169.401,447.823,160.573z"/>
	</g>
	<path style="fill:#547580;" d="M236.314,127.293c-39.382-14.799-83.806-4.217-112.287,26.748c-0.177-0.971-0.177-1.942-0.265-2.913
		c-0.088-1.766-0.177-3.619-0.177-5.473c0.016-6.866,0.815-13.707,2.383-20.392c7.151-29.043,29.043-50.229,54.996-50.229
		c2.243,0.012,4.484,0.16,6.709,0.441C211.155,78.83,230.4,99.751,236.314,127.293z"/>
	<path style="fill:#ECF0F1;" d="M236.314,127.293c-39.382-14.799-83.806-4.217-112.287,26.748
		c1.332,23.582,14.436,44.913,34.869,56.761c6.805,3.584,14.378,5.463,22.069,5.473c31.692,0,57.379-31.603,57.379-70.621
		C238.353,139.478,237.672,133.319,236.314,127.293z M185.379,180.965c-9.751,0-17.655-7.904-17.655-17.655
		s7.904-17.655,17.655-17.655s17.655,7.904,17.655,17.655C203.006,173.049,195.118,180.936,185.379,180.965z"/>
	<path style="fill:#547580;" d="M388.414,145.655c0,1.854-0.088,3.708-0.177,5.473c-0.088,0.971-0.088,1.942-0.265,2.913
		c-28.481-30.965-72.904-41.547-112.287-26.748c5.914-27.542,25.159-48.463,48.64-51.818c2.225-0.282,4.466-0.429,6.709-0.441
		c25.953,0,47.845,21.186,54.996,50.229C387.598,131.947,388.398,138.789,388.414,145.655z"/>
	<path style="fill:#ECF0F1;" d="M275.685,127.293c-1.357,6.026-2.038,12.184-2.03,18.361c0,39.018,25.687,70.621,57.379,70.621
		c7.697,0.043,15.283-1.839,22.069-5.473c20.433-11.848,33.537-33.179,34.869-56.761
		C359.491,123.076,315.068,112.494,275.685,127.293z M326.621,180.965c-9.751,0-17.655-7.904-17.655-17.655
		s7.904-17.655,17.655-17.655c9.751,0,17.655,7.904,17.655,17.655C344.247,173.049,336.359,180.936,326.621,180.965z"/>
	<g>
		<circle style="fill:#2C2F38;" cx="185.379" cy="163.31" r="17.655"/>
		<circle style="fill:#2C2F38;" cx="326.621" cy="163.31" r="17.655"/>
	</g>
	<g>
		<path style="fill:#D1D4D1;" d="M167.724,494.344V512h-17.655v-17.655c0-4.875,3.952-8.828,8.828-8.828
			S167.724,489.469,167.724,494.344z"/>
		<path style="fill:#D1D4D1;" d="M194.207,494.344V512h-17.655v-17.655c0-4.875,3.952-8.828,8.828-8.828
			S194.207,489.469,194.207,494.344z"/>
		<path style="fill:#D1D4D1;" d="M361.931,494.344V512h-17.655v-17.655c0-4.875,3.952-8.828,8.828-8.828
			S361.931,489.469,361.931,494.344z"/>
		<path style="fill:#D1D4D1;" d="M335.448,494.344V512h-17.655v-17.655c0-4.875,3.952-8.828,8.828-8.828
			S335.448,489.469,335.448,494.344z"/>
	</g>
	<path style="fill:#F5EFCA;" d="M298.814,61.771l-0.352,1.854c-5.235-1.246-10.598-1.868-15.979-1.854h-52.966
		c-5.381-0.014-10.744,0.608-15.978,1.854l-0.352-1.854L241.611,9.6C244.028,3.787,249.705,0,256,0s11.972,3.787,14.389,9.6
		L298.814,61.771z"/>
	<g>
		<path style="fill:#71C285;" d="M220.689,379.056v71.15h-35.31v-86.157C195.518,372.249,207.749,377.448,220.689,379.056z"/>
		<path style="fill:#71C285;" d="M326.621,364.049v86.157h-35.31v-71.15C304.25,377.448,316.482,372.249,326.621,364.049z"/>
		<path style="fill:#71C285;" d="M158.896,219.365v44.138c-22.334,13.153-34.251,39.018-38.577,63.735
			c-1.398,8.22-1.96,16.56-1.678,24.894c1.103,7.837,1.635,15.744,1.589,23.658c-1.465,8.508-5.5,16.364-11.564,22.51
			c-1.412,1.589-3.002,3.443-4.767,5.473c-0.71-0.734-1.547-1.332-2.472-1.766c-5.032-2.383-8.121-21.716-6.621-40.519
			c0.268-3.138-1.158-6.181-3.742-7.982c-2.584-1.801-5.932-2.087-8.783-0.75c-2.852,1.337-4.773,4.094-5.042,7.232
			c-0.883,10.417-2.295,43.167,12.534,55.261c-1.693,0.797-3.518,1.276-5.384,1.412c-8.916,0.441-18.362-9.092-22.953-15.978
			c-14.388-21.716-8.209-50.406,1.942-72.474c2.648-5.915,5.563-11.741,8.564-17.39c0.529-1.059,1.059-2.03,1.59-3.09
			c10.676-21.419,24.78-40.95,41.754-57.821C128.374,237.799,143.044,227.524,158.896,219.365z"/>
		<path style="fill:#71C285;" d="M450.56,400.684c-4.59,6.885-14.037,16.419-22.953,15.978c-1.866-0.136-3.691-0.615-5.384-1.412
			c14.83-12.094,13.418-44.844,12.535-55.261c-0.157-2.346-1.262-4.528-3.06-6.043c-1.798-1.515-4.136-2.234-6.475-1.99
			c-2.33,0.197-4.487,1.313-5.993,3.101c-1.507,1.788-2.24,4.103-2.039,6.433c1.412,16.596-1.236,37.959-6.621,40.519
			c-0.924,0.433-1.762,1.032-2.472,1.766c-1.766-2.03-3.354-3.884-4.767-5.473c-6.063-6.146-10.099-14.002-11.564-22.51
			c-0.045-7.914,0.486-15.821,1.589-23.658c0.283-8.333-0.279-16.674-1.678-24.894c-4.326-24.717-16.243-50.582-38.577-63.735
			v-44.138c15.853,8.159,30.523,18.434,43.608,30.543c16.974,16.871,31.078,36.402,41.754,57.821c0.53,1.059,1.06,2.03,1.589,3.09
			c3.001,5.65,5.915,11.476,8.564,17.39C458.769,350.278,464.948,378.968,450.56,400.684z"/>
	</g>
	<rect x="158.896" y="273.655" style="fill:#2C2F38;" width="194.207" height="17.655"/>
</g>
<g>
</g>
<g>
</g>
<g>
</g>
<g>
</g>
<g>
</g>
<g>
</g>
<g>
</g>
<g>
</g>
<g>
</g>
<g>
</g>
<g>
</g>
<g>
</g>
<g>
</g>
<g>
</g>
<g>
</g>
</svg>
