<?xml version="1.0" encoding="iso-8859-1"?>
<!-- Generator: Adobe Illustrator 19.0.0, SVG Export Plug-In . SVG Version: 6.00 Build 0)  -->
<svg version="1.1" id="Capa_1" xmlns="http://www.w3.org/2000/svg" xmlns:xlink="http://www.w3.org/1999/xlink" x="0px" y="0px"
	 viewBox="0 0 512.003 512.003" style="enable-background:new 0 0 512.003 512.003;" xml:space="preserve">
<g>
	<path style="fill:#71C285;" d="M511.56,390.094c0.102-1.598-0.017-3.202-0.353-4.767l-18.097-81.743
		c-1.379-6.501-6.35-11.643-12.8-13.241l-55.261-14.301c-2.329-6.38-5.194-12.552-8.563-18.45c-0.794-1.148-1.766-2.825-2.825-4.767
		c-8.076-16.109-8.88-34.902-2.207-51.641c1.059-2.913,2.207-5.738,3.443-8.298c2.982-6.753,6.809-13.101,11.388-18.891v-0.088
		c25.532-0.453,48.14-16.602,56.85-40.607c0.618-1.677,1.148-3.443,1.677-5.208c8.21-30.932-8.542-63.016-38.616-73.958
		c-30.074-10.942-63.527,2.875-77.114,31.85c-0.812,1.631-1.52,3.311-2.119,5.032c-8.758,24.011-1.807,50.936,17.479,67.708
		c-0.381,10.393-2.469,20.652-6.179,30.367c-2.331,6.62-5.666,12.842-9.887,18.45c-26.999-17.588-57.871-28.343-89.953-31.338
		c-3.355-8.299-5.035-17.179-4.943-26.13c-0.143-10.392,1.408-20.738,4.59-30.632c23.835-9.187,39.555-32.1,39.548-57.644
		c0-1.854-0.088-3.619-0.265-5.473C314.531,24.444,287.828,0,255.825,0s-58.707,24.444-61.528,56.323
		c-0.177,1.854-0.265,3.619-0.265,5.473c-0.007,25.544,15.712,48.457,39.548,57.644c3.183,9.894,4.733,20.24,4.59,30.632
		c0.091,8.951-1.589,17.831-4.943,26.13c-32.082,2.995-62.954,13.75-89.953,31.338c-4.221-5.607-7.556-11.83-9.887-18.45
		c-3.711-9.715-5.798-19.974-6.179-30.367c19.286-16.772,26.236-43.697,17.479-67.708c-0.599-1.721-1.306-3.401-2.119-5.032
		c-13.587-28.975-47.04-42.792-77.114-31.85S18.627,97.16,26.837,128.091c0.53,1.766,1.059,3.531,1.677,5.208
		c8.709,24.005,31.318,40.154,56.85,40.607v0.088c4.579,5.79,8.405,12.138,11.388,18.891c1.236,2.56,2.383,5.385,3.443,8.298
		c6.673,16.739,5.87,35.533-2.207,51.641c-1.059,1.942-2.03,3.619-2.825,4.767c-3.353,5.936-6.217,12.136-8.563,18.538
		l-54.908,14.212c-6.429,1.605-11.371,6.752-12.712,13.241L0.796,385.327c-0.337,1.565-0.455,3.169-0.353,4.767
		c-0.555,4.815-0.226,9.692,0.971,14.389c3.482,17.953,20.762,29.762,38.753,26.483c17.394-5.766,26.834-24.527,21.098-41.931
		c-2.579-10.677-9.755-19.663-19.597-24.541l9.446-42.726l28.248-7.327c-0.073,0.615-0.103,1.235-0.088,1.854
		c0,43.432,24.452,74.505,63.029,93.572c-0.793,4.754-0.613,9.619,0.53,14.301l5.826,23.393c-2.505-0.458-5.045-0.694-7.592-0.706
		c-29.219,0-52.966,33.545-52.966,44.756c0,11.299,23.746,20.392,52.966,20.392s52.966-9.092,52.966-20.392
		c0.002-0.924-0.117-1.844-0.353-2.737c0.514-2.541,0.453-5.165-0.177-7.68l-14.477-57.821c25.106,6.309,50.914,9.394,76.8,9.181
		c25.886,0.214,51.694-2.871,76.8-9.181l-14.477,57.821c-0.63,2.515-0.69,5.139-0.177,7.68c-0.237,0.893-0.355,1.813-0.353,2.737
		c0,11.299,23.746,20.392,52.966,20.392s52.966-9.092,52.966-20.392c0-11.211-23.746-44.756-52.966-44.756
		c-2.546,0.012-5.087,0.248-7.592,0.706l5.826-23.393c1.143-4.682,1.323-9.547,0.53-14.301
		c38.577-19.068,63.029-50.141,63.029-93.572c0.015-0.649-0.015-1.297-0.088-1.942l28.69,7.415l9.446,42.726
		c-9.864,4.85-17.049,13.848-19.597,24.541c-4.59,11.233-2.238,24.11,6.027,32.995c8.265,8.885,20.938,12.161,32.474,8.394
		c11.536-3.767,19.833-13.891,21.262-25.941C511.786,399.786,512.115,394.909,511.56,390.094z"/>
	<path style="fill:#4C8056;" d="M432.288,314.353c-0.202-13.091-2.651-26.05-7.239-38.312c-2.329-6.38-5.194-12.552-8.563-18.45
		c-0.794-1.148-1.766-2.825-2.825-4.767c-8.076-16.109-8.88-34.902-2.207-51.641c1.059-2.913,2.207-5.738,3.443-8.298
		c2.982-6.753,6.809-13.101,11.388-18.891v-0.088c-7.607,0.224-15.187-1.004-22.334-3.619c-7.171-2.597-13.789-6.52-19.509-11.564
		c-0.381,10.393-2.469,20.652-6.179,30.367c-2.331,6.62-5.666,12.842-9.887,18.45c-26.999-17.588-57.871-28.343-89.953-31.338
		c-3.355-8.299-5.035-17.179-4.943-26.13c-0.143-10.392,1.408-20.738,4.59-30.632c-14.314,5.532-30.177,5.532-44.491,0
		c3.183,9.894,4.733,20.24,4.59,30.632c0.091,8.951-1.589,17.831-4.943,26.13c-32.082,2.995-62.954,13.75-89.953,31.338
		c-4.221-5.607-7.556-11.83-9.887-18.45c-3.711-9.715-5.798-19.974-6.179-30.367c-5.72,5.044-12.338,8.967-19.509,11.564
		c-7.147,2.615-14.727,3.843-22.334,3.619v0.088c4.579,5.79,8.405,12.138,11.388,18.891c1.236,2.56,2.383,5.385,3.443,8.298
		c6.673,16.739,5.87,35.533-2.207,51.641c-1.059,1.942-2.03,3.619-2.825,4.767c-3.353,5.936-6.217,12.136-8.563,18.538
		c-4.63,12.25-7.08,25.217-7.239,38.312c-0.073,0.615-0.103,1.235-0.088,1.854c0,43.432,24.452,74.505,63.029,93.572
		c11.77,5.691,24.07,10.214,36.723,13.506c25.106,6.309,50.914,9.394,76.8,9.181c25.886,0.214,51.694-2.871,76.8-9.181
		c12.677-3.213,24.985-7.739,36.723-13.506c38.577-19.068,63.029-50.141,63.029-93.572
		C432.391,315.647,432.362,314.998,432.288,314.353z M255.825,361.934c-73.092,0-132.414-35.575-132.414-79.448
		c-0.014-1.772,0.104-3.542,0.353-5.297c30.632,24.717,78.389,40.607,132.061,40.607s101.429-15.89,132.061-40.607
		c0.249,1.754,0.367,3.525,0.353,5.297C388.239,326.359,328.917,361.934,255.825,361.934z"/>
	<path style="fill:#E6E7E8;" d="M388.239,282.486c0,43.873-59.321,79.448-132.414,79.448s-132.414-35.575-132.414-79.448
		c-0.014-1.772,0.104-3.542,0.353-5.297c30.632,24.717,78.389,40.607,132.061,40.607s101.429-15.89,132.061-40.607
		C388.135,278.943,388.253,280.714,388.239,282.486z"/>
	<path style="fill:#2C2F38;" d="M273.48,406.072h-35.31c-4.875,0-8.828-3.952-8.828-8.828s3.952-8.828,8.828-8.828h35.31
		c4.875,0,8.828,3.952,8.828,8.828S278.355,406.072,273.48,406.072z"/>
	<g>
		<path style="fill:#157D56;" d="M211.696,221.046c-4.008,0.005-7.516-2.69-8.544-6.564s0.682-7.953,4.164-9.936
			c8.03-5.534,14.207-13.36,17.724-22.456c1.819-4.523,6.96-6.715,11.483-4.896c4.523,1.819,6.715,6.96,4.896,11.483
			c-4.965,12.811-13.839,23.733-25.362,31.215C214.729,220.649,213.225,221.047,211.696,221.046z"/>
		<path style="fill:#157D56;" d="M299.928,221.042c-1.521-0.002-3.015-0.398-4.336-1.151c-11.523-7.483-20.397-18.405-25.362-31.215
			c-1.819-4.523,0.373-9.664,4.896-11.483c4.523-1.819,9.664,0.373,11.483,4.896c3.526,9.116,9.722,16.955,17.776,22.491
			c3.439,2.016,5.103,6.085,4.061,9.933C307.404,218.362,303.915,221.036,299.928,221.042L299.928,221.042z"/>
	</g>
	<path style="fill:#E6E7E8;" d="M317.618,61.796c0,34.127-27.666,61.793-61.793,61.793s-61.793-27.666-61.793-61.793
		c0-1.854,0.088-3.619,0.265-5.473c17.353-14.107,39.171-21.557,61.528-21.01c22.357-0.547,44.175,6.903,61.528,21.01
		C317.53,58.177,317.618,59.942,317.618,61.796z"/>
	<circle style="fill:#2C2F38;" cx="255.825" cy="61.796" r="26.483"/>
	<path style="fill:#157D56;" d="M194.04,251.766c-0.494,0-0.987-0.041-1.474-0.121c-15.583-3.602-29.335-12.723-38.715-25.677
		c-1.885-2.529-2.278-5.871-1.03-8.767c1.247-2.897,3.945-4.908,7.078-5.276c3.132-0.368,6.223,0.963,8.108,3.491
		c6.662,9.343,16.427,16.016,27.552,18.828c4.494,0.806,7.632,4.905,7.238,9.453C202.402,248.246,198.606,251.744,194.04,251.766z"
		/>
	<path style="fill:#E6E7E8;" d="M127.207,158.723c-5.72,5.044-12.338,8.967-19.509,11.564c-7.147,2.615-14.727,3.843-22.334,3.619
		c-25.532-0.453-48.14-16.602-56.85-40.607c-0.618-1.677-1.148-3.443-1.677-5.208h0.088c11.442-19.205,29.387-33.674,50.582-40.783
		c20.838-8.17,43.906-8.639,65.059-1.324c0.812,1.631,1.52,3.311,2.119,5.032C153.443,115.026,146.492,141.951,127.207,158.723z"/>
	<circle style="fill:#2C2F38;" cx="86.591" cy="112.193" r="26.483"/>
	<path style="fill:#157D56;" d="M319.816,251.766c-4.59-0.004-8.411-3.524-8.79-8.098c-0.38-4.574,2.808-8.676,7.334-9.437
		c11.101-2.821,20.842-9.488,27.491-18.815c2.914-3.909,8.445-4.716,12.353-1.802c3.909,2.914,4.716,8.445,1.802,12.354
		c-9.381,12.954-23.133,22.075-38.716,25.677C320.803,251.725,320.31,251.765,319.816,251.766z"/>
	<path style="fill:#E6E7E8;" d="M484.812,128.091c-0.53,1.766-1.059,3.531-1.677,5.208c-8.709,24.005-31.318,40.154-56.85,40.607
		c-7.607,0.224-15.187-1.004-22.334-3.619c-7.171-2.597-13.789-6.52-19.509-11.564c-19.286-16.772-26.236-43.697-17.479-67.708
		c0.599-1.721,1.306-3.401,2.119-5.032c21.153-7.315,44.221-6.846,65.059,1.324c21.195,7.109,39.14,21.578,50.582,40.783H484.812z"
		/>
	<circle style="fill:#2C2F38;" cx="425.05" cy="112.193" r="26.483"/>
	<g>
		<path style="fill:#4C8056;" d="M194.032,491.611c0,11.299-23.746,20.392-52.966,20.392s-52.966-9.092-52.966-20.392
			c0-11.211,23.746-44.756,52.966-44.756c2.546,0.012,5.087,0.248,7.592,0.706c20.795,5.697,37.562,21.083,45.021,41.313
			C193.915,489.767,194.034,490.687,194.032,491.611z"/>
		<path style="fill:#4C8056;" d="M423.549,491.611c0,11.299-23.746,20.392-52.966,20.392s-52.966-9.092-52.966-20.392
			c-0.002-0.924,0.117-1.844,0.353-2.737c7.459-20.23,24.225-35.616,45.021-41.313c2.505-0.458,5.045-0.694,7.592-0.706
			C399.803,446.855,423.549,480.4,423.549,491.611z"/>
	</g>
	<g>
		<path style="fill:#2C2F38;" d="M238.17,282.486c-2.341,0.001-4.587-0.929-6.243-2.585c-1.656-1.656-2.585-3.901-2.585-6.243
			v-17.655c0-4.875,3.952-8.828,8.828-8.828s8.828,3.952,8.828,8.828v17.655c0.001,2.341-0.929,4.587-2.585,6.243
			C242.757,281.556,240.511,282.486,238.17,282.486z"/>
		<path style="fill:#2C2F38;" d="M273.48,282.486c-2.341,0.001-4.587-0.929-6.243-2.585c-1.656-1.656-2.585-3.901-2.585-6.243
			v-17.655c0-4.875,3.952-8.828,8.828-8.828s8.828,3.952,8.828,8.828v17.655c0.001,2.341-0.929,4.587-2.585,6.243
			C278.067,281.556,275.821,282.486,273.48,282.486z"/>
	</g>
</g>
<g>
</g>
<g>
</g>
<g>
</g>
<g>
</g>
<g>
</g>
<g>
</g>
<g>
</g>
<g>
</g>
<g>
</g>
<g>
</g>
<g>
</g>
<g>
</g>
<g>
</g>
<g>
</g>
<g>
</g>
</svg>
