<?xml version="1.0" encoding="iso-8859-1"?>
<!-- Generator: Adobe Illustrator 19.0.0, SVG Export Plug-In . SVG Version: 6.00 Build 0)  -->
<svg version="1.1" id="Capa_1" xmlns="http://www.w3.org/2000/svg" xmlns:xlink="http://www.w3.org/1999/xlink" x="0px" y="0px"
	 viewBox="0 0 511.469 511.469" style="enable-background:new 0 0 511.469 511.469;" xml:space="preserve">
<g>
	<path style="fill:#955BA5;" d="M103.033,247.02c-1.232-0.915-2.556-1.697-3.952-2.335c-6.947-3.291-15.097-2.788-21.587,1.332
		c-6.49,4.12-10.413,11.281-10.391,18.969c0.011,0.841,0.071,1.681,0.18,2.515c0.38,3.606,1.645,7.062,3.684,10.06h-0.18
		c-4.199,0.552-8.431,0.822-12.667,0.808c-1.439,0.09-2.965,0.09-4.491,0.09s-3.053,0-4.491-0.09c-1.439,0-2.785-0.09-4.219-0.18
		h-0.092c2.302-3.133,3.728-6.823,4.132-10.689c0.109-0.834,0.169-1.674,0.18-2.515c0.002-10.906-7.833-20.236-18.576-22.119
		c-10.742-1.883-21.284,4.227-24.99,14.484c-0.416-1.375-0.687-2.79-0.807-4.222c-0.37-2.015-0.55-4.06-0.539-6.108
		c-0.004-1.68,0.087-3.36,0.272-5.03c2.569-25.303,23.944-44.512,49.376-44.372c25.433,0.139,46.596,19.581,48.887,44.911
		C102.946,244.019,103.037,245.519,103.033,247.02z"/>
	<g>
		<path style="fill:#FAC176;" d="M49.138,264.985c0.037,2.616-0.452,5.212-1.439,7.635c-0.647,2.001-1.617,3.882-2.873,5.569
			c-17.606-0.629-32.066-4.312-37.728-16.887c-0.615-1.274-1.125-2.596-1.526-3.952c3.707-10.257,14.248-16.366,24.99-14.484
			C41.305,244.749,49.14,254.079,49.138,264.985z"/>
		<path style="fill:#FAC176;" d="M103.033,247.02c0.009,1.651-0.082,3.301-0.272,4.94c-0.088,0.449-0.088,0.898-0.175,1.258
			c-0.166,1.278-0.437,2.54-0.811,3.773c-3.145,12.036-12.754,17.426-25.509,19.851c-1.706,0.27-3.504,0.539-5.298,0.719
			c-0.536-0.725-0.988-1.508-1.347-2.335c-0.354-0.632-0.655-1.293-0.899-1.976c-0.107-0.202-0.198-0.412-0.272-0.629
			c-0.22-0.617-0.4-1.247-0.539-1.886c-0.174-0.396-0.265-0.824-0.267-1.258c-0.17-0.588-0.291-1.189-0.359-1.797v-0.269
			c-0.106-0.804-0.166-1.614-0.18-2.425c0.005-12.4,10.056-22.451,22.456-22.456c1.054-0.003,2.107,0.087,3.145,0.269
			c0.454,0.016,0.905,0.076,1.346,0.18c0.853,0.186,1.694,0.426,2.518,0.719c0.088,0,0.175,0.09,0.268,0.09
			c0.769,0.245,1.52,0.545,2.246,0.898C100.476,245.323,101.801,246.105,103.033,247.02z"/>
	</g>
	<path style="fill:#804169;" d="M130.252,207.048l-1.439,0.09c-25.781,9.521-25.781,44.373-25.781,44.373h-0.272
		c-2.291-25.33-23.454-44.772-48.887-44.911c-25.433-0.139-46.808,19.069-49.376,44.372H4.226
		c0.447-101.771,116.772-116.233,116.772-116.233l3.325-0.269l2.785,34.493L130.252,207.048z"/>
	<path style="fill:#60314F;" d="M127.107,168.963l3.145,38.086l-1.439,0.09c-25.781,9.521-25.781,44.373-25.781,44.373h-0.272
		c-1.401-15.553-10.055-29.535-23.351-37.726C91.384,195.152,107.767,179.757,127.107,168.963z"/>
	<path style="fill:#955BA5;" d="M408.436,247.02c1.232-0.915,2.556-1.697,3.952-2.335c6.947-3.291,15.097-2.788,21.587,1.332
		c6.49,4.12,10.413,11.281,10.391,18.969c-0.011,0.841-0.071,1.681-0.18,2.515c-0.38,3.606-1.645,7.062-3.684,10.06h0.18
		c4.199,0.552,8.431,0.822,12.667,0.808c1.439,0.09,2.965,0.09,4.491,0.09s3.053,0,4.491-0.09c1.439,0,2.785-0.09,4.219-0.18h0.092
		c-2.302-3.133-3.728-6.823-4.132-10.689c-0.109-0.834-0.169-1.674-0.18-2.515c-0.002-10.906,7.833-20.236,18.576-22.119
		c10.742-1.883,21.284,4.227,24.99,14.484c0.416-1.375,0.687-2.79,0.807-4.222c0.37-2.015,0.55-4.06,0.539-6.108
		c0.004-1.68-0.087-3.36-0.272-5.03c-2.569-25.303-23.944-44.512-49.376-44.372c-25.433,0.139-46.596,19.581-48.887,44.911
		C408.523,244.019,408.432,245.519,408.436,247.02z"/>
	<g>
		<path style="fill:#FAC176;" d="M462.331,264.985c-0.037,2.616,0.452,5.212,1.439,7.635c0.647,2.001,1.617,3.882,2.873,5.569
			c17.606-0.629,32.066-4.312,37.728-16.887c0.615-1.274,1.125-2.596,1.526-3.952c-3.707-10.257-14.248-16.366-24.99-14.484
			C470.164,244.749,462.329,254.079,462.331,264.985z"/>
		<path style="fill:#FAC176;" d="M408.436,247.02c-0.009,1.651,0.082,3.301,0.272,4.94c0.088,0.449,0.088,0.898,0.175,1.258
			c0.166,1.278,0.437,2.54,0.811,3.773c3.145,12.036,12.754,17.426,25.509,19.851c1.706,0.27,3.504,0.539,5.298,0.719
			c0.536-0.725,0.988-1.508,1.347-2.335c0.354-0.633,0.655-1.294,0.899-1.976c0.107-0.202,0.198-0.412,0.272-0.629
			c0.22-0.617,0.4-1.247,0.539-1.886c0.174-0.396,0.265-0.824,0.268-1.258c0.17-0.588,0.291-1.189,0.359-1.797v-0.269
			c0.106-0.805,0.166-1.614,0.18-2.426c-0.005-12.4-10.056-22.451-22.456-22.456c-1.054-0.003-2.107,0.087-3.145,0.269
			c-0.454,0.016-0.905,0.076-1.346,0.18c-0.853,0.186-1.694,0.426-2.518,0.719c-0.088,0-0.175,0.09-0.268,0.09
			c-0.769,0.245-1.52,0.545-2.246,0.898C410.993,245.323,409.668,246.105,408.436,247.02z"/>
	</g>
	
		<ellipse transform="matrix(-0.6435 -0.7654 0.7654 -0.6435 -29.2078 345.3281)" style="fill:#CC66A1;" cx="65.812" cy="179.466" rx="13.474" ry="22.456"/>
	<path style="fill:#804169;" d="M507.243,250.972h-0.272c-2.55-25.215-23.788-44.397-49.132-44.373
		c-9.106-0.045-18.041,2.477-25.781,7.276c-13.159,8.032-21.799,21.76-23.351,37.098h-0.272c-0.18-4.401-1.798-33.774-24.342-43.206
		c0.088-0.898,0.088-1.796,0.18-2.695l1.886-35.032l1.978-35.391l2.693,0.18C397.655,135.727,506.796,152.525,507.243,250.972z"/>
	<path style="fill:#60314F;" d="M432.059,213.875c-13.159,8.032-21.799,21.76-23.351,37.098h-0.272
		c-0.18-4.401-1.798-33.774-24.342-43.206c0.088-0.898,0.088-1.796,0.18-2.695l1.886-35.032
		C404.766,180.743,420.512,195.78,432.059,213.875z"/>
	
		<ellipse transform="matrix(-0.7654 -0.6435 0.6435 -0.7654 656.3845 580.9282)" style="fill:#CC66A1;" cx="434.068" cy="170.837" rx="22.456" ry="13.474"/>
	<g>
		<path style="fill:#804169;" d="M210.734,483.618c0.051,0.297,0.08,0.597,0.088,0.898c-0.302,4.522-2.609,8.673-6.29,11.318
			c-6.686,5.171-14.403,8.847-22.632,10.779c1.113-2.739,1.691-5.666,1.702-8.623c0.006-11.876-9.24-21.701-21.095-22.415
			c-11.855-0.714-22.214,7.93-23.633,19.721c-1.444-11.796-11.816-20.434-23.679-19.721c-11.863,0.713-21.125,10.531-21.146,22.416
			c-0.018,1.697,0.193,3.389,0.627,5.03c-11.496-4.761-18.592-11.318-18.592-18.504c0-116.323,81.201-190.069,89.197-197.075
			c15.118,13.633,33.062,23.755,52.548,29.642C208.711,372.101,206.328,428.024,210.734,483.618z"/>
		<path style="fill:#804169;" d="M143.182,511.464c-2.873,0-5.746-0.09-8.531-0.269c2.275-3.089,3.729-6.705,4.224-10.509
			C139.3,504.603,140.79,508.331,143.182,511.464z"/>
	</g>
	<g>
		<path style="fill:#FAC176;" d="M138.875,495.385c-0.107,0.864-0.169,1.734-0.184,2.605c0.016,0.781,0.077,1.561,0.184,2.335v0.359
			c-0.495,3.804-1.948,7.421-4.224,10.509c-1.618-0.09-3.325-0.18-4.851-0.269c-12.045-0.812-23.892-3.479-35.123-7.905
			c-0.434-1.641-0.645-3.333-0.627-5.03c-0.01-3.568,0.855-7.083,2.518-10.24c3.805-7.511,11.518-12.237,19.939-12.216
			c11.364,0.026,20.942,8.487,22.368,19.761V495.385z"/>
		<path style="fill:#FAC176;" d="M183.603,497.99c-0.011,2.957-0.588,5.884-1.702,8.623c-2.246,0.629-4.675,1.258-7.096,1.707
			c-10.314,2.123-20.82,3.177-31.351,3.144h-0.272c-2.392-3.133-3.882-6.86-4.307-10.779v-0.359c0-0.808,0.088-1.527,0.088-2.335
			c0-0.898-0.088-1.707-0.088-2.605v-0.09c0.299-2.736,1.121-5.389,2.421-7.815c4.829-9.117,15.249-13.772,25.262-11.285
			C176.571,478.683,183.602,487.672,183.603,497.99L183.603,497.99z"/>
	</g>
	<g>
		<path style="fill:#804169;" d="M434.577,484.516c0,7.186-7.096,13.743-18.597,18.504c0.438-1.64,0.65-3.333,0.632-5.03
			c-0.021-11.884-9.283-21.702-21.146-22.415s-22.234,7.924-23.679,19.72c-1.423-11.79-11.782-20.431-23.635-19.717
			c-11.854,0.714-21.1,10.537-21.097,22.412c0.01,2.957,0.589,5.885,1.706,8.623c-8.012-1.923-15.556-5.436-22.184-10.33
			c-3.903-2.708-6.378-7.03-6.737-11.767c0.007-0.301,0.037-0.601,0.088-0.898c4.408-55.259,2.086-110.848-6.917-165.547
			c11.19-2.946,21.942-7.356,31.978-13.114c7.954-4.492,15.447-9.758,22.368-15.719
			C362.085,302.711,434.577,374.661,434.577,484.516z"/>
		<path style="fill:#804169;" d="M376.011,511.194c-2.785,0.18-5.662,0.269-8.535,0.269c2.396-3.131,3.887-6.859,4.312-10.779
			C372.282,504.489,373.736,508.105,376.011,511.194z"/>
	</g>
	<g>
		<path style="fill:#F9EAB0;" d="M371.787,495.385c0,0.898-0.088,1.707-0.088,2.605c0,0.808,0.088,1.527,0.088,2.335v0.359
			c-0.425,3.92-1.916,7.648-4.312,10.779h-0.267c-12.975,0.112-25.907-1.52-38.447-4.85c-1.117-2.738-1.696-5.666-1.706-8.623
			c-0.003-11.875,9.244-21.698,21.097-22.412c11.854-0.714,22.213,7.928,23.635,19.717V495.385z"/>
		<path style="fill:#F9EAB0;" d="M416.612,497.99c0.018,1.698-0.194,3.39-0.632,5.03c-12.765,4.965-26.28,7.729-39.969,8.174
			c-2.275-3.089-3.729-6.705-4.224-10.509v-0.359c0.106-0.774,0.166-1.554,0.18-2.335c-0.014-0.871-0.074-1.74-0.18-2.605v-0.09
			c1.445-11.796,11.816-20.434,23.679-19.72S416.591,486.106,416.612,497.99z"/>
	</g>
	<g>
		<path style="fill:#60314F;" d="M217.831,317.083c-9.12,55.017-11.503,110.941-7.096,166.535c0.051,0.297,0.08,0.597,0.087,0.898
			c-0.302,4.522-2.609,8.673-6.29,11.318c-18.14-27.127-29.64-68.446-29.64-114.616c-0.19-26.407,3.874-52.673,12.035-77.788
			C196.594,309.3,206.982,313.89,217.831,317.083z"/>
		<path style="fill:#60314F;" d="M336.577,381.218c0,46.439-11.675,87.938-30,115.065c-3.903-2.708-6.378-7.03-6.737-11.767
			c0.007-0.301,0.037-0.601,0.088-0.898c4.408-55.259,2.086-110.848-6.916-165.547c11.19-2.946,21.942-7.356,31.978-13.114
			C332.849,329.607,336.76,355.346,336.577,381.218z"/>
	</g>
	<g>
		
			<ellipse transform="matrix(-0.9753 -0.2208 0.2208 -0.9753 160.5496 824.2384)" style="fill:#CC66A1;" cx="126.341" cy="403.146" rx="22.456" ry="35.93"/>
		
			<ellipse transform="matrix(-0.2208 -0.9753 0.9753 -0.2208 91.1267 809.3511)" style="fill:#CC66A1;" cx="368.866" cy="368.274" rx="35.93" ry="22.456"/>
	</g>
	<g>
		<path style="fill:#FAC176;" d="M371.787,495.385c0.107,0.864,0.169,1.734,0.184,2.605c-0.016,0.781-0.077,1.561-0.184,2.335v0.359
			c0.495,3.804,1.948,7.421,4.224,10.509c1.618-0.09,3.324-0.18,4.851-0.269c12.045-0.812,23.892-3.478,35.123-7.905
			c0.434-1.641,0.645-3.333,0.627-5.03c0.01-3.568-0.855-7.083-2.518-10.24c-3.805-7.511-11.518-12.237-19.939-12.216
			c-11.364,0.026-20.942,8.487-22.368,19.761V495.385z"/>
		<path style="fill:#FAC176;" d="M327.059,497.99c0.011,2.957,0.588,5.884,1.702,8.623c2.246,0.629,4.675,1.258,7.096,1.707
			c10.314,2.123,20.82,3.177,31.351,3.144h0.272c2.392-3.133,3.882-6.86,4.307-10.779v-0.359c0-0.808-0.088-1.527-0.088-2.335
			c0-0.898,0.088-1.707,0.088-2.605v-0.09c-0.299-2.736-1.121-5.389-2.421-7.815c-4.829-9.117-15.249-13.772-25.262-11.285
			C334.09,478.683,327.06,487.672,327.059,497.99L327.059,497.99z"/>
	</g>
	<path style="fill:#894B9D;" d="M399.274,94.678l-2.154,39.972l-3.864,70.422c-0.092,0.898-0.092,1.796-0.18,2.695
		c-2.632,35.177-19.066,67.885-45.72,90.992c-15.681,13.627-34.27,23.49-54.347,28.834c-11.648,3.189-23.673,4.791-35.75,4.761
		c-33.994,0.051-66.786-12.567-91.978-35.391c-25.388-22.727-41.081-54.335-43.838-88.298l-0.175-1.617l-5.93-72.578l-3.053-37.367
		c-1.879-25.171,6.855-49.981,24.087-68.425c17.232-18.444,41.392-28.841,66.633-28.675h105.456
		c24.82-0.185,48.621,9.861,65.802,27.773C391.447,45.688,400.492,69.887,399.274,94.678z"/>
	<path style="fill:#955BA5;" d="M372.375,89.56l-1.75,37.811l-3.139,66.616c-0.075,0.85-0.075,1.7-0.146,2.549
		c-1.668,32.216-14.85,62.761-37.146,86.074c-12.249,12.587-27.417,21.956-44.156,27.275c-9.388,3.005-19.189,4.525-29.046,4.504
		c-10.91,0.013-21.742-1.826-32.036-5.438c-16.285-5.765-30.934-15.385-42.695-28.039c-21.219-22.856-33.813-52.39-35.618-83.525
		l-0.143-1.529l-4.818-68.655l-2.48-35.347C135.77,42.402,169.706,0.003,212.91,0.003h85.682
		C340.995,0.003,374.71,40.873,372.375,89.56z"/>
	<path style="fill:#FFFFFF;" d="M349.927,131.236c-0.622,49.79-41.161,89.826-90.955,89.826s-90.333-40.036-90.955-89.826
		c-0.011-9.879,1.65-19.689,4.912-29.013c10.795,3.159,21.797,5.56,32.927,7.186c17.583,2.627,35.339,3.918,53.116,3.862
		c17.778,0.055,35.534-1.236,53.116-3.862c11.13-1.626,22.132-4.027,32.927-7.186C348.278,111.548,349.938,121.357,349.927,131.236z
		"/>
	<path style="fill:#3D324C;" d="M258.972,89.827c-12.162,0.028-24.311-0.807-36.355-2.5c-10.286-1.392-20.421-3.727-30.28-6.974
		c-2.269-0.757-4.141-2.39-5.199-4.535c-1.058-2.145-1.214-4.625-0.432-6.886c1.677-4.712,6.837-7.193,11.565-5.561
		c8.781,2.878,17.808,4.945,26.967,6.175c22.388,3.07,45.091,3.07,67.479,0c9.156-1.231,18.179-3.298,26.958-6.175
		c4.728-1.63,9.886,0.851,11.565,5.561c0.781,2.261,0.625,4.74-0.432,6.886s-2.93,3.778-5.199,4.535
		c-9.856,3.246-19.988,5.58-30.271,6.974C283.289,89.02,271.137,89.855,258.972,89.827z"/>
	<path style="fill:#2C2F38;" d="M297.718,111.295c4.412,7.022,6.746,15.151,6.731,23.444c-0.313,24.894-20.582,44.91-45.478,44.91
		c-24.896,0-45.165-20.016-45.478-44.91c-0.015-8.293,2.319-16.422,6.731-23.444H297.718z"/>
	<g>
		<path style="fill:#3D324C;" d="M304.449,269.476h-90.955c-3.236,0.041-6.244-1.662-7.874-4.458c-1.63-2.796-1.63-6.253,0-9.049
			c1.63-2.796,4.638-4.499,7.874-4.458h90.955c3.236-0.041,6.244,1.662,7.874,4.458c1.63,2.796,1.63,6.253,0,9.049
			C310.694,267.814,307.686,269.517,304.449,269.476z"/>
		<path style="fill:#3D324C;" d="M268.067,296.424h-18.191c-3.236,0.041-6.244-1.662-7.874-4.458c-1.63-2.796-1.63-6.253,0-9.049
			c1.63-2.796,4.638-4.499,7.874-4.458h18.191c3.236-0.041,6.244,1.662,7.874,4.458c1.63,2.796,1.63,6.253,0,9.049
			C274.312,294.761,271.304,296.465,268.067,296.424z"/>
		<path style="fill:#3D324C;" d="M258.972,122.261c-18.242,0.047-36.461-1.285-54.502-3.987
			c-15.353-2.213-30.455-5.907-45.096-11.03c-2.255-0.799-4.096-2.468-5.112-4.633s-1.123-4.648-0.297-6.893
			c1.777-4.667,6.969-7.045,11.663-5.342c13.518,4.716,27.46,8.113,41.632,10.145c34.293,5.009,69.133,5.009,103.426,0
			c14.172-2.032,28.114-5.43,41.632-10.145c4.694-1.711,9.892,0.67,11.662,5.342c0.826,2.245,0.719,4.727-0.297,6.893
			c-1.016,2.166-2.857,3.834-5.112,4.633c-14.641,5.124-29.743,8.818-45.096,11.031
			C295.433,120.976,277.214,122.309,258.972,122.261z"/>
	</g>
	<circle style="fill:#FFFFFF;" cx="242.261" cy="139.231" r="13.474"/>
</g>
<g>
</g>
<g>
</g>
<g>
</g>
<g>
</g>
<g>
</g>
<g>
</g>
<g>
</g>
<g>
</g>
<g>
</g>
<g>
</g>
<g>
</g>
<g>
</g>
<g>
</g>
<g>
</g>
<g>
</g>
</svg>
