<?xml version="1.0" encoding="iso-8859-1"?>
<!-- Generator: Adobe Illustrator 19.0.0, SVG Export Plug-In . SVG Version: 6.00 Build 0)  -->
<svg version="1.1" id="Capa_1" xmlns="http://www.w3.org/2000/svg" xmlns:xlink="http://www.w3.org/1999/xlink" x="0px" y="0px"
	 viewBox="0 0 512.008 512.008" style="enable-background:new 0 0 512.008 512.008;" xml:space="preserve">
<g transform="translate(-1)">
	<path style="fill:#3D324C;" d="M253.565,481.988v0.088c-9.924,0.008-19.826,0.954-29.572,2.824h-0.088
		c-9.501,1.756-18.812,4.416-27.807,7.945c-59.89,22.587-126.329,20.267-184.497-6.444c-9.126-4.216-13.124-15.018-8.942-24.159
		c4.182-9.141,14.968-13.18,24.125-9.033c69.915,30.632,107.079-35.575,115.465-76.8v34.957
		c-0.005,18.731,7.434,36.697,20.679,49.942c13.245,13.245,31.211,20.684,49.942,20.679L253.565,481.988z"/>
	<path style="fill:#804169;" d="M371.766,358.402v52.966c0.005,18.731-7.434,36.697-20.679,49.942
		c-13.245,13.245-31.211,20.684-49.942,20.679h-88.276c-18.731,0.005-36.697-7.434-49.942-20.679
		c-13.245-13.245-20.684-31.211-20.679-49.942v-52.966h1.236c4.501,8.434,9.886,16.364,16.066,23.658
		c24.25,27.307,58.206,44.064,94.632,46.698c1.879,0.177,3.771,0.177,5.65,0c36.426-2.634,70.382-19.39,94.632-46.698
		c6.18-7.293,11.565-15.224,16.066-23.658H371.766z"/>
	<path style="fill:#3D324C;" d="M513.007,469.806c0.037,7.133-4.108,13.626-10.593,16.596
		c-58.168,26.711-124.607,29.032-184.497,6.444c-8.995-3.528-18.306-6.189-27.807-7.945h-0.088
		c-9.747-1.87-19.648-2.816-29.572-2.824v-0.088h40.695c18.731,0.005,36.697-7.434,49.942-20.679
		c13.245-13.245,20.684-31.211,20.679-49.942V376.41c8.386,41.225,45.55,107.432,115.465,76.8c5.643-2.555,12.197-2.073,17.406,1.28
		C509.845,457.844,512.997,463.611,513.007,469.806z"/>
	<g>
		<path style="fill:#E6E7E8;" d="M257.802,190.697h-0.794v2.56c-1.942,103.901-115.818,59.851-130.825,53.583h-0.088
			c-4.237-21.716-9.799-43.255-13.859-65.059c22.422,6.179,64.883,4.237,91.807,17.743c35.31,17.655,52.966,8.916,52.966-17.655
			C256.985,184.831,257.251,187.787,257.802,190.697z"/>
		<path style="fill:#E6E7E8;" d="M401.78,181.781c-4.061,21.804-9.622,43.343-13.859,65.059h-0.088
			c-14.919,6.268-128.883,50.317-130.825-53.583v-2.56h0.794c3.708,19.509,21.097,24.364,52.171,8.828
			C336.897,186.018,379.358,187.961,401.78,181.781z"/>
	</g>
	<path style="fill:#955BA5;" d="M386.42,254.344c-2.383,12.773-3.006,25.811-1.854,38.753c1.78,11.883,1.751,23.966-0.088,35.84
		c-2.713,13.395-7.414,26.308-13.948,38.312c-4.501,8.434-9.886,16.364-16.066,23.658c-24.25,27.307-58.206,44.064-94.632,46.698
		c-1.879,0.177-3.771,0.177-5.65,0c-36.426-2.634-70.382-19.39-94.632-46.698c-6.18-7.293-11.566-15.224-16.066-23.658
		c-6.533-12.004-11.234-24.917-13.948-38.312c-1.839-11.874-1.869-23.957-0.088-35.84c1.153-12.942,0.529-25.98-1.854-38.753
		c-0.442-2.472-0.971-5.031-1.412-7.503c15.007,6.268,128.883,50.317,130.825-53.583c1.942,103.901,115.906,59.851,130.825,53.583
		C387.391,249.312,386.861,251.872,386.42,254.344z"/>
	<path style="fill:#AF8066;" d="M124.594,128.904c-6.266,4.826-12.033,10.267-17.214,16.243"/>
	<path style="fill:#955BA5;" d="M415.904,173.042c-3.301,4.737-8.412,7.899-14.124,8.739c-22.422,6.179-64.883,4.237-91.807,17.743
		c-31.073,15.537-48.463,10.681-52.171-8.828c-0.551-2.91-0.817-5.866-0.794-8.828c0,26.571-17.655,35.31-52.966,17.655
		c-26.924-13.506-69.385-11.564-91.807-17.743c-5.712-0.84-10.823-4.002-14.124-8.739c-4.326-8.563,1.854-19.244,9.269-27.895
		c-0.088-1.589-0.177-3.266-0.265-4.855c-1.236-28.513,3.442-59.674,24.276-82.803c7.73-8.378,16.342-15.896,25.688-22.422
		c60.076-41.754,139.78-41.754,199.857,0c9.346,6.526,17.959,14.044,25.688,22.422c20.834,23.128,25.512,54.29,24.276,82.803
		c-0.088,1.589-0.177,3.266-0.265,4.855C414.05,153.798,420.229,164.479,415.904,173.042z"/>
	<path style="fill:#AF8066;" d="M406.635,145.147c-5.181-5.975-10.948-11.417-17.214-16.243"/>
	<path style="fill:#FF5364;" d="M318.8,307.663c-26.483-6.621-26.483-19.862-61.793-19.862s-35.31,13.241-61.793,19.862
		c-12.752,2.826-22.686,12.828-25.423,25.6v0.088c1.657,15.091,11.4,28.082,25.423,33.898c26.483,8.828,26.483,26.483,61.793,26.483
		s35.31-17.655,61.793-26.483c14.023-5.816,23.767-18.807,25.423-33.898v-0.088C341.487,320.491,331.553,310.488,318.8,307.663z
		 M274.574,352.154c-4.521,4.772-11.047,7.1-17.567,6.268c-6.52,0.832-13.046-1.496-17.567-6.268
		c-6.962-5.659-14.579-10.461-22.687-14.301c6.537-2.575,12.854-5.675,18.891-9.269c6.249-4.295,13.819-6.234,21.363-5.473
		c7.544-0.761,15.114,1.178,21.363,5.473c6.027,3.612,12.346,6.712,18.891,9.269C289.171,341.726,281.558,346.525,274.574,352.154z"
		/>
	<g>
		<path style="fill:#3D324C;" d="M297.261,337.853c-8.09,3.873-15.703,8.672-22.687,14.301c-4.521,4.772-11.047,7.1-17.567,6.268
			c-6.52,0.832-13.046-1.496-17.567-6.268c-6.962-5.659-14.579-10.461-22.687-14.301c6.537-2.575,12.854-5.675,18.891-9.269
			c6.249-4.295,13.819-6.234,21.363-5.473c7.544-0.761,15.114,1.178,21.363,5.473C284.397,332.196,290.716,335.296,297.261,337.853z
			"/>
		<path style="fill:#3D324C;" d="M257.007,146.559c-2.341,0.001-4.587-0.929-6.243-2.585c-1.656-1.656-2.585-3.901-2.585-6.243
			c0-26.698-53.698-35.323-54.241-35.401c-4.814-0.714-8.143-5.189-7.442-10.005c0.701-4.816,5.167-8.157,9.985-7.469
			c2.828,0.41,69.353,10.53,69.353,52.875c0.001,2.341-0.929,4.587-2.585,6.243C261.594,145.63,259.349,146.56,257.007,146.559z"/>
		<path style="fill:#3D324C;" d="M257.007,146.559c-2.341,0.001-4.587-0.929-6.243-2.585c-1.656-1.656-2.585-3.901-2.585-6.243
			c0-42.345,66.526-52.466,69.353-52.875c4.818-0.688,9.284,2.653,9.985,7.469c0.701,4.816-2.628,9.291-7.442,10.005
			c-0.543,0.078-54.241,8.703-54.241,35.401c0.001,2.341-0.929,4.587-2.585,6.243C261.594,145.63,259.349,146.56,257.007,146.559z"
			/>
		<path style="fill:#3D324C;" d="M177.559,234.835c-2.341,0.001-4.587-0.929-6.243-2.585c-1.656-1.656-2.585-3.901-2.585-6.243
			v-8.828c0-4.875,3.952-8.828,8.828-8.828s8.828,3.952,8.828,8.828v8.828c0.001,2.341-0.929,4.587-2.585,6.243
			C182.146,233.906,179.9,234.836,177.559,234.835z"/>
		<path style="fill:#3D324C;" d="M336.456,234.835c-2.341,0.001-4.587-0.929-6.243-2.585c-1.656-1.656-2.585-3.901-2.585-6.243
			v-8.828c0-4.875,3.952-8.828,8.828-8.828s8.828,3.952,8.828,8.828v8.828c0.001,2.341-0.929,4.587-2.585,6.243
			C341.043,233.906,338.797,234.836,336.456,234.835z"/>
		<path style="fill:#3D324C;" d="M235.042,217.563c-12.267-0.691-24.217-4.159-34.948-10.142
			c-18.212-7.124-37.472-11.198-57.009-12.06c-25.75-2.69-46.095-4.815-52.871-18.371c-11.534-23.078,22.198-49.987,29.086-55.147
			c3.898-2.914,9.42-2.122,12.342,1.771c2.922,3.893,2.14,9.416-1.747,12.345c-12.017,9.043-27.431,26.043-23.888,33.134
			c2.448,4.897,24.397,7.19,38.914,8.711c21.658,0.974,42.989,5.65,63.069,13.823c15.81,7.905,28.345,10.319,34.397,6.565
			c4.785-2.957,5.793-10.509,5.793-16.323c0-4.875,3.952-8.828,8.828-8.828s8.828,3.952,8.828,8.828
			c0,18.668-7.706,27.349-14.164,31.345C246.648,216.201,240.884,217.708,235.042,217.563z"/>
		<path style="fill:#3D324C;" d="M278.973,217.563c-5.842,0.146-11.607-1.362-16.629-4.349
			c-6.457-3.996-14.164-12.677-14.164-31.345c0-4.875,3.952-8.828,8.828-8.828s8.828,3.952,8.828,8.828
			c0,5.815,1.009,13.366,5.793,16.323c6.052,3.754,18.586,1.341,34.397-6.565c20.08-8.174,41.411-12.849,63.069-13.823
			c14.517-1.522,36.466-3.815,38.914-8.711c3.56-7.125-11.862-24.112-23.879-33.129c-2.533-1.887-3.863-4.985-3.489-8.121
			c0.374-3.136,2.396-5.833,5.302-7.072c2.906-1.239,6.251-0.83,8.773,1.072c6.888,5.159,40.621,32.069,29.086,55.147
			c-6.776,13.556-27.121,15.681-52.871,18.371c-19.536,0.862-38.797,4.937-57.009,12.06
			C303.189,213.403,291.24,216.87,278.973,217.563z"/>
	</g>
</g>
<g>
</g>
<g>
</g>
<g>
</g>
<g>
</g>
<g>
</g>
<g>
</g>
<g>
</g>
<g>
</g>
<g>
</g>
<g>
</g>
<g>
</g>
<g>
</g>
<g>
</g>
<g>
</g>
<g>
</g>
</svg>
