<?xml version="1.0" encoding="iso-8859-1"?>
<!-- Generator: Adobe Illustrator 19.0.0, SVG Export Plug-In . SVG Version: 6.00 Build 0)  -->
<svg version="1.1" id="Capa_1" xmlns="http://www.w3.org/2000/svg" xmlns:xlink="http://www.w3.org/1999/xlink" x="0px" y="0px"
	 viewBox="0 0 503.967 503.967" style="enable-background:new 0 0 503.967 503.967;" xml:space="preserve">
<g>
	<path style="fill:#4C8056;" d="M428.535,371.73h-61.793c0,0,0-48.199-36.546-59.41c13.154-5.439,25.579-12.496,36.988-21.009
		C390.577,303.228,428.535,329.004,428.535,371.73z"/>
	<path style="fill:#71C285;" d="M428.535,371.73v17.655c0.009,7.027-2.778,13.768-7.746,18.736
		c-4.969,4.969-11.71,7.756-18.736,7.746h-8.828c-7.027,0.009-13.768-2.778-18.736-7.746s-7.756-11.71-7.746-18.736l0-17.655
		H428.535z"/>
	<path style="fill:#4C8056;" d="M173.771,312.32c-36.546,11.212-36.546,59.41-36.546,59.41H75.432
		c0-42.726,37.959-68.502,61.352-80.419C148.192,299.823,160.617,306.881,173.771,312.32z"/>
	<path style="fill:#71C285;" d="M137.225,371.73l0,17.655c0.009,7.027-2.778,13.768-7.746,18.736
		c-4.969,4.969-11.71,7.756-18.736,7.746h-8.828c-7.027,0.009-13.768-2.778-18.736-7.746s-7.756-11.71-7.746-18.736l0-17.655
		H137.225z"/>
	<g>
		<path style="fill:#4C8056;" d="M234.417,432.64l-0.088,0.706c-18.273,0-23.923,33.721-25.688,54.554
			c-0.822,9.092-8.438,16.058-17.567,16.066h-33.721c-5.5,0.007-10.69-2.544-14.045-6.902s-4.493-10.028-3.08-15.343
			c11.123-42.549,49.964-74.858,49.964-74.858l1.677-0.794C201.619,420.582,217.097,430.247,234.417,432.64z"/>
		<path style="fill:#4C8056;" d="M346.615,503.967h-33.721c-9.129-0.009-16.745-6.975-17.567-16.066
			c-1.677-20.303-7.15-52.789-24.276-54.466l0.088-1.059c16.69-2.764,31.505-12.278,40.96-26.306l1.677,0.794
			c0,0,38.841,32.309,49.964,74.858c1.413,5.315,0.275,10.985-3.08,15.343C357.305,501.423,352.115,503.974,346.615,503.967z"/>
	</g>
	<path style="fill:#D75E72;" d="M391.238,152.452c-8.428-15.745-19.924-29.642-33.81-40.872
		c21.391-10.916,41.877-23.52,61.263-37.694C421.781,106.196,417.985,141.241,391.238,152.452z"/>
	<g>
		<path style="fill:#4C8056;" d="M403.949,185.379l-3.178-8.033l-0.088-0.265c-2.133-8.564-5.305-16.835-9.445-24.629
			c26.748-11.211,30.543-46.257,27.454-78.566c-19.386,14.174-39.872,26.778-61.263,37.694h-0.088
			c-9.684-8.013-20.258-14.885-31.514-20.48l-1.324-2.825c0,0,97.103-44.138,114.759-88.276
			C439.26,0,492.225,150.069,403.949,185.379z"/>
		<path style="fill:#4C8056;" d="M179.466,88.276l-1.324,2.825c-11.249,5.606-21.822,12.477-31.514,20.48h-0.088
			c-21.391-10.916-41.877-23.52-61.263-37.694c-3.09,32.309,0.706,67.354,27.454,78.566c-4.141,7.825-7.312,16.125-9.446,24.717
			l-0.088,0.177l-3.178,8.033C11.742,150.069,64.707,0,64.707,0C82.362,44.138,179.466,88.276,179.466,88.276z"/>
	</g>
	<path style="fill:#D75E72;" d="M146.539,111.581c-13.886,11.23-25.382,25.127-33.81,40.872
		c-26.748-11.211-30.543-46.257-27.454-78.566C104.662,88.061,125.148,100.665,146.539,111.581z"/>
	<path style="fill:#46B29D;" d="M416.53,177.346l-0.088-0.265l-9.887-24.452c0.177-0.088,0.265-0.088,0.441-0.177
		c-8.428-15.745-19.924-29.642-33.81-40.872h-0.088c-9.684-8.013-20.259-14.885-31.514-20.48
		c-19.158-9.456-39.733-15.717-60.91-18.538l-1.501,16.508c-0.375,4.546-4.178,8.042-8.739,8.033h-36.899
		c-4.561,0.009-8.365-3.487-8.739-8.033l-1.501-16.508c-21.178,2.821-41.752,9.082-60.91,18.538
		c-11.249,5.606-21.822,12.477-31.514,20.48h-0.088c-13.886,11.23-25.382,25.127-33.81,40.872c0.177,0.088,0.265,0.088,0.441,0.177
		l-9.887,24.541l-0.088,0.177c-2.131,8.396-3.198,17.026-3.178,25.688c0.627,33.07,15.257,64.32,40.254,85.981
		c3.911,3.595,8.007,6.983,12.27,10.152c0.552,0.462,1.143,0.875,1.766,1.236c10.924,7.95,22.746,14.587,35.222,19.774
		c2.472,1.059,4.943,2.03,7.503,2.913h0.088c11.453,4.233,23.274,7.395,35.31,9.446c23.38,3.884,47.241,3.884,70.621,0
		c12.037-2.051,23.857-5.213,35.31-9.446h0.088c2.56-0.883,5.032-1.854,7.503-2.913c12.476-5.187,24.298-11.824,35.222-19.774
		c0.623-0.361,1.213-0.774,1.766-1.236c4.264-3.168,8.359-6.557,12.27-10.152c24.996-21.661,39.627-52.911,40.254-85.981
		C419.728,194.373,418.66,185.742,416.53,177.346z M313.777,141.241c19.501,0,35.31,15.809,35.31,35.31s-15.809,35.31-35.31,35.31
		s-35.31-15.809-35.31-35.31C278.466,176.552,294.268,141.241,313.777,141.241z M190.19,141.241c19.509,0,35.31,35.31,35.31,35.31
		c0,19.501-15.809,35.31-35.31,35.31s-35.31-15.809-35.31-35.31S170.689,141.241,190.19,141.241z"/>
	<g>
		<path style="fill:#FFFFFF;" d="M225.501,176.552c0,19.501-15.809,35.31-35.31,35.31s-35.31-15.809-35.31-35.31
			s15.809-35.31,35.31-35.31C209.699,141.241,225.501,176.552,225.501,176.552z"/>
		<path style="fill:#FFFFFF;" d="M349.087,176.552c0,19.501-15.809,35.31-35.31,35.31s-35.31-15.809-35.31-35.31
			c0,0,15.801-35.31,35.31-35.31c9.366-0.003,18.349,3.717,24.971,10.339C345.37,158.203,349.09,167.186,349.087,176.552z"/>
	</g>
	<g>
		<path style="fill:#2C2F38;" d="M379.454,289.015c-3.911,3.595-8.007,6.983-12.27,10.152c-0.552,0.462-1.143,0.875-1.766,1.236
			c-0.547-0.651-0.966-1.4-1.236-2.207c-6.788-14.57-18.516-26.266-33.103-33.015c-10.282-5.412-21.193-9.533-32.486-12.27
			c-30.602-7.65-62.617-7.65-93.22,0c-11.292,2.738-22.203,6.859-32.486,12.27c-14.588,6.749-26.315,18.445-33.103,33.015
			c-0.27,0.807-0.689,1.555-1.236,2.207c-0.623-0.361-1.213-0.774-1.766-1.236c-4.264-3.168-8.359-6.557-12.27-10.152
			c15.802-35.222,67.532-59.498,127.471-59.498S363.652,253.793,379.454,289.015z"/>
		<path style="fill:#2C2F38;" d="M190.19,185.379c-1.155-0.014-2.296-0.254-3.358-0.707c-2.215-0.807-3.96-2.552-4.767-4.767
			c-0.451-1.061-0.69-2.201-0.703-3.354c0.018-0.592,0.077-1.183,0.177-1.767c0.095-0.554,0.272-1.09,0.526-1.59
			c0.195-0.562,0.463-1.095,0.797-1.586c0.353-0.444,0.707-0.884,1.06-1.323c0.857-0.78,1.841-1.409,2.909-1.858
			c1.611-0.702,3.401-0.886,5.121-0.526c0.554,0.095,1.09,0.272,1.59,0.526c0.563,0.194,1.098,0.462,1.591,0.797
			c0.44,0.353,0.879,0.707,1.323,1.06c0.353,0.44,0.707,0.879,1.056,1.323c0.334,0.491,0.603,1.025,0.797,1.586
			c0.253,0.501,0.432,1.037,0.53,1.59c0.097,0.585,0.156,1.175,0.177,1.767c-0.014,1.153-0.254,2.293-0.707,3.353
			c-0.449,1.069-1.076,2.054-1.854,2.914c-0.444,0.353-0.884,0.707-1.323,1.056c-0.492,0.335-1.027,0.603-1.591,0.797
			c-0.501,0.253-1.037,0.432-1.59,0.53C191.37,185.304,190.781,185.363,190.19,185.379z"/>
		<path style="fill:#2C2F38;" d="M313.777,185.379c-1.155-0.014-2.296-0.254-3.358-0.707c-1.079-0.428-2.066-1.057-2.909-1.854
			c-0.38-0.419-0.734-0.861-1.06-1.323c-0.335-0.492-0.603-1.027-0.797-1.591c-0.254-0.501-0.431-1.037-0.526-1.59
			c-0.236-1.165-0.236-2.365,0-3.53c0.095-0.554,0.272-1.09,0.526-1.59c0.195-0.562,0.463-1.095,0.797-1.586
			c0.324-0.464,0.678-0.906,1.06-1.323c0.842-0.8,1.83-1.43,2.909-1.858c3.29-1.375,7.084-0.643,9.626,1.858
			c0.353,0.44,0.707,0.879,1.056,1.323c0.334,0.491,0.603,1.025,0.797,1.586c0.253,0.501,0.432,1.037,0.53,1.59
			c0.236,1.165,0.236,2.365,0,3.53c-0.098,0.553-0.277,1.089-0.53,1.59c-0.194,0.563-0.462,1.098-0.797,1.591
			c-0.349,0.44-0.703,0.879-1.056,1.323C318.351,184.43,316.113,185.344,313.777,185.379z"/>
	</g>
	<g>
		<path style="fill:#FFFFFF;" d="M205.374,252.91l-3.551,21.453c-0.54,3.264-2.86,5.952-6.01,6.964
			c-3.15,1.011-6.601,0.177-8.941-2.163l-13.984-13.984C183.171,259.769,194.082,255.648,205.374,252.91z"/>
		<path style="fill:#FFFFFF;" d="M331.079,265.181l-13.983,13.983c-2.339,2.339-5.791,3.174-8.941,2.163
			c-3.15-1.011-5.47-3.699-6.01-6.964l-3.551-21.453C309.885,255.648,320.796,259.769,331.079,265.181z"/>
	</g>
	<path style="fill:#41767F;" d="M287.294,332.535v47.051c-0.043,14.608-11.875,26.44-26.483,26.483h-17.655
		c-14.608-0.043-26.44-11.874-26.483-26.483v-47.051C240.053,336.42,263.914,336.42,287.294,332.535z"/>
	<path style="fill:#71C285;" d="M322.604,323.09l0,56.497c0.066,30.146-21.724,55.898-51.465,60.822l-1.589,0.265
		c-2.885,0.505-5.811,0.742-8.739,0.706h-17.655c-2.929,0.035-5.854-0.201-8.739-0.706c-30.463-4.247-53.115-30.329-53.054-61.087
		l0-56.497c11.453,4.233,23.274,7.395,35.31,9.446v47.051c0.043,14.608,11.875,26.44,26.483,26.483h17.655
		c14.608-0.043,26.44-11.874,26.483-26.483v-47.051C299.33,330.484,311.151,327.322,322.604,323.09z"/>
	<path style="fill:#BDC3C7;" d="M284.646,28.866l-3.972,43.697l-1.501,16.508c-0.375,4.546-4.178,8.042-8.739,8.033h-36.899
		c-4.561,0.009-8.365-3.487-8.739-8.033l-1.501-16.508l-3.972-43.697c-0.683-7.414,1.792-14.773,6.816-20.268
		S238.27-0.018,245.716,0h12.535c7.446-0.018,14.554,3.104,19.578,8.598S285.329,21.452,284.646,28.866z"/>
</g>
<g>
</g>
<g>
</g>
<g>
</g>
<g>
</g>
<g>
</g>
<g>
</g>
<g>
</g>
<g>
</g>
<g>
</g>
<g>
</g>
<g>
</g>
<g>
</g>
<g>
</g>
<g>
</g>
<g>
</g>
</svg>
